<?xml version="1.0" encoding="UTF-8"?>
<svg xmlns="http://www.w3.org/2000/svg" viewBox="0 0 500 500">
  <defs>
    <style>
      .cls-1 {
        fill: #fff;
      }

      .cls-2 {
        fill: #f9a07b;
      }

      .cls-3 {
        fill: #0a2240;
      }

      .cls-4 {
        fill: #225570;
      }

      .cls-5 {
        fill: #4f3d9b;
      }

      .cls-6 {
        fill: #0b2d50;
      }

      .cls-7 {
        fill: #a2c7eb;
      }

      .cls-8 {
        fill: #3c738c;
      }

      .cls-9 {
        stroke: #0b2d50;
      }

      .cls-9, .cls-10 {
        stroke-width: 2px;
      }

      .cls-9, .cls-10, .cls-11, .cls-12, .cls-13 {
        fill: none;
        stroke-miterlimit: 10;
      }

      .cls-9, .cls-10, .cls-12, .cls-13 {
        stroke-linecap: round;
      }

      .cls-10, .cls-13 {
        stroke: #cc454e;
      }

      .cls-14 {
        fill: #e6e6fa;
      }

      .cls-15 {
        fill: #262d40;
      }

      .cls-16 {
        fill: #cc454e;
      }

      .cls-11 {
        stroke: #9c9ce2;
      }

      .cls-12 {
        stroke: #6f8bbf;
      }

      .cls-17 {
        fill: #e06a58;
      }

      .cls-18 {
        fill: #325f73;
      }

      .cls-19 {
        fill: #d0d0f4;
      }

      .cls-20 {
        fill: #7056c1;
      }

      .cls-21 {
        fill: #e8729b;
      }

      .cls-22 {
        fill: #9c9ce2;
      }
    </style>
  </defs>
  <g id="BACKGROUND">
    <rect class="cls-1" width="500" height="500"/>
  </g>
  <g id="OBJECTS">
    <g>
      <path class="cls-14" d="m430.53,409.57c47.49-36.11,68.64-136.24-8.47-185.34-51.05-32.5-82.8-13.96-140.23-35.46-70.11-26.24-80.56-105.52-165.84-66.51-45.18,20.66-76.5,78.89-82.01,145.07-5.4,64.81,17.57,109.28,64.51,139.71,110.23,4.69,220.68,3.84,332.04,2.53Z"/>
      <path class="cls-14" d="m235.43,124.76c-7.17,28.8,19.46,57.31,47.53,69.13,28.06,11.83,60.24,10.42,90.31,4.78,12.97-2.43,26.31-5.85,36.38-14.12s15.92-22.63,10.4-34.23c-4.87-10.23-16.74-15.47-28.05-18.16-11.31-2.69-23.33-3.79-33.4-9.45-9.56-5.37-16.34-14.26-24.65-21.3-15.36-12.99-36.93-19.43-56.89-15.32-19.97,4.11-35.52,14.19-41.62,38.67Z"/>
    </g>
    <g>
      <path class="cls-22" d="m450.29,257.23v-21.79h-8.26c-.99-3.81-2.5-7.4-4.44-10.71l5.84-5.85-15.41-15.41-5.85,5.84c-3.31-1.94-6.9-3.45-10.71-4.44v-8.26h-21.79v8.26c-3.81.99-7.4,2.5-10.71,4.44l-5.85-5.84-15.41,15.41,5.84,5.85c-1.94,3.31-3.44,6.9-4.44,10.71h-8.26v21.79h8.26c1,3.81,2.5,7.4,4.44,10.71l-5.84,5.85,15.41,15.41,5.85-5.84c3.31,1.94,6.9,3.44,10.71,4.44v8.26h21.79v-8.26c3.81-1,7.4-2.5,10.71-4.44l5.85,5.84,15.41-15.41-5.84-5.85c1.94-3.31,3.45-6.9,4.44-10.71h8.26Zm-49.72,7.98c-10.43,0-18.88-8.45-18.88-18.88s8.45-18.87,18.88-18.87,18.87,8.45,18.87,18.87-8.45,18.88-18.87,18.88Z"/>
      <path class="cls-11" d="m384.45,311.82l-4.15-10.81-4.1,1.57c-1.22-1.7-2.65-3.19-4.24-4.47l1.78-4.01-10.57-4.71-1.79,4.01c-2.01-.33-4.08-.4-6.16-.17l-1.57-4.1-10.81,4.15,1.57,4.1c-1.7,1.22-3.19,2.65-4.47,4.24l-4.01-1.78-4.71,10.57,4.01,1.79c-.33,2.01-.39,4.08-.17,6.16l-4.1,1.57,4.15,10.81,4.1-1.57c1.22,1.7,2.65,3.19,4.24,4.47l-1.78,4.01,10.57,4.71,1.79-4.01c2.01.33,4.08.39,6.16.17l1.57,4.1,10.81-4.15-1.57-4.1c1.7-1.22,3.19-2.65,4.47-4.24l4.01,1.78,4.71-10.57-4.01-1.79c.33-2.01.4-4.08.17-6.16l4.1-1.57Zm-23.14,13.42c-5.17,1.98-10.97-.6-12.96-5.77-1.98-5.17.6-10.97,5.77-12.95,5.17-1.98,10.97.6,12.95,5.77,1.98,5.17-.6,10.97-5.77,12.95Z"/>
      <path class="cls-11" d="m349.05,273.92l-2.8-7.3-2.77,1.06c-.82-1.15-1.79-2.16-2.87-3.02l1.21-2.71-7.14-3.18-1.21,2.71c-1.36-.22-2.76-.27-4.16-.11l-1.06-2.77-7.3,2.8,1.06,2.77c-1.15.82-2.16,1.79-3.02,2.87l-2.71-1.21-3.18,7.14,2.71,1.21c-.22,1.36-.27,2.75-.11,4.16l-2.77,1.06,2.8,7.3,2.77-1.06c.83,1.15,1.79,2.16,2.87,3.02l-1.21,2.71,7.14,3.18,1.21-2.71c1.36.22,2.75.27,4.16.11l1.06,2.77,7.3-2.8-1.06-2.77c1.15-.83,2.16-1.79,3.02-2.87l2.71,1.21,3.18-7.14-2.71-1.21c.22-1.36.27-2.76.11-4.16l2.77-1.06Zm-15.63,9.07c-3.49,1.34-7.41-.41-8.75-3.9-1.34-3.49.41-7.41,3.9-8.75,3.49-1.34,7.41.41,8.75,3.9,1.34,3.49-.41,7.41-3.9,8.75Z"/>
    </g>
    <path class="cls-20" d="m346.51,146.09c0,10.95-5.12,20.71-13.08,27.01-5.86,4.65-13.27,7.41-21.35,7.41s-15.47-2.76-21.35-7.41c-7.97-6.31-13.08-16.07-13.08-27.01,0-19.01,15.41-34.43,34.43-34.43s34.43,15.41,34.43,34.43Z"/>
    <g>
      <circle class="cls-1" cx="312.09" cy="134.76" r="11.27" transform="translate(-14.16 39.25) rotate(-7.04)"/>
      <path class="cls-1" d="m333.43,168.76c-5.86,4.65-13.27,7.41-21.35,7.41s-15.47-2.76-21.35-7.41c2.2-9.69,4.23-18.05,6.34-20.17,2.98-2.98,10.89-4.71,15-4.71s12.4,2.11,13.93,3.64c3.12,3.11,5.81,11.7,7.43,21.24Z"/>
    </g>
    <g>
      <g>
        <path class="cls-20" d="m262.61,230.95v-17c0-4.64,3.76-8.4,8.4-8.4h53.56c4.64,0,8.4,3.76,8.4,8.4v17c0,4.64-3.76,8.4-8.4,8.4h-53.55c-4.64.01-8.41-3.76-8.41-8.4Z"/>
        <polyline class="cls-20" points="285.23 230.06 259.31 255.31 301.32 234.08"/>
      </g>
      <g>
        <path class="cls-1" d="m269.11,213.53v-.09c0-.69.56-1.25,1.25-1.25h26.48c.69,0,1.25.56,1.25,1.25v.09c0,.69-.56,1.25-1.25,1.25h-26.48c-.69,0-1.25-.56-1.25-1.25Z"/>
        <path class="cls-1" d="m299.28,213.53v-.09c0-.69.56-1.25,1.25-1.25h23.11c.69,0,1.25.56,1.25,1.25v.09c0,.69-.56,1.25-1.25,1.25h-23.11c-.69,0-1.25-.56-1.25-1.25Z"/>
        <path class="cls-1" d="m289.19,219.22v-.09c0-.69.56-1.25,1.25-1.25h33.2c.69,0,1.25.56,1.25,1.25v.09c0,.69-.56,1.25-1.25,1.25h-33.2c-.69,0-1.25-.56-1.25-1.25Z"/>
        <path class="cls-1" d="m269.11,219.22v-.09c0-.69.56-1.25,1.25-1.25h14.83c.69,0,1.25.56,1.25,1.25v.09c0,.69-.56,1.25-1.25,1.25h-14.83c-.69,0-1.25-.56-1.25-1.25Z"/>
        <path class="cls-1" d="m293.8,224.91v-.09c0-.69.56-1.25,1.25-1.25h28.59c.69,0,1.25.56,1.25,1.25v.09c0,.69-.56,1.25-1.25,1.25h-28.59c-.69,0-1.25-.56-1.25-1.25Z"/>
        <path class="cls-1" d="m269.11,224.91v-.09c0-.69.56-1.25,1.25-1.25h19.75c.69,0,1.25.56,1.25,1.25v.09c0,.69-.56,1.25-1.25,1.25h-19.75c-.69,0-1.25-.56-1.25-1.25Z"/>
        <path class="cls-1" d="m269.11,230.6v-.09c0-.69.56-1.25,1.25-1.25h7.33c.69,0,1.25.56,1.25,1.25v.09c0,.69-.56,1.25-1.25,1.25h-7.33c-.69,0-1.25-.56-1.25-1.25Z"/>
        <path class="cls-1" d="m281.53,230.6v-.09c0-.69.56-1.25,1.25-1.25h40.86c.69,0,1.25.56,1.25,1.25v.09c0,.69-.56,1.25-1.25,1.25h-40.86c-.69,0-1.25-.56-1.25-1.25Z"/>
      </g>
    </g>
    <circle class="cls-20" cx="100.37" cy="192.91" r="33.12" transform="translate(-116.88 202.53) rotate(-65.05)"/>
    <circle class="cls-1" cx="92.56" cy="209.17" r="8.03" transform="translate(-64.09 42.49) rotate(-19.35)"/>
    <polygon class="cls-20" points="88.35 212.05 87.96 206.96 92.18 204.08 96.78 206.29 97.17 211.38 92.95 214.26 88.35 212.05"/>
    <circle class="cls-1" cx="108.17" cy="176.66" r="8.03" transform="translate(-53.15 46.72) rotate(-19.67)"/>
    <polygon class="cls-20" points="104.19 179.05 104.47 172.58 109.35 168.32 113.95 170.53 113.67 177 108.79 181.26 104.19 179.05"/>
    <path class="cls-1" d="m98.12,205.46l-6.14-2.95,4.54-10.47c.29-.66.6-1.32.94-1.96l5.33-10.09,6.14,2.95-4.38,10.31c-.34.8-.71,1.58-1.12,2.34l-5.31,9.86Z"/>
    <path class="cls-20" d="m123.37,210.73c1.18-.55,20.19.32,20.19.32l-13.7-12.58-6.49,12.26Z"/>
    <circle class="cls-20" cx="177.36" cy="123.99" r="32.55" transform="translate(-6.85 237.55) rotate(-66.61)"/>
    <g>
      <rect class="cls-1" x="176.28" y="96.25" width="2.17" height="27.34"/>
      <rect class="cls-1" x="164.26" y="118.51" width="2.17" height="27.71" transform="translate(150.62 343.66) rotate(-124.69)"/>
      <path class="cls-1" d="m180.36,123.99c0,1.65-1.34,3-3,3s-3-1.34-3-3,1.34-3,3-3,3,1.34,3,3Z"/>
    </g>
    <g>
      <g>
        <g>
          <g>
            <path class="cls-19" d="m265.74,344.41c-1.93-29.76,11.09-60.56,33.02-78.18.68,29.91-12.21,60.18-33.02,78.18Z"/>
            <path class="cls-12" d="m295.18,274.24c-9.24,17.22-17.23,35.24-23.87,53.83-8.07,22.57-14.42,46.55-28.24,65.47"/>
          </g>
          <g>
            <path class="cls-19" d="m258.82,363.13c11.1-24.83,33.13-43.59,57.42-48.9-10.34,26.61-33.6,46.91-57.42,48.9Z"/>
            <path class="cls-12" d="m310.28,319.7c-16.59,14.6-33.46,28.79-50.61,42.56"/>
          </g>
          <g>
            <path class="cls-19" d="m252.27,384.76c14.83-22.15,42.19-33.71,64.83-27.39-16.65,21.87-44.07,33.46-64.83,27.39Z"/>
            <path class="cls-12" d="m311.67,358.97c-19.44,12.16-40.41,21.14-62.03,26.54"/>
          </g>
          <g>
            <path class="cls-19" d="m260.28,355.6c4.74-24.94-2.37-52.74-18.2-71.13-6.49,24.51-.3,53.23,18.2,71.13Z"/>
            <path class="cls-12" d="m243.71,290.83c3.12,23.2,8.67,44.93,17.27,66.17"/>
          </g>
          <g>
            <path class="cls-19" d="m252.14,376.84c-2.02-25.64-15.16-49.72-34.38-63.01,1.11,13.58,4.72,26.67,10.45,38.57,6.59,13.67,16.27,22.34,23.93,24.44Z"/>
            <path class="cls-12" d="m220.61,319.02c7.56,21.38,18.44,41.2,32.01,58.36"/>
          </g>
        </g>
        <g>
          <g>
            <path class="cls-19" d="m400.57,370.69c10.49-27.29,34.62-49.43,61.23-56.17-11.66,26.92-35.46,48.62-61.23,56.17Z"/>
            <path class="cls-12" d="m455.35,320.19c-15.22,11.57-29.68,24.36-43.16,38.21-16.38,16.82-31.83,35.58-51.8,46.8"/>
          </g>
          <g>
            <path class="cls-19" d="m386.78,384.54c19.99-17.59,47.15-25.31,70.79-20.13-20.04,19.49-48.92,28.08-70.79,20.13Z"/>
            <path class="cls-12" d="m450.06,366.86c-20.65,6.24-41.38,11.99-62.18,17.26"/>
          </g>
          <g>
            <path class="cls-19" d="m372.12,401.14c22.19-13.68,51.11-12.81,68.53,2.06-23.68,12.68-52.67,11.81-68.53-2.06Z"/>
            <path class="cls-12" d="m435.2,402.4c-22.16,2.9-44.39,2.34-65.7-1.67"/>
          </g>
          <g>
            <path class="cls-19" d="m391.16,378.43c14.41-20.28,19.52-47.95,13.07-70.79-15.79,19.18-22.09,47.29-13.07,70.79Z"/>
            <path class="cls-12" d="m403.06,313.96c-6.76,21.94-10.75,43.56-11.85,66"/>
          </g>
          <g>
            <path class="cls-7" d="m375.26,394.03c8.72-23.66,6.98-50.48-4.56-70.16-4.58,12.55-6.76,25.68-6.57,38.62.21,14.86,5.21,26.54,11.13,31.54Z"/>
            <path class="cls-12" d="m371.08,329.65c-2.08,22.13-.59,44.23,4.37,65.05"/>
          </g>
        </g>
        <g>
          <path class="cls-19" d="m103.27,322.98c-10.69-32.71-40.54-59.14-75.25-66.64,14.6,28.3,41.07,50.82,75.25,66.64Z"/>
          <path class="cls-19" d="m105.08,328.05c-23.42-13.25-52.77-16.17-78.22-7.79,23.6,11.79,51.56,15.07,78.22,7.79Z"/>
          <path class="cls-19" d="m111.56,335.15c-25.32-3.51-51.83,2.73-72.39,17.04,23.31,8.48,51.29,2.98,72.39-17.04Z"/>
          <path class="cls-19" d="m119.45,350.64c-25.07-.1-49.72,11.81-64.46,31.16,11.16,2.24,23.01.9,33.24-3.74,10.24-4.64,18.81-12.55,31.21-27.42Z"/>
          <path class="cls-19" d="m137.13,376.57c-24.72-4.24-51.06,3.42-68.89,20.04,10.64,4.04,22.55,4.69,33.44,1.82,10.89-2.87,20.69-9.25,35.45-21.85Z"/>
          <path class="cls-19" d="m110.44,324.53c-16.32-22-20.75-51.65-11.48-76.88,7.08,11.99,13.19,24.67,16.04,38.15,2.85,13.48,2.3,27.85-4.56,38.73Z"/>
          <path class="cls-7" d="m120.41,345.76c-3.87-23.38,4.13-48.15,21.01-65.08,1.94,24.18-5.46,48.82-21.01,65.08Z"/>
          <g>
            <path class="cls-12" d="m35.61,262.2c49.68,31.79,88.54,79.17,109.05,133.01"/>
            <path class="cls-12" d="m100.5,259.25c6.04,24.54,9.72,49.59,10.96,74.72"/>
            <path class="cls-12" d="m137.71,290.16c-1.98,19.8-8.1,39.15-17.87,56.58"/>
            <path class="cls-12" d="m37.32,320.83c22.78,4.33,45.93,6.68,69.09,7.02"/>
            <path class="cls-12" d="m51.04,350.24c21-1.53,41.67-6.61,60.77-14.97"/>
            <path class="cls-12" d="m63.63,378.27c19.38-9.67,38.76-19.35,58.14-29.01"/>
            <path class="cls-12" d="m76.23,395.34c25.3-4.88,32.82-10.71,60.9-18.77"/>
          </g>
        </g>
      </g>
      <g>
        <g>
          <path class="cls-17" d="m236.42,348.99s2.19,20.07,4.64,21.68c4.38,2.89,55.08,9.57,55.08,9.57l-1.66,13.19s-69.44,6.24-72.39,2.77c-5.12-6.02-14.12-35.06-14.12-35.06l28.45-12.15Z"/>
          <path class="cls-5" d="m202.94,297.32l5.61-13.47s15.22,7.15,20.24,15.98c5.37,9.44,11.94,59.63,11.94,59.63,0,0-26.87,6.19-31.81,3.56s-5.98-65.7-5.98-65.7Z"/>
        </g>
        <path class="cls-3" d="m160.21,234.8c-3.93-1.44-8.09-2.7-12.3-2.38s-8.51,2.55-9.94,6.25c-1.02,2.62-.55,5.71-2.16,8.07-1.54,2.26-4.6,3.2-7.46,3.39-2.87.2-5.76-.18-8.61.19-8.8,1.17-15.08,10.73-12.19,18.56,1.15,3.12,3.51,6.1,2.97,9.35-.57,3.48-4.22,5.77-5.72,9-1.99,4.3.39,9.51,4.32,12.44,3.93,2.92,9.04,4.03,14,4.77,6.83,1.02,13.88,1.5,20.63.06,6.75-1.44,13.2-5,16.69-10.56,1.55-2.46,2.49-5.24,4.29-7.55,3.72-4.77,10.31-6.62,15.5-10,5.67-3.71,9.83-10.93,6.49-16.58-3.22-5.43-11.6-6.64-14.96-11.99-1.39-2.21-1.72-4.84-2.62-7.25-.92-2.42-3.12-3.64-8.93-5.77Z"/>
        <g>
          <path class="cls-2" d="m183.11,301.41c.99,1.14,2.16,2.39,3.78,2.5,1.71.12,3.14-1.09,4.24-2.26,5.68-6.01,9.43-13.39,10.95-21-1.41-.8-2.77-1.57-4-2.29-1.14-.68-2-1.63-2.49-2.74-.34-.82-.46-1.68-.37-2.58.8-7.52,1.51-11.71,4.15-19.34-12.54-2.83-24.37-6.19-31.17-11.87-.83,3.5-1.81,10.35-3.9,17.14-2.23,7.19-5.71,14.3-11.61,17.36,11.58,6.84,21.91,15.34,30.42,25.08Z"/>
          <path class="cls-17" d="m195.22,273.05c-.09.9.03,1.77.37,2.58-7.42,9-24.01-2.76-31.29-16.65,2.09-6.79,3.07-13.64,3.9-17.14,6.79,5.68,18.63,9.05,31.17,11.87-2.64,7.63-3.35,11.81-4.15,19.34Z"/>
        </g>
        <g>
          <path class="cls-20" d="m215.88,381.85c-1.64,10.86,10.08,22.55,10.37,28.35-24.89,0-77.03,1.52-103.58-2.09-1.21-6.7,11.9-21.77,11.9-36.65,0-1.97-.08-4.13-.24-6.45-.42-6.64-1.4-14.54-2.49-22.64-2.96-21.73-6.9-44.97-3.99-49.79,5.7-9.39,19.03-15.77,25.64-18.51,2.27-.94,3.75-1.45,3.86-1.51,8.29,14.14,25.16,26.2,31.53,25.66,1.77-.14,7.02-1.97,10.49-19.44,1.35.77,2.7,1.48,4.04,2.17,6.59,3.43,12.77,6.26,14.55,10.67,4.7,11.61,9.31,40.88,8.29,51.29-1.03,10.5-5.25,18.52-8.21,29.06-.69,2.47-1.32,5.09-1.83,7.91-.13.63-.23,1.29-.33,1.97Z"/>
          <path class="cls-5" d="m226.25,410.2c-24.89,0-77.03,1.52-103.58-2.09-1.21-6.7,11.9-21.77,11.9-36.65,0-1.97-.08-4.13-.24-6.45-.42-6.64-1.4-14.54-2.49-22.64,4.71,4.97,11.58-16.03,14.62-9.88,16.45,33.2,29.42,41.93,51.96,41.93,6.72,0,12.92-.93,19.62-2.45-.69,2.47-1.32,5.09-1.83,7.91-.12.64-.23,1.3-.33,1.98-1.64,10.84,10.08,22.53,10.37,28.34Z"/>
          <path class="cls-22" d="m203.41,280.95c-1.07,7.77-4.24,18.24-13.46,21-12.46,3.73-30.49-19.55-36.46-27.88,2.27-.94,3.75-1.45,3.86-1.51,8.29,14.14,25.16,26.2,31.53,25.66,1.77-.14,7.02-1.97,10.49-19.44,1.35.76,2.7,1.47,4.04,2.17Z"/>
        </g>
        <g>
          <g>
            <polygon class="cls-18" points="208.53 398.51 208.44 407.18 363.44 408.1 363.76 398.27 208.53 398.51"/>
            <g>
              <polygon class="cls-18" points="430.62 321.16 427.17 317.66 314.27 316.92 257.63 398.83 260.59 401.21 430.62 321.16"/>
              <polygon class="cls-6" points="316.45 319.95 260.59 401.21 367.29 401.74 430.62 321.16 316.45 319.95"/>
            </g>
          </g>
          <ellipse class="cls-8" cx="343.41" cy="365.61" rx="12.42" ry="6.21"/>
        </g>
        <g>
          <path class="cls-5" d="m210.82,239.73c1.76-9.44,8.23-16.16,14.46-14.99,6.23,1.16,9.85,9.76,8.09,19.2-1.76,9.44-8.23,16.16-14.46,14.99-6.23-1.16-9.85-9.76-8.09-19.2Z"/>
          <path class="cls-6" d="m233.39,214.3c-1.16,8.22-4.83,17.28-10.18,27.29-1.88-8.2-3.08-18.19-4.74-28.18-1.69-10.01-3.84-20.02-7.57-28.2-.84-1.81-1.75-3.54-2.74-5.14,2.21-.21,4.45,0,6.58.59,3.33.89,6.45,2.61,9,4.91,4.24,3.77,7.08,8.91,8.77,14.33,1.39,4.5,1.64,9.28.88,14.4Z"/>
          <g>
            <path class="cls-2" d="m227.11,222.8c-.06,1.62-.17,3.27-.32,4.91-2.28,26.6-13.45,44.85-30.54,44.85-24.13,0-39.77-27.06-39.77-53.57s16.02-45.08,34.77-42.89c10.81,1.24,18.71,4.83,24.32,10.09,3.71,3.5,6.39,7.73,8.22,12.54,2.09,5.39,3.1,11.49,3.31,18.06,0,.02.02.04.02.06.08,1.94.06,3.92,0,5.95Z"/>
            <path class="cls-17" d="m227.11,222.8c-.72-2.57-1.79-5.08-3.25-7.33-14.23,7.44-31.19,10.31-47.27,7.59-3.06,2.55-6.05,5.06-9.06,7.57.06-12.1.23-20.29,4.95-26.15,4.43-5.5,11.82-7.57,18.82-8.47,7.88-1.03,15.89-.99,23.75.15,3.01.42,6.13,1.07,8.75,2.59,2.09,5.39,3.1,11.49,3.31,18.06,0,.02.02.04.02.06.07,1.92.05,3.9-.02,5.93Z"/>
          </g>
          <path class="cls-6" d="m230.59,206.42c-3.31,2.8-7.46,5.12-12.12,7-13.26,5.35-30.49,7.12-43.92,6.47-6.6,14.5-9.27,19.7-10.96,32.35-6.45-6.05-11.7-17.13-13.26-25.84-1.54-8.68-1.39-17.79,1.03-26.32,3.81-13.45,13.42-20.65,20.08-24.15,1.66-.91,3.16-1.54,4.32-2,8.51-3.29,18.1-2.99,26.83-.32,4.76,1.48,8.77,3.98,12.14,7.06,6.81,6.15,11.02,14.48,13.74,20.72.86,1.91,1.55,3.64,2.12,5.03Z"/>
          <path class="cls-4" d="m233.39,214.3c-.55-2.91-1.37-5.73-2.53-8.45-.65-1.54-1.45-3.03-2.38-4.47-3.03-4.76-7.44-8.68-12.77-10.41-1.52-2.13-3.12-4.05-4.8-5.75-6.05-6.15-13.15-9.67-20.67-10.9-6.26-1.01-12.77-.44-18.78,1.6,1.66-.91,3.16-1.54,4.32-2,8.51-3.29,18.1-2.99,26.83-.32,4.76,1.48,8.77,3.98,12.14,7.06,3.33.89,6.45,2.61,9,4.91,4.24,3.77,7.08,8.91,8.77,14.33,1.38,4.5,1.63,9.28.87,14.4Z"/>
          <g>
            <g>
              <path class="cls-9" d="m182.24,230.61c4.46-2.55,9.09-3.7,15.58-1.33"/>
              <path class="cls-9" d="m212.78,230.43c3.82-2.85,9.48-3.14,12.43,0"/>
              <path class="cls-10" d="m208.17,244.97c.39,2.02.18,6.49-.78,8.5"/>
              <ellipse class="cls-15" cx="193.1" cy="243.43" rx="1.84" ry="2.9"/>
              <ellipse class="cls-15" cx="217.15" cy="242.08" rx="1.84" ry="2.9"/>
            </g>
            <g>
              <path class="cls-16" d="m205.89,257.42s-.36.7-1.05,1.65c-1.08,1.45-2.92,3.45-5.43,4.23h0c-1.06.34-2.21.46-3.49.23-3.76-.67-4.75-4.14-4.93-6.81-.04-.52-.04-1-.03-1.44.02-1.08.14-1.8.14-1.8,5.99,3.3,14.8,3.94,14.8,3.94Z"/>
              <path class="cls-1" d="m205.89,257.42s-.36.7-1.05,1.65c-3.06-.04-9.32-1.61-13.89-3.79.02-1.08.14-1.8.14-1.8,5.99,3.3,14.8,3.94,14.8,3.94Z"/>
              <path class="cls-21" d="m199.4,263.29c-1.06.34-2.21.46-3.49.23-3.76-.67-4.75-4.14-4.93-6.81,1.82.22,3.58.92,5.04,2.03,1.53,1.17,2.7,2.76,3.38,4.55Z"/>
            </g>
          </g>
          <g>
            <path class="cls-20" d="m163.65,226.02s-.21-12.47,4.98-24.86c6.51-15.55,19.78-22.2,32.65-22.65,15.51-.55,25.22,9.86,25.22,9.86,0,0-5.05-8.91-15.01-11.47-6.54-1.68-16.41-1.95-24.33,1.27-8.16,3.31-18.33,12.5-22.01,22.21-3.67,9.71-5.46,24.83-5.46,24.83l3.96.81Z"/>
            <g>
              <ellipse class="cls-5" cx="161.5" cy="240.27" rx="12.09" ry="18.32" transform="translate(-23.98 17.99) rotate(-5.94)"/>
              <path class="cls-20" d="m156.23,227.94c4.29-.64,8.68,4.95,9.82,12.49,1.13,7.54-1.42,14.18-5.71,14.82-4.29.64-8.68-4.95-9.81-12.49-1.13-7.54,1.42-14.18,5.71-14.82Z"/>
            </g>
            <g>
              <ellipse class="cls-20" cx="201.38" cy="268.92" rx="6.44" ry="4.01"/>
              <path class="cls-20" d="m169.03,255.51s9.46,12.16,25.91,13.41"/>
            </g>
          </g>
        </g>
        <g>
          <g>
            <g>
              <g>
                <path class="cls-2" d="m208.44,375.36l-.62,15.99s-57.83,17.33-67.38,11.85c-4.66-2.68-9.01-17.42-12.26-31.81-3.4-15.12-5.58-29.84-5.58-29.84l33.9-6.64s.02,20.67,1.17,32.62c.41,4.45,1,7.69,1.79,8.22,2.99,1.97,48.98-.39,48.98-.39Z"/>
                <path class="cls-17" d="m157.67,367.51c-6.16,2-18.05,5.09-29.49,3.87-3.4-15.12-5.58-29.84-5.58-29.84l33.9-6.64s.02,20.66,1.17,32.61Z"/>
              </g>
              <g>
                <path class="cls-2" d="m206.79,375.52c8.6-1.84,23.16-6.26,29.2-7.78,4.29-1.08,15.46,4.7,18.41,10.15,1.29,2.38,2.51,15.86-1.96,14.47-2.24-.7-1.87-6.48-2.57-8.84-.57-1.92-2.39-3.78-5.16-5.38,1.85,4.61,1.78,8.63,1.58,13.61-.04,1.1-.11,2.25-.64,3.2-.54.95-1.7,1.63-2.7,1.21-1.02-.42-1.37-1.69-1.6-2.8-.79-3.84-1.59-7.68-1.91-12.02.08,4.27,0,8.55-.28,12.81-.2,3.26-1.82,5.05-3.81,4.48-.89-.25-1.25-1.07-1.63-2.15-.6,2.09-2.1,4.4-4.04,3.52-1.18-.53-1.91-4.79-1.7-9.17-3.72,2.31-7.92,3.29-12.76,3.51-4.34.2-8.78-.61-11.39-3.56.26-4.61,1.78-11.43,2.96-15.26Z"/>
                <path class="cls-13" d="m233.81,395.82c.29-3.46,0-6.97-.89-10.31"/>
              </g>
            </g>
            <path class="cls-20" d="m152.69,301.37c-2.46-6.93-11.47-21.11-11.47-21.11,0,0-13.75,5.72-18.63,15.43-8.26,16.44-4.06,63.64-4.06,63.64,11.13,4.66,33.47,4.73,42.98,3.39,0,0-3.89-47.5-8.82-61.35Z"/>
          </g>
          <path class="cls-5" d="m154.44,304.27c3.75,17.95,5.76,34.69,6.4,51.09"/>
        </g>
      </g>
      <rect class="cls-6" x="54.46" y="405.25" width="394.28" height="9.89"/>
    </g>
  </g>
</svg>