<?xml version="1.0" encoding="UTF-8"?>
<svg id="Capa_2" data-name="Capa 2" xmlns="http://www.w3.org/2000/svg" viewBox="0 0 36.26 24.83">
  <defs>
    <style>
      .cls-1 {
        fill: #8c98a4;
      }

      .cls-2 {
        fill: none;
      }
    </style>
  </defs>
  <g id="Capa_1-2" data-name="Capa 1">
    <g>
      <rect class="cls-2" x="0" width="36.26" height="24.83"/>
      <path class="cls-1" d="m.79,10.8c.84-.24,1.67-.4,2.53-.5.09-.01.19.05.22.14.08.22.12.33.2.55.04.1-.02.21-.12.22-.88.13-1.74.31-2.59.57-.1.03-.21-.02-.23-.12-.06-.24-.09-.36-.15-.6-.03-.11.04-.23.15-.26m3.54,1.72c-1.37.22-2.71.59-3.98,1.16-.1.05-.21,0-.23-.11-.05-.26-.07-.38-.12-.64-.02-.1.04-.21.13-.26,1.25-.55,2.56-.88,3.92-1.05.09-.01.18.05.21.15.07.21.11.32.18.53.03.1-.01.2-.1.22Zm-2.79,1.21c.82-.28,1.64-.5,2.49-.68.09-.02.19.05.22.15.07.21.1.32.17.53.03.1,0,.19-.09.21-.84.2-1.67.46-2.49.75-.12.04-.24-.01-.27-.13-.07-.24-.1-.36-.16-.6-.03-.1.03-.21.13-.25Zm5.96-.8c0-.28-.18-.4-.54-.4h-.43v.8h.42c.35,0,.55-.14.55-.4Zm-.63-1.81c-.11,0-.23.01-.34.03v.71h.36c.32,0,.47-.13.47-.36s-.16-.37-.49-.37Zm1.5,1.85c0,.63-.63,1.04-1.35,1.04h-1.32v-3.46c.44-.06.77-.11,1.16-.11.72,0,1.3.34,1.3.93,0,.34-.18.56-.49.68.49.14.7.43.7.91Zm1.81.36v-.46h-.16c-.36,0-.7.08-.7.33,0,.19.13.26.39.26.21,0,.38-.06.46-.13Zm.79-1v1.41c-.29.22-.75.34-1.39.34-.56,0-1.03-.23-1.03-.74,0-.76.74-.95,1.63-.98-.02-.33-.15-.42-.44-.42-.16,0-.57.07-.62.07-.13,0-.23-.08-.32-.32l-.06-.19c.33-.12.66-.21,1.01-.21.77,0,1.22.29,1.22,1.04Zm3.02-.22v1.9h-.8v-1.62c0-.28-.19-.43-.51-.43-.12,0-.24.02-.34.04v2.01h-.81v-2.38c.34-.22.89-.35,1.33-.35.62,0,1.13.3,1.13.82Zm.35.6c0-.94.65-1.43,1.5-1.43.24,0,.45.03.71.09-.03.27-.14.5-.27.64-.09-.03-.24-.05-.33-.05-.54,0-.76.28-.76.7s.2.69.71.69c.14,0,.3-.03.5-.1l.14.64c-.29.12-.6.17-.84.17-.82,0-1.36-.49-1.36-1.36Zm4.34-.04c0-.44-.21-.7-.59-.7s-.59.26-.59.7.22.7.59.7.59-.24.59-.7Zm-1.98,0c0-.86.58-1.39,1.4-1.39s1.4.56,1.4,1.39-.55,1.4-1.4,1.4-1.4-.55-1.4-1.4Zm3.25-2.09c.19-.14.59-.26.81-.26v3.69h-.81v-3.43Zm3.25,2.09c0-.44-.21-.7-.59-.7s-.59.26-.59.7.22.7.59.7.59-.24.59-.7Zm-1.98,0c0-.86.58-1.39,1.4-1.39s1.4.56,1.4,1.39-.55,1.4-1.4,1.4-1.4-.55-1.4-1.4Zm7.29-.56v1.9h-.8v-1.62c0-.28-.18-.43-.5-.43-.15,0-.29.03-.41.08.04.12.06.25.06.38v1.58h-.8v-1.62c0-.28-.18-.43-.5-.43-.12,0-.24.02-.34.04v2.01h-.81v-2.38c.33-.22.83-.35,1.25-.35.34,0,.63.11.83.29.27-.18.65-.29.97-.29.58,0,1.04.31,1.04.82Zm2.44.52c0-.49-.26-.67-.67-.67-.17,0-.3.03-.42.09v1.34c.14.02.28.03.41.03.47,0,.67-.36.67-.79Zm.8-.1c0,.97-.58,1.54-1.52,1.54-.46,0-.9-.09-1.17-.21v-3.28c.19-.14.6-.26.81-.26v1.27c.23-.2.51-.3.76-.3.8,0,1.12.55,1.12,1.25Zm.45-1.17c.11-.05.25-.07.41-.07s.29.03.4.07v2.65h-.81v-2.65Zm-.01-.85c0-.22.19-.41.41-.41s.42.18.42.41-.19.41-.42.41-.41-.18-.41-.41Zm2.85,2.81v-.46h-.16c-.36,0-.7.08-.7.33,0,.19.13.26.39.26.21,0,.38-.06.46-.13Zm.79-1v1.41c-.29.22-.75.34-1.39.34-.56,0-1.03-.23-1.03-.74,0-.76.74-.95,1.63-.98-.02-.33-.15-.42-.44-.42-.16,0-.57.07-.62.07-.13,0-.23-.08-.32-.32l-.06-.19c.33-.12.66-.21,1.01-.21.77,0,1.22.29,1.22,1.04Z"/>
    </g>
  </g>
</svg>