<?xml version="1.0" encoding="UTF-8"?>
<svg id="Capa_2" data-name="Capa 2" xmlns="http://www.w3.org/2000/svg" viewBox="0 0 36.26 24.83">
  <defs>
    <style>
      .cls-1 {
        fill: #8c98a4;
      }

      .cls-2 {
        fill: none;
      }
    </style>
  </defs>
  <g id="Capa_1-2" data-name="Capa 1">
    <g>
      <g>
        <path class="cls-1" d="m22.15,9.38c-1.69,0-3.07,1.36-3.08,3.04,0,.81.31,1.58.89,2.16.58.58,1.34.9,2.16.9h1.9s.08-.02.1-.05c.03-.03.04-.07.03-.11-.06-.35-.24-.67-.51-.91h0c-.27-.23-.62-.36-.98-.36h-.54c-.84,0-1.55-.65-1.62-1.49,0-.05,0-.1,0-.15,0-.03,0-.07,0-.1.06-.85.78-1.51,1.64-1.51h.52c.4,0,.78-.16,1.07-.44.22-.22.37-.52.42-.83,0-.04,0-.08-.03-.11-.03-.03-.06-.05-.1-.05h-1.87Zm-12.93-.01s-.06,0-.07.02c-.02.02-.02.04-.02.08v5.85s0,.06.02.07c.02.01.04.02.07.02h1.24c.09,0,.1-.03.1-.09v-4.84h1.13c.11.02.21.06.29.11.09.05.16.12.22.2.06.08.11.16.14.26.03.09.05.19.05.28s-.02.2-.05.29c-.03.09-.08.18-.14.26-.06.08-.13.14-.22.19-.09.05-.19.09-.3.1-.05,0-.09,0-.13.01-.04,0-.08,0-.14,0h-.35c-.06,0-.11.03-.14.08-.03.05-.03.11,0,.16l1.54,2.95s0,0,.01.01c.02.01.04.02.07.02h1.43s.05,0,.06-.02c0,0,0,0,0-.03,0-.01,0-.04-.03-.09-.03-.06-.06-.1-.08-.14l-1.12-2.1.08-.04c.14-.08.28-.18.4-.3.12-.12.23-.25.31-.39.09-.14.16-.3.21-.46.05-.16.07-.34.07-.52,0-.27-.05-.52-.15-.75-.1-.23-.24-.44-.42-.62-.18-.18-.39-.32-.63-.42-.24-.1-.5-.15-.77-.15h-2.71Zm-2.6,0s-.06.02-.07.02c-.02.02-.02.04-.02.07v5.85c0,.07.02.09.09.09h1.23c.11,0,.11-.04.11-.09v-5.85s0-.04-.03-.06c-.03-.02-.06-.03-.08-.03h-1.23Zm8.35,0s-.06.02-.07.02c0,0-.02.03-.02.08v5.84c0,.05.01.06.02.07.02.01.04.02.07.02h3.52c.06,0,.1-.05.1-.1v-1.04c0-.06-.05-.1-.1-.1h-2.17v-1.25h1.56s.06-.02.06-.02c.02-.02.02-.04.02-.05v-.9s0-.04-.01-.05c-.02-.01-.05-.02-.08-.02h-1.55v-1.22h2.17s.07-.02.08-.03c.02-.03.03-.05.03-.08v-1.03s0-.07-.03-.08c0,0-.02-.02-.08-.02h-3.52Zm19.9,0c-.08,0-.12.03-.14.1-.11.32-1.37,4.06-1.37,4.06l-1.36-4.06c-.02-.07-.06-.1-.13-.1h-1.35s-.06.01-.06.01c0,0,0,0,0,.01,0,.02.01.03.01.05l2.14,5.61c.02.05.04.11.07.16.02.05.05.1.08.14h0s.02.04.09.04h1.03s.04,0,.05-.02c.03-.02.05-.05.07-.08.02-.04.04-.08.06-.12.02-.05.04-.09.05-.13l2.16-5.61s.03-.08-.08-.08h-1.32Zm-9.86,0s-.06,0-.08.03c-.01.01-.03.03-.03.07v1.04s0,.07.03.09c.02.02.05.03.08.03h1.53v4.68s0,.05.03.07c.03.03.06.03.07.03h1.23s.06,0,.07-.03c.02-.02.03-.05.03-.08v-4.68h1.54s.06-.02.08-.03c.02-.03.03-.06.03-.09v-1.04s-.02-.07-.03-.07c-.02-.02-.05-.03-.08-.03h-4.51Z"/>
        <path class="cls-1" d="m1.25,12.43c0,.62.5,1.12,1.12,1.12s1.12-.5,1.12-1.12-.5-1.12-1.12-1.12-1.12.5-1.12,1.12"/>
        <path class="cls-1" d="m5.71,12.4c0,.92-.35,1.78-1,2.43-.65.65-1.51,1.01-2.42,1.01H.15s-.09-.02-.12-.05c-.03-.03-.04-.08-.03-.12.06-.4.27-.76.57-1.02.31-.26.7-.41,1.1-.41h.61c.94,0,1.74-.73,1.82-1.67,0-.05,0-.1,0-.17,0-.04,0-.07,0-.11-.07-.95-.87-1.7-1.84-1.7h-.59c-.45,0-.88-.18-1.2-.5-.25-.25-.42-.58-.47-.93,0-.05,0-.09.03-.12.03-.03.07-.05.12-.05h2.1c1.9,0,3.45,1.53,3.46,3.41"/>
        <path class="cls-1" d="m.15,8.99s-.09.02-.12.05c-.03.03-.04.08-.03.12.06.35.22.68.47.93.32.32.75.5,1.2.5h.59c.97,0,1.77.74,1.84,1.7,0,.03,0,.07,0,.11,0,.07,0,.12,0,.17-.08.94-.87,1.67-1.82,1.67h-.61c-.4,0-.79.14-1.1.41-.31.26-.51.62-.57,1.02,0,.04,0,.09.03.12.03.03.07.05.11.05h.55c.91,0,1.78-.36,2.42-1.01.65-.65,1-1.51,1-2.43,0-1.88-1.56-3.41-3.46-3.41H.15Z"/>
      </g>
      <rect class="cls-2" width="36.26" height="24.83"/>
    </g>
  </g>
</svg>