<?xml version="1.0" encoding="UTF-8"?>
<svg id="Capa_2" data-name="Capa 2" xmlns="http://www.w3.org/2000/svg" viewBox="0 0 36.26 24.83">
  <defs>
    <style>
      .cls-1 {
        fill: #8c98a4;
      }

      .cls-2 {
        fill: none;
      }
    </style>
  </defs>
  <g id="Capa_1-2" data-name="Capa 1">
    <g>
      <g>
        <path class="cls-1" d="m16.82,13.16l-.23.04c-.22.04-.38.09-.47.15-.16.1-.24.25-.24.45,0,.18.05.31.14.39.1.08.22.12.36.12.23,0,.43-.07.62-.2.19-.13.29-.38.29-.73v-.39c-.06.04-.13.08-.2.1-.07.03-.16.05-.27.07Z"/>
        <path class="cls-1" d="m18.13,0C11.27,0,5.72,5.56,5.72,12.41s5.56,12.41,12.41,12.41,12.41-5.56,12.41-12.41S24.99,0,18.13,0Zm5.01,7.22h1v2.56s-.95,0-1,0v-2.56Zm-12.83,6.83c.63,0,1.17-.38,1.43-.92h1.05c-.3,1.12-1.29,1.93-2.48,1.93-1.42,0-2.57-1.18-2.57-2.63s1.15-2.63,2.57-2.63c1.18,0,2.18.82,2.48,1.94h-1.05c-.25-.55-.8-.92-1.43-.92-.87,0-1.58.72-1.58,1.62s.71,1.62,1.58,1.62Zm3.99.98h-1v-5.26h1v5.26Zm4.02,0h-.98c0-.08,0-.34,0-.41,0,0-.46.41-1.29.41-.36,0-.58-.07-.81-.28-.23-.21-.35-.48-.35-.87,0-.5.19-.86.56-1.09.21-.12.47-.21.87-.26l.35-.05c.19-.02.33-.05.41-.09.15-.06.22-.17.22-.3,0-.17-.06-.28-.17-.34-.11-.07-.28-.1-.49-.1-.25,0-.42.06-.52.19-.07.09-.12.22-.15.37h-1c.02-.36.12-.65.29-.88.27-.36.75-.54,1.41-.54.43,0,.82.09,1.16.26.34.18.5.51.51,1v2.96Zm2.8-3.19h-.12c-.42,0-.76.28-.9.56-.08.15-.12.39-.12.72v1.92s-.99,0-.99,0v-4.04h.95v.53c.19-.27.5-.49.71-.58.15-.06.28-.09.38-.11.1-.01.26-.01.26-.01v1.03s-.17-.01-.17-.01Zm2.43,3.23c-1.17,0-2.13-.95-2.13-2.13s.95-2.13,2.13-2.13,2.13.95,2.13,2.13-.95,2.13-2.13,2.13Zm1.69-4.92l2.34-2.34.72.73-2.35,2.34-.71-.73Zm1.38,2.74v-1.02h2.59s0,.97,0,1.02h-2.59Z"/>
        <path class="cls-1" d="m23.57,11.82c-.62,0-1.12.5-1.12,1.12s.5,1.12,1.12,1.12,1.12-.5,1.12-1.12-.5-1.12-1.12-1.12Z"/>
      </g>
      <rect class="cls-2" width="36.26" height="24.83"/>
    </g>
  </g>
</svg>