<?xml version="1.0" encoding="UTF-8"?>
<svg id="Capa_2" data-name="Capa 2" xmlns="http://www.w3.org/2000/svg" viewBox="0 0 36.26 24.83">
  <defs>
    <style>
      .cls-1 {
        fill-rule: evenodd;
      }

      .cls-1, .cls-2 {
        fill: #8c98a4;
      }

      .cls-3 {
        fill: none;
      }
    </style>
  </defs>
  <g id="Capa_1-2" data-name="Capa 1">
    <g>
      <rect class="cls-3" width="36.26" height="24.83"/>
      <path class="cls-1" d="m19.3,4.91c2.94,1.08,3,5.15.08,6.31,3.65-.24,6.42-1.52,6.42-3.15s-2.82-2.93-6.5-3.16m-8.92,3.16c0,1.64,2.77,2.91,6.42,3.15-2.91-1.16-2.86-5.23.09-6.31-3.69.23-6.51,1.51-6.51,3.16M0,3.5h17.13l1.27,1.55,1.21-1.55h16.57v9.14h-16.57l-1.21-1.16-1.27,1.16H0V3.5Z"/>
      <path class="cls-2" d="m.1,15.2c0-.39.13-.66.39-.81.26-.15.72-.23,1.38-.23h.62c.66,0,1.12.07,1.39.2.26.13.4.35.4.67v.13h-.61v-.08c0-.23-.08-.39-.25-.47-.16-.08-.49-.13-.97-.13h-.41c-.32,0-.56.01-.71.04-.15.02-.27.06-.36.11-.1.05-.17.12-.21.2-.04.09-.06.24-.06.46v.86c0,.22.02.37.06.45.04.08.11.15.21.2.1.05.21.09.35.11.14.02.37.03.72.03h.41c.49,0,.82-.04.98-.13.16-.09.24-.26.24-.51v-.14s.6,0,.6,0v.2c0,.34-.13.57-.39.7-.26.13-.72.2-1.4.2h-.62c-.66,0-1.12-.07-1.38-.23-.26-.15-.39-.42-.39-.81v-1.03Z"/>
      <path class="cls-1" d="m4.59,17.24l1.97-3.04h.97l1.98,3.04h-.61l-.51-.78h-2.7l-.5.78h-.61Zm1.3-1.08h2.31l-1.06-1.64h-.19l-1.06,1.64Z"/>
      <polygon class="cls-2" points="10.22 17.24 10.22 14.2 11.2 14.2 13.02 16.9 14.83 14.2 15.81 14.2 15.81 17.24 15.22 17.24 15.22 14.48 13.38 17.24 12.65 17.24 10.81 14.48 10.81 17.24 10.22 17.24"/>
      <path class="cls-1" d="m16.54,17.24l1.97-3.04h.97l1.98,3.04h-.61l-.51-.78h-2.7l-.5.78h-.61Zm1.31-1.08h2.31l-1.06-1.64h-.19l-1.06,1.64Z"/>
      <path class="cls-2" d="m22.01,15.2c0-.39.13-.66.39-.81.26-.15.72-.23,1.38-.23h.63c.66,0,1.12.07,1.38.2.27.13.4.35.4.67v.13h-.61v-.08c0-.23-.08-.39-.25-.47-.16-.08-.49-.13-.96-.13h-.41c-.32,0-.56.01-.7.04-.15.02-.27.06-.37.11-.1.05-.16.12-.21.2-.04.09-.06.24-.06.46v.86c0,.22.02.37.06.45.04.08.11.15.21.2.1.05.22.09.35.11.14.02.38.03.72.03h.41c.49,0,.82-.04.98-.13.16-.09.24-.26.24-.51v-.09s0-.06,0-.06h.6v.2c0,.34-.13.57-.38.7-.26.13-.72.2-1.4.2h-.63c-.66,0-1.12-.07-1.38-.23-.26-.15-.39-.42-.39-.81v-1.03Z"/>
      <path class="cls-1" d="m27.02,15.2c0-.39.14-.66.42-.81.28-.16.78-.23,1.5-.23h.67c.73,0,1.23.08,1.51.23.28.15.42.42.42.81v1.03c0,.39-.14.66-.42.81-.28.15-.78.23-1.5.23h-.67c-.72,0-1.22-.07-1.5-.23-.28-.15-.42-.42-.42-.81v-1.03Zm2.42-.73h-.33c-.37,0-.64.01-.8.04-.15.02-.29.06-.4.11-.11.05-.18.12-.22.21-.04.09-.06.24-.06.45v.86c0,.21.02.36.06.45.05.09.12.15.22.21.11.06.25.1.4.12.15.02.42.03.8.03h.33c.38,0,.64-.01.8-.03.16-.02.29-.06.41-.12.1-.05.18-.12.22-.2.04-.08.06-.23.06-.45v-.86c0-.21-.02-.37-.07-.45-.04-.09-.12-.16-.22-.21-.11-.05-.25-.09-.4-.11-.15-.03-.42-.04-.8-.04"/>
      <polygon class="cls-2" points="32.66 17.24 32.66 14.2 33.24 14.2 33.24 16.92 36.26 16.92 36.26 17.24 32.66 17.24"/>
      <polygon class="cls-2" points="3.63 19.38 3.91 19.38 4.87 21.12 5.83 19.38 6.1 19.38 5.02 21.33 4.72 21.33 3.63 19.38"/>
      <path class="cls-2" d="m11.59,19.38h.32l1.13,1.95h-.26l-.25-.43h-1.55l-.25.43h-.28l1.13-1.95Zm.82,1.31l-.66-1.12-.65,1.12h1.31Z"/>
      <polygon class="cls-2" points="17.64 19.38 17.88 19.38 17.88 21.12 19.39 21.12 19.39 21.33 17.64 21.33 17.64 19.38"/>
      <polygon class="cls-2" points="24.05 19.38 24.29 19.38 24.29 21.12 25.8 21.12 25.8 21.33 24.05 21.33 24.05 19.38"/>
      <polygon class="cls-2" points="30.47 19.38 32.38 19.38 32.38 19.6 30.7 19.6 30.7 20.21 32.31 20.21 32.31 20.43 30.7 20.43 30.7 21.11 32.38 21.11 32.38 21.33 30.47 21.33 30.47 19.38"/>
    </g>
  </g>
</svg>