<?xml version="1.0" encoding="UTF-8"?>
<svg id="Capa_2" data-name="Capa 2" xmlns="http://www.w3.org/2000/svg" viewBox="0 0 36.26 24.83">
  <defs>
    <style>
      .cls-1 {
        fill: #8c98a4;
        fill-rule: evenodd;
      }

      .cls-2 {
        fill: none;
      }
    </style>
  </defs>
  <g id="Capa_1-2" data-name="Capa 1">
    <g>
      <g>
        <path class="cls-1" d="m28.58,23.7c0-.63.5-1.13,1.13-1.13s1.14.5,1.14,1.13-.5,1.13-1.14,1.13-1.13-.5-1.13-1.13Zm.18,0c0,.53.43.95.95.95s.95-.42.95-.95-.43-.95-.95-.95-.95.41-.95.95h0Zm1.47.64h-.21l-.33-.59h-.23v.59h-.18v-1.27h.53c.23,0,.44.07.44.34,0,.25-.17.34-.34.35l.32.59h0Zm-.77-1.09v.32h.2c.17,0,.41.03.41-.14,0-.16-.13-.17-.28-.17h-.32,0ZM18.42,2.27c.14,0,.26-.12.26-.25s-.11-.26-.26-.26-.25.11-.25.26.11.25.25.25Zm-3.45-.45c.12,0,.22-.09.22-.21,0,0,0,0,0,0,0-.12-.1-.22-.22-.22s-.22.1-.22.22.1.22.22.22Zm-2.58,5.28l-.11-.11c.29-.27.6-.71.66-.96.05-.24.39-.2.32.06-.09.33-.49.73-.87,1.02Zm-2.19-5.19c-.54.24-.62.79-.24,1.12.46.4,1.21.05,1.14-.56.61.03,1.01-.6.91-1.04.27-.24.3-.73-.03-.93-.35-.21-.68-.13-.89.28-.56-.04-1.1.4-.89,1.14l-.26-.11c-.34-.72.26-1.45.99-1.28.15-.36.7-.73,1.29-.37.47.29.57,1.02.07,1.38.24.69-.23,1.25-.95,1.19-.09.89-.92,1-1.46.58-.31-.24-.43-.57-.49-.81-.06-.26-.06-.5-.32-.77-.2-.21-.55-.2-.55-.2,0-.64-.6-1.23-1.35-.95-.26-.23-.59-.25-.83.03-.13.16-.21.59.21.79-.02.59.43.96,1.08.91.03.31.37.6.68.64v.16c-.33-.03-.51.08-.72.35-.77-.04-1.31.3-1.28.86-.54.1-.64.67-.34.97.31.3.76.18.91-.18.54.1,1.03-.29,1.05-.74.51,0,.73-.2.82-.67h.19c.06.52-.17,1-.78.94-.02.6-.6.94-1.15.73-.25.48-.83.67-1.32.2-.47-.45-.3-1.22.32-1.41.02-.59.45-1.15,1.3-.94,0,0,.11-.26.37-.28-.18-.07-.31-.17-.35-.35-.64.14-1.18-.45-1.04-1.04-.57-.3-.58-.87-.3-1.21.3-.35.79-.43,1.24-.05.75-.42,1.6.1,1.55.95.53-.04.84.43.79.9.09-.21.19-.31.38-.35l.26.11h0Z"/>
        <path class="cls-1" d="m11.5.88l.13.09c-.25.52-.69,1.07-1.06,1.38l-.14-.11c.26-.43.83-1.14,1.07-1.36h0Zm-3.67,2.86l.09.12c-.31.32-.89.75-1.19.89l-.12-.13c.3-.32.86-.74,1.23-.89Zm.74-1.55l-.15.19c-.41-.27-1.21-.99-1.39-1.24l.13-.13c.39.2,1.15.87,1.42,1.19Zm-.75,6.82c.05.23,0,.49.22.74.07.09.48.63.78.9-.4.16-1.21.49-1.78.56-.12.02-.25.1-.35.16-.07.12-.15.35-.18.59-.02.18-.02.38-.02.58,0,.18.09.74.3,1.12.2.38.39.55.63.66.04-.02.15-.04.31-.04.44,0,.78.23.93.44.06.08.17.1.32.1.35,0,.74-.12,1.11-.26.08-.06.3-.21.52-.38.22-.17,1.43-1.2,1.97-1.46.28.15.75.35,1.23.35.03,0,.12,0,.22-.02.15-.03.34-.1.58-.15.43-.08.94-.16,1.09-.15.4,0,1.57.04,1.84.04.29,0,.71-.02.87-.04.24-.08.79-.23,1.31-.47.52-.23,1.62-.99,1.8-1.16.08-.07.15-.15.22-.24.02-.03.03-.04.03-.07,0-.02,0-.77,0-.77,0,0,.26-.29.36-.39,0-.01,0-.02,0-.03-.05-.15-.09-.61-.07-1.08l-.26-.12c-.01.59-.23,1.08-.42,1.39-.39.06-1.15.29-1.42.6l.15.04c.26-.14.53-.24.84-.24.28,0,.4.07.4.15,0,.05-.05.18-.07.22-.02.05-.04.11-.09.16-.37.4-.79.75-1.3,1.03-.35.19-.67.33-1.18.47-.15.04-.36.11-.5.15-.19,0-1.19-.04-1.78-.04s-1.8.08-2.18.18c-.17.04-.22.11-.42.11-.38,0-.87-.19-1.18-.34-.04.01-.15.06-.26.12-.22.11-.7.78-.98.57-.15.29-.76.57-.97.88.02-.16.27-1.19.3-1.4,0-.04,0-.07-.02-.1-.22-.38-.85-.62-1.21-.69-.1-.02-.15-.04-.23-.05l-.56-.17-.52.17.6.11-.76.5c.13-.05.95-.28,1.01-.3.07-.02.16-.04.26,0,.11.04.43.11.62.18.11.04.29.24.34.35.02.04.03.14.04.35,0,.13-.02.32-.06.46-.08.38-.25.67-.31.77-.07.14-.18.19-.28.24-.17.08-.37.13-.59.13-.15,0-.26,0-.33-.1-.21-.28-.72-.55-1.24-.45-.32-.19-.64-.82-.64-1.32,0-.3.15-.77.23-1.01.53-.07,1.57-.47,2.08-.7.11,0,.4-.11.68-.11.68,0,1.37.6,1.78,1.01.07-.11.2-.28.54-.28.48,0,.76.44.9.89l.25-.18c-.04-.26-.18-.54-.38-.75-.17-.17-.49-.31-.74-.31-.15,0-.31.03-.4.03-.35,0-.49-.15-.74-.33-.28-.19-.79-.47-1.16-.47-.24,0-.34.09-.54.09-.28,0-.39-.12-.53-.29-.06-.07-.35-.33-.43-.44-.04-.06-.12-.3-.15-.42l-.39-.28h0Z"/>
        <path class="cls-1" d="m8.2,9.29c.08.09.16.19.27.27.1.08.23.14.35.21.17.1.36.2.55.26.17.05.38.07.58.07.29,0,.63-.06.91.07.19.09.2.29.35.35.23.09.88.11,1.24.11.71,0,1.48-.09,1.94-.2l-.22-.24c-.32.05-1.24.15-1.66.15-.6,0-1.16-.1-1.16-.34,0-.17.18-.42.53-.42.37,0,.94.23,1.05.26.1.03.15.02.21,0l.22-.11c-.29-.14-1.31-.49-1.66-.49-.17,0-.26.02-.37.16-.14.17-.5.34-1.08.34-.32,0-.77-.06-.87-.1-.17-.07-.52-.27-.73-.43-.28-.2-.53-.43-.7-.69-.05-.08-.07-.16-.07-.25,0-.07.02-.13.03-.18.05.07.11.12.18.19.31.3.76.52,1.22.61.13.03.25.04.38.04.2,0,.38-.11.5-.21l-.18-.21c-.06.02-.18.02-.26.02-.67,0-1.53-.44-1.73-.95-.02-.05-.04-.08-.02-.13.02-.04.04-.14.06-.24.04.05.12.11.23.18.25.16.73.38.82.44.2-.05.39-.13.57-.22.17-.09.36-.14.55-.14.49,0,1.06.28,1.59.54l.36-.14c-.47-.33-1.5-.8-2.07-.8-.34,0-.65.25-.88.25-.28,0-1.07-.39-1.07-.71,0-.25.52-.39,1.34-.49-.14.21-.28.43-.41.65l.21.12c1.29-1.87,2.64-3.09,3.77-3.83.41-.27.5-.43.65-.72.35-.72.68-1.27,1.26-1.27.27,0,.49.15.64.34l.42.13-.42.29.43.17c-.56.16-1.33.7-1.64,1.51-.6.03-.89.52-1.08.92-.13.27-.34.38-.65.59l-2.45,1.71.34.05,2.26-1.52c.45-.3.66-.52.77-.74.21-.42.44-.73.88-.73.22,0,.45.09.64.27l.4.13-.43.26.36.22c-1.04.33-1.68,1.07-2.06,2.49l.27.06c.14-.47.27-.9.52-1.28.6,0,1.21-.03,1.81-.03,1.59,0,2.92.07,3.63.28l-.25-.44c-.76-.13-1.87-.2-3.38-.2-.5,0-1.02.02-1.52.02.33-.35.8-.64,1.53-.86l-.52-.28.58-.32-.78-.29c-.14-.12-.31-.23-.52-.29.25-.77,1.1-1.22,1.92-1.53l-.57-.23.58-.32-.89-.28c-.23-.27-.45-.4-.8-.4-.82,0-1.17.72-1.5,1.35-.17.33-.28.47-.57.67-.63.41-1.44,1.05-2.21,1.86-.4-.29-1.23-1.14-1.45-1.6-.09.11-.17.35-.17.35.09.09,1.05,1.07,1.42,1.48-.03.03-.06.06-.08.09-.38.08-1.38.17-1.72.12l-.19.34c.25-.03,1.25-.14,1.66-.17-.13.15-.25.31-.37.47-1.27.14-2.12.41-2.12.88,0,.08.03.17.03.25,0,.2-.07.27-.21.36-.09.06-.1.1-.06.15.04.06.23.35.23.4,0,.1-.09.19-.17.27-.06.07-.06.09,0,.19l.37.79.39.28h0Zm15.79-4.38c-.08.08-.15.17-.22.27l-.2-.29c.69-.91,2.5-1.34,3.56-1.42v-.49c-.14.04-.28.09-.42.12-.19.05-.37.09-.51.08-.15,0-.27-.06-.32-.14-.14-.2-.01-.51.46-.8l-.37-.31c-.28.37-.56.78-.85,1.02-.26.22-.53.33-.75.17-.12-.09-.16-.13-.17-.36.02-.34.22-.85.4-1.19l-.44-.05c-.08.51-.29.94-.51,1.3-.28.45-.64.76-1,1.02l-.24-.24c.3-.18.67-.46.92-.86.3-.46.54-1.03.54-1.54l1.26.12c-.18.23-.47.74-.58,1.11-.06.19-.05.35.02.4.13.1.37-.06.59-.3.32-.34.63-.86.77-1.05l.91.76c-.41.22-.8.46-.72.6.07.13.33.09.62,0,.23-.07.46-.17.67-.29v1.23c-.44,0-1.18.08-1.9.29.17.24.66.33.97.37l-.16,1c-.78-.33-1.39-.52-2.34-.54l.31-.27c.7.01,1.4.22,1.8.42l.06-.38c-.36-.05-.81-.25-1-.48-.31.11-.61.26-.86.44l-.31.27h0Z"/>
        <path class="cls-1" d="m20.23,8.09l.29-.63c-.3-.36-.65-.82-.94-1.29l-.25-.44c-.58-1.11-.37-1.64-.68-2.13-.26-.4-1.51-.15-1.72-.11l.36-.6-.71.06.6-.72c.06-.09.1-.18.17-.43.11-.38.43-1.02,1.38-1.02,1.06,0,1.39.85,1.85,1.23.52.42,1.21,1.01,1.82,1.6l.24.24c.31.32.63.65.93,1.04l.2.29c1.27,1.86,2.85,5.41,3.55,7.04.07.16.11.32.16.44-.48-.26-1-.59-1.54-.96l-.31-.22c-.2-.14-.39-.29-.59-.43l-.32-.25c-.19-.16-.38-.32-.57-.48l.64,3.71c.05.22.23.18.38,0,.15-.19.21-.24.15-.5l-.59-2.72.32.25.57,2.31c.05.21.14.27.39.28.24.01.29-.08.24-.24l-.62-1.92.31.22.59,1.73c.15.44,0,.49-.26.49s-.5-.06-.65.03c-.14.09-.33.35-.54.57-.19.2-.48.14-.53-.23l-.7-4.25c-.46-.41-.89-.84-1.28-1.29-.18-.08-.36-.16-.53-.24l-.26-.12c-.1-.04-.17-.07-.19-.08-.19.23-.38.49-.6.68-.12.1-.2.15-.37.15-.05,0-.12,0-.18-.03-.06-.04-.13-.11-.19-.21-.05-.08-.13-.18-.19-.29-.14-.23-.29-.52-.42-.76-.15-.27-.28-.46-.3-.5-.03-.05-.1-.11-.1-.11-.07.12-.13.36-.13.48l-.26-.09c.03-.17.11-.4.14-.51,0-.09-.1-.22-.19-.22-.12,0-.24.13-.31.39l-.27.12c.03-.41.17-.86.58-.86.33,0,.53.25.68.49.16.23.67.93.78,1.07l.2.26c.04.16.1.25.13.3.07.11.15.1.25,0,.05-.05.2-.17.35-.33.13-.14.26-.3.31-.38.15.07.42.2.65.3-.95-1.18-1.87-2.61-2.26-3.58-.16-.4.16-.54.31-.14.42,1.07,1.65,2.97,2.55,3.97,1.04,1.15,2.96,2.82,4.2,3.49-.18-.35-.42-.86-.69-1.45-1.51-.86-3.04-2.43-3.76-3.78l.32.04c.66,1.17,2.25,2.74,3.19,3.2-.86-1.82-1.97-4.12-2.84-5.11-1.08-1.23-2.26-2.18-2.82-2.68-.56-.49-.78-1.1-1.58-1.1-.66,0-1,.48-1.14.96-.03.09-.04.15-.11.25l-.31.37.67-.08-.39.55s1.06-.24,1.43.26c.4.54.14,1.15.8,2.33.29.52.98,1.45,1.21,1.66l-.46.96-.2-.26h0Zm-10.37.16l-.16-.11c.13-.11.28-.2.44-.27.09-.04.19-.06.27-.06.18,0,.33.08.48.16.24.12.5.27.71.27.08,0,.15-.02.24-.02.2,0,.4.09.51.09.07,0,.12-.06.16-.13.11-.16.27-.28.46-.36.21-.09.47-.12.74-.12.22,0,.43.03.53.05,0,0-.16.2-.21.24-.22,0-.64,0-.91.1-.16.07-.23.16-.23.3,0,.2.22.28.47.35.15.04.31.05.45.05.17,0,.49-.06.81-.14.39-.08.75-.18.85-.22l.14.25c-.43.15-.87.28-1.28.37-.23.05-.45.08-.65.08-.33,0-.69-.14-.98-.28-.25-.12-.47-.23-.66-.23-.22,0-.43.08-.63.19-.1.06-.4.27-.67.37-.21.08-.38.13-.59.13-.19,0-.3-.03-.39-.1l.32-.2s.12.05.16.05.1,0,.23-.06c.07-.03.18-.1.24-.14.13-.08.17-.13.22-.17.1-.08.13-.18,0-.29-.06-.05-.12-.11-.2-.15-.11-.07-.19-.13-.4-.13-.24,0-.41.07-.5.11h0Z"/>
        <path class="cls-1" d="m14.39,8.39s-.19-.05-.26-.06c.13-.18.3-.33.44-.42.26-.18.54-.28.96-.3.12,0,.35-.03.48-.02.12,0,.32.01.49.05.13.02.25.06.35.08.06,0,.27,0,.34,0,.3-.05.65-.16.84-.26l.08.28c-.4.2-.85.4-1.26.4-.21,0-.44-.02-.64-.04-.37-.04-.68-.08-.8-.08-.29,0-.72.14-1.01.38h0Zm-.3,1.58l-.37-.17c.52-.26,1.32-.53,1.65-.58.32-.05.7-.09.92-.16.1.25.29.51.57.51.1,0,.27-.08.44-.15.19-.08.38-.18.48-.22.11-.05.45-.2.75-.33.11-.05.42-.2.44-.21l.2.11c-.06.26-.16.58-.27.81-.04.09-.09.16-.13.22-.08.1-.22.23-.4.35-.2.14-.44.28-.69.43-.2.11-.4.23-.6.32l-.11-.19c.31-.18.63-.4.91-.61.13-.1.26-.2.35-.28.07-.06.11-.11.14-.16.08-.12.22-.36.26-.48-.12.06-.56.27-.76.37-.22.12-.58.3-.79.4-.16.07-.3.12-.4.12-.23,0-.33-.16-.38-.26-.14-.25-.29-.28-.7-.28-.47,0-1.11.19-1.49.45h0Zm2.19-1.18s-.05-.22-.08-.3c0,0,.06-.02.15-.02.14,0,.49.04.63.04.54,0,.74-.17.9-.31.13-.12.27-.22.64-.22.32,0,.7.13.8.18l-.02.29c-.16-.09-.38-.15-.57-.15-.13,0-.25.01-.34.06-.1.05-.15.12-.24.2-.1.08-.23.15-.4.22-.17.06-.38.11-.7.11-.42,0-.64-.07-.77-.09h0Z"/>
        <path class="cls-1" d="m12.87,11.03l.25-.1c.23.09.56.19.79.19.14,0,.25-.05.35-.09.08-.03.9-.44,1.32-.59.13-.05.26-.07.33-.07.1,0,.11.05.13.09.08.12.69,1,.75,1.07.52-.16,1.06-.39,1.36-.69.32-.31.59-.67.84-.94.1-.11.22-.2.28-.24.27-.14,1.09-.15,1.44-.14l-.2.29c-.61,0-.96.06-1.11.18-.07.05-.16.15-.26.27-.21.27-.44.65-.53.72.18.13.38.23.69.23.52,0,.89-.32,1.09-.51l.17.11c-.13.17-.27.34-.46.47-.21.14-.47.23-.63.28-.3-.06-.96-.19-1.12-.22-.58.23-1.51.61-1.82.71-.05.01-.12.03-.21.03-.25.01-.59.01-.91,0-.22,0-.43,0-.54-.02l-.28-.29c.24.05.34.06.57.06.54,0,.89-.09,1-.12.1-.02.11-.08.08-.17-.04-.14-.12-.27-.24-.41-.07-.08-.21-.21-.27-.25-.07-.05-.15-.06-.35,0-.19.06-.77.38-1.03.52-.13.07-.22.08-.45.03-.24-.06-.81-.26-1.04-.4Zm1.63-6.5c.12,0,.21-.09.21-.21,0,0,0,0,0,0,0-.12-.1-.21-.21-.21s-.21.1-.21.21c0,.12.09.21.21.21,0,0,0,0,0,0Zm8.17,12.33c0-.17-.14-.31-.31-.31h-.46c-.17,0-.31.14-.31.31,0,0,0,0,0,0v4.81c0,.17.14.31.31.31h.46c.17,0,.31-.14.31-.31,0,0,0,0,0,0v-4.81Zm.59.13v.23c0,.1.08.17.17.17h3.17c.14,0,.26-.12.26-.26v-.39c0-.14-.12-.27-.26-.26,0,0-3.07.3-3.16.31-.1,0-.18.09-.18.2Zm-2.57,4.99c-.79,0-1.29-.6-1.29-1.27v-1.92h-.23c-.12,0-.22-.1-.22-.22,0,0,0,0,0,0v-.32c0-.12.1-.22.22-.22h.23s0-1.18,0-1.18c0-.17.14-.3.3-.3h.45c.17,0,.3.14.3.3v1.18h.7c.12,0,.22.1.22.22v.32c0,.12-.1.22-.22.22h-.7v1.78c0,.35.21.59.59.59h.06c.13,0,.24.11.24.24v.35c0,.13-.11.24-.24.24h-.42Zm-5.4-2.04c0-1.02-.61-2.05-1.99-2.05-1.28,0-1.99,1-1.99,2.05,0,1.12.77,2.11,2,2.11.84,0,1.68-.45,1.83-1.18.02-.1-.04-.23-.18-.23h-.6c-.11,0-.2.05-.25.13-.17.25-.43.39-.8.39-.53,0-.9-.42-.92-.88h2.57c.24,0,.34-.13.34-.35h0Zm-2.9-.44c.04-.45.44-.79.91-.79s.88.33.92.79h-1.83,0Zm14.58.44c0-1.02-.6-2.05-1.98-2.05-1.28,0-1.99,1-1.99,2.05,0,1.12.77,2.11,2,2.11.84,0,1.67-.45,1.83-1.18.02-.1-.04-.23-.18-.23h-.6c-.11,0-.2.05-.25.13-.17.25-.42.39-.8.39-.53,0-.89-.42-.92-.88h2.57c.23,0,.34-.13.34-.35h0Zm-2.89-.44c.04-.45.44-.79.91-.79s.88.33.92.79h-1.83,0Z"/>
        <path class="cls-1" d="m18.53,16.59h-8.3c-.19,0-.35.15-.35.34l.03,3.26s-1.79-3.23-1.88-3.4c-.09-.15-.28-.3-.54-.3h-.68c-.19,0-.34.15-.34.34v4.79c0,.19.15.34.34.34h.44c.19,0,.34-.15.34-.34l-.03-3.36s1.81,3.27,1.88,3.39c.11.18.28.3.54.3h.63c.19,0,.34-.15.34-.34v-4.23h7.58c.13,0,.24-.1.24-.23v-.34c0-.13-.11-.23-.24-.23h0Z"/>
        <path class="cls-1" d="m17.19,18.67c.36,0,.63.13.73.36.05.11.14.13.26.13h.5c.08,0,.18-.07.18-.18,0-.58-.69-1.09-1.66-1.09s-1.67.48-1.67,1.25c0,.59.46.93,1.03,1.08.26.07.7.18.92.23.23.06.44.13.44.33,0,.31-.33.42-.69.42s-.68-.15-.78-.4c-.06-.14-.16-.16-.31-.16h-.5c-.09,0-.19.07-.19.19v.06c0,.56.75,1.14,1.78,1.14.73,0,1.76-.3,1.76-1.29,0-.57-.38-.96-1-1.12-.24-.06-.82-.21-.95-.24-.23-.06-.44-.13-.44-.33,0-.29.27-.39.61-.39h0Z"/>
      </g>
      <rect class="cls-2" width="36.26" height="24.83"/>
    </g>
  </g>
</svg>