<?xml version="1.0" encoding="UTF-8"?>
<svg id="Capa_2" data-name="Capa 2" xmlns="http://www.w3.org/2000/svg" viewBox="0 0 36.26 24.83">
  <defs>
    <style>
      .cls-1 {
        fill: #8c98a4;
      }

      .cls-2 {
        fill: none;
      }
    </style>
  </defs>
  <g id="Capa_1-2" data-name="Capa 1">
    <g>
      <g>
        <path class="cls-1" d="m9.31,14l-.68.15s-.84-.03-.84-1.3c0-.73,0-1.99,0-2.62,0-.3-.17-.48-.17-.48l1.06-.25v3.11c0,1.15.63,1.39.63,1.39"/>
        <path class="cls-1" d="m10.61,13.02c-.04.15-.11.24-.23.27-.12.03-.2-.02-.23-.15-.03-.13-.11-.46-.11-1,0-.55.07-.9.1-1.05.03-.15.11-.23.23-.26.13-.03.21.02.24.15.03.13.08.47.08,1.02,0,.53-.05.87-.08,1.02m.69-2.52c-.19-.24-.51-.32-.95-.21-.41.1-.72.31-.92.65-.2.33-.3.8-.3,1.41s.1,1.01.31,1.25c.21.25.51.32.91.23.41-.1.72-.31.93-.64.2-.33.3-.8.3-1.42s-.09-1.02-.28-1.26"/>
        <path class="cls-1" d="m6.46,13.97c-.04.15-.11.24-.23.27-.12.03-.2-.02-.23-.15-.04-.13-.11-.46-.11-1,0-.55.07-.9.1-1.05.03-.15.11-.23.23-.26.13-.03.21.02.24.15.03.13.08.47.08,1.02,0,.53-.05.87-.08,1.02m.69-2.52c-.19-.24-.51-.32-.95-.21-.41.1-.72.31-.92.65-.2.33-.3.8-.3,1.41,0,.59.1,1.01.31,1.25.21.25.51.32.91.23.41-.1.72-.31.93-.64.2-.33.3-.8.3-1.42s-.09-1.02-.28-1.26"/>
        <path class="cls-1" d="m14.43,10.23v2.83s-.9.14-.9.14v-2.59c0-.06-.01-.18-.11-.22-.1-.05-.32-.02-.47.07v2.84s-.9.16-.9.16c0,0,0-1.6,0-2.11,0-1.07-.51-1.23-.51-1.23l1.23-.22.08.18c.24-.19.6-.33.97-.33.27,0,.4.15.44.2.3-.36.92-.54,1.33-.34.26.13.3.4.3.59,0,0,0,1.22,0,1.8,0,.73.23.82.23.82l-1.13.16v-2.59c0-.13-.07-.21-.15-.24-.08-.03-.27-.01-.42.09"/>
        <path class="cls-1" d="m21.56,8.92l-.07-.15-.73.08v3.44s.9-.08.9-.08v-2.89c.23-.09.4-.08.49-.04.06.03.12.1.12.23v2.64s1.18-.08,1.18-.08c0,0-.28-.18-.28-.77,0-.26,0-1.91,0-1.91,0-.4-.2-.65-.52-.72-.32-.06-.72,0-1.09.23"/>
        <path class="cls-1" d="m20.22,12.33l-.9.09s0-2.38,0-2.53c0-.73-.27-.87-.27-.87l1.17-.12v3.44Z"/>
        <path class="cls-1" d="m20.37,7.72c-.41.35-.62.86-.62.86,0,0-.19-.51-.62-.76.44-.38.61-.83.61-.83,0,0,.22.46.63.73"/>
        <path class="cls-1" d="m18.82,10.59c0,.68-.02,1.16-.34,1.61-.35.46-1.17.61-1.63.45-.45-.13-.42-.56-.44-.75,0,0,.01-2.87.01-3.14,0-.39-.23-.6-.23-.6l1.12-.14v1.34c.06-.06.69-.5,1.18-.16.27.19.32.53.32,1.4m-.96-.8c-.22-.18-.54.08-.55.08,0,0,0,2.22,0,2.22.2.07.4,0,.5-.15.18-.29.19-.65.19-1.16,0-.67-.03-.89-.15-.99"/>
        <path class="cls-1" d="m26.26,11.17v-1.97c0-.59,0-.83,0-.83,0,0-.18.15-.38.2-.26.07-.32-.1-.73-.08-1.07.04-1.5.98-1.5,2.06,0,.49.16.91.38,1.19.2.24.85.61,1.35-.11,0,.14.03.27.06.35l1.1-.04s-.29-.2-.29-.77m-1.38.15c-.19-.05-.31-.47-.31-1.02s.2-1.08.43-1.22c.13-.08.33-.03.38.03v.82c0,.14,0,.9,0,1.19-.11.13-.27.25-.5.2"/>
        <path class="cls-1" d="m4.92,14.83s-.15-.33-.17-.64c-.24.25-.41.4-.71.45-.54.1-.69-.41-.75-.77-.03-.2-.03-.08-.05-.83-.02-.65.08-1.08.08-1.08,0,0,.07-.5.44-.7.54-.29,1.15.39,1.15.39-.02-.02,0-.86,0-.86,0,0-.54-.38-1.13-.31-1.38.16-1.74,1.59-1.74,2.78,0,.82.23,1.47.53,1.82.28.33,1.38.79,2.35-.25"/>
        <path class="cls-1" d="m36.03,8.88l-3.43-5.24c-.19-.3-.49-.47-.81-.47s-.61.17-.81.47l-1.01,1.54S13.79,4.77,0,9.9l.02,9.37c14.13-5.29,30.11-4.77,30.11-4.77.48.74.84,1.29.84,1.29.19.3.49.47.81.47.32,0,.62-.17.81-.47l3.43-5.24c.31-.48.31-1.2,0-1.68ZM.55,18.53l-.02-8.26c4.07-1.51,14.7-4.56,29.14-4.57-.96,1.47-2.08,3.19-2.08,3.19-.15.24-.23.53-.23.83s.08.59.23.83c0,0,1.27,1.94,2.26,3.46-14.55-.08-25.21,3.03-29.3,4.54Zm35.04-8.25l-3.43,5.24c-.2.31-.53.31-.73,0l-3.43-5.24c-.2-.31-.2-.81,0-1.12l3.43-5.24c.2-.31.53-.31.73,0l3.43,5.24c.2.31.2.81,0,1.12Z"/>
        <g>
          <path class="cls-1" d="m31.83,9.83c-.08-.07-.2-.19-.2-.19,0,0-.03.21-.11.29,0,0,.07.19.07.27,0,0,.06-.05.27-.12.09-.03.18-.05.17-.06-.04-.04-.14-.14-.2-.19Z"/>
          <path class="cls-1" d="m33.21,11.22s-.05,0-.09,0c.21-.42-.02-.61-.07-.63.38-.86-.56-.83-.67-.82-.07-.06-.21-.18-.31-.29h0s0-.01,0-.01c-.1-.09-.23-.29-.32-.42-.03-.04-.04-.07-.06-.09-.02-.03,0-.05.01-.06.04-.03.07-.07.08-.14h0c0-.07-.03-.12-.07-.17.03,0,.07-.02.1-.04.07-.06.07-.13.08-.17,0-.04.02-.08.04-.09.04-.02.09-.04.1-.07.03-.06-.02-.11-.06-.19,0-.01-.02-.06-.02-.06.1-.04.21-.13.21-.25,0-.05,0-.33-.32-.44-.1-.03-.19-.08-.26-.11.42-.39,1.01-.64,1.64-.64.04,0,.07,0,.11,0-.39-.17-.82-.28-1.28-.28-1.73,0-3.13,1.38-3.13,3.07,0,1.53,1.15,2.8,2.64,3.03,0,0-.04.07-.04.15,0,.13.07.23.11.3.03.04.03.08.03.14,0,.11.05.21.05.21.03.07.05.12.09.17.05.08.15.12.24.1.08-.02.13-.09.13-.17h0c0-.07,0-.4.1-.6.03-.06.09-.17.16-.29,1.15-.13,2.11-.87,2.53-1.88-.43.44-1.05.72-1.72.72Zm-.27,0c-.12.17-.72,1.15-.84,1.41-.11.22-.11.58-.11.66,0,.05-.05.05-.08,0-.03-.04-.05-.1-.08-.16-.07-.11,0-.22-.09-.37-.01-.02-.03-.04-.04-.06-.1-.17,0-.28.05-.28.06,0,.13-.03.15-.04.19-.16.31-.83.31-.83-.16.07-.43.75-.43.75-.08.06-.09-.16-.12-.26-.02-.1.06-.18.05-.29,0-.06-.02-.18-.02-.27,0-.09.05-.08.08-.09.03,0,.14.02.16.02.05,0,.06-.04.06-.04.04-.13.18-.3.18-.3-.09-.05-.27,0-.27,0-1.4.75-2.05-.89-2.05-.89.19.04.33.07.57,0,.24-.07.42-.27.42-.27-.04-.27-.14-.69-.1-.89,0-.17.13-.33.19-.44.04-.07,0-.13,0-.13,0-.01-.01-.02,0-.03,0-.01.01-.03.02-.05,0-.02.01-.03.03-.02,0,0,.05.02.05.02.03-.09-.04-.18-.12-.28-.08-.09-.11-.35-.11-.35-.08.02-.09-.04-.09-.04-.06.09,0,.3.03.4,0,.03.02.07.02.11,0,.13-.1.23-.22.23s-.22-.1-.22-.23c0-.01,0-.03,0-.04.04.05.1.08.15.06.04-.02.07-.06.07-.11,0-.1-.02-.24-.03-.37-.02-.2.2-.17.2-.17.02-.1.2-.09.2-.09.09-.12.21-.22.39-.24.17-.02.29.08.29.08.45.06.45.3.45.4,0,.1-.13.13-.13.13-.04.05-.09.06-.09.06,0,0,.01.08.01.09,0,0,0,.03.01.05.01.02.06.09.06.09.01.01,0,.04-.02.05-.02,0-.03,0-.03.01,0,0-.02,0-.01.02,0,.02,0,.03,0,.03,0,0,0,.01-.01.01-.02,0-.06,0-.06,0,0,0,.03.03.03.03,0,0,.01,0,0,.01,0,0-.02.02-.02.04,0,.03,0,.07-.03.1-.05.04-.16,0-.27,0-.08,0-.02.11-.02.11.03.02.17.09.18.19,0,.08-.06.05-.1.14-.02.04-.02.08,0,.11.04.06.28.44.45.59.14.16.37.34.37.34.73-.04.65.33.62.46-.03.12-.1.28-.1.28.29.09.22.38.1.55Z"/>
        </g>
        <path class="cls-1" d="m1.9,16.13c-.38,0-.69.3-.69.68s.31.68.69.68.69-.3.69-.68-.31-.68-.69-.68m0,1.28c-.34,0-.61-.27-.61-.6s.27-.6.61-.6.62.27.62.6-.27.6-.62.6"/>
        <path class="cls-1" d="m2.24,16.63c0-.11-.08-.24-.29-.24h-.35v.83h.18v-.34h.14l.16.34h.19l-.18-.38c.09-.04.15-.12.15-.21m-.38.1h-.08v-.2h.07c.09,0,.21,0,.21.1,0,.1-.12.1-.2.1"/>
        <polygon class="cls-1" points="4.5 19.19 4.51 19.44 3.82 19.61 3.81 20.33 4.45 20.18 4.45 20.4 3.82 20.56 3.82 21.32 4.55 21.15 4.56 21.39 3.43 21.66 3.43 19.44 4.5 19.19"/>
        <polygon class="cls-1" points="5.23 19.01 5.26 21.22 4.93 21.29 4.89 19.08 5.23 19.01"/>
        <path class="cls-1" d="m7.1,19.34c-.06,0-.15-.02-.26,0-.15.03-.22.13-.2.23.01.07.06.11.2.21l.06.04c.16.11.3.2.34.39.05.22-.06.52-.46.61-.22.05-.39,0-.45-.02l.05-.2c.07.02.19.05.34.02.16-.04.23-.15.2-.27-.02-.1-.1-.15-.24-.24l-.07-.04c-.22-.15-.28-.24-.3-.35-.06-.24.13-.5.45-.57.04,0,.17-.04.35,0l-.04.2Z"/>
        <path class="cls-1" d="m8.71,20.32l-.33.07v-.46c-.04.14-.16.53-.47.59-.2.04-.37-.07-.43-.37-.1-.46.1-1.24.75-1.38.16-.03.31-.02.47.01v1.54Zm-.48-1.34c-.35.07-.45.75-.38,1.1,0,.04.04.19.17.16.14-.03.22-.25.23-.33.04-.18.1-.48.1-.93-.02,0-.07,0-.13,0"/>
        <path class="cls-1" d="m9.42,17.8l.02,1.18c.08-.27.23-.51.46-.56.23-.05.38.12.43.34.11.49-.08,1.26-.73,1.41-.23.05-.42.02-.49,0l-.04-2.3.36-.08Zm.17,2.17c.4-.09.42-.88.37-1.11-.01-.06-.05-.18-.17-.16-.11.02-.18.17-.22.29-.11.32-.12.8-.12.98.04,0,.09,0,.14,0"/>
        <path class="cls-1" d="m11.25,18.17c.34-.07.57.13.63.45.08.42-.07,1.11-.64,1.23-.32.06-.58-.12-.65-.47-.11-.57.2-1.12.65-1.21m-.01,1.48c.32-.06.3-.84.25-1.07-.02-.11-.09-.25-.23-.22-.3.06-.33.73-.26,1.07,0,.03.05.26.24.22"/>
        <path class="cls-1" d="m12.58,17.99v.59c.04-.25.16-.65.41-.7.03,0,.05,0,.07,0v.33s-.05,0-.09,0c-.27.05-.41.82-.4,1.39l-.35.06.03-1.61.33-.06Z"/>
        <path class="cls-1" d="m15.08,18.97c-.21.18-.38.28-.58.31-.26.04-.5-.09-.55-.42-.08-.49.28-1.2.8-1.28.25-.04.35.1.37.24.06.41-.42.6-.79.69-.04.32.01.57.23.54.08-.01.19-.06.39-.23l.13.16Zm-.25-1.09c-.01-.09-.07-.11-.13-.1-.12.02-.28.2-.36.55.25-.06.52-.2.48-.45"/>
        <path class="cls-1" d="m16.18,17.63c-.06-.01-.15-.03-.25-.02-.15.02-.23.11-.22.21,0,.07.05.11.19.22l.06.05c.15.12.28.23.31.42.03.22-.1.52-.51.57-.23.03-.39-.04-.44-.06l.07-.2c.07.03.19.07.34.05.16-.02.24-.13.22-.25-.01-.1-.08-.15-.22-.26l-.06-.05c-.2-.16-.26-.26-.27-.37-.03-.25.17-.48.5-.53.04,0,.18-.02.35.02l-.05.2Z"/>
        <path class="cls-1" d="m17.8,17.2v1.61s-.37.04-.37.04v-1.61s.37-.04.37-.04Zm.07-.45l-.24.23-.24-.27.24-.23.24.26Z"/>
        <path class="cls-1" d="m18.58,17.09v.46c.03-.12.16-.51.49-.54.37-.04.37.33.36.49l-.03,1.11-.36.05.03-1.11c0-.16-.01-.27-.13-.26-.16.02-.27.35-.29.43-.07.28-.09.57-.1.99l-.35.04.04-1.61.33-.03Z"/>
        <path class="cls-1" d="m20.58,16.32s-.07-.01-.12,0c-.16.01-.19.15-.2.37v.22s.26-.02.26-.02v.2s-.27.02-.27.02l-.04,1.02c-.02.53-.04.99-.54,1.04-.08,0-.13,0-.17,0v-.19s.08,0,.13,0c.21-.02.24-.22.25-.75l.02-1.07-.23.02v-.2s.24-.02.24-.02v-.2c.02-.17,0-.58.49-.62.1,0,.15,0,.22,0l-.02.19Z"/>
        <path class="cls-1" d="m21.17,16.82l-.06,1.59-.36.04.06-1.61.36-.03Zm.09-.44l-.25.22-.23-.28.25-.22.23.27Z"/>
        <path class="cls-1" d="m21.95,16.75l-.02.46c.04-.12.18-.5.51-.52.37-.02.37.35.36.5l-.04,1.09-.36.03.04-1.1c0-.16-.01-.27-.12-.26-.16,0-.28.34-.3.41-.07.28-.09.56-.11.98l-.35.03.06-1.6.33-.02Z"/>
        <path class="cls-1" d="m23.59,16.64l-.04,1.59-.36.02.04-1.6h.36Zm.09-.45l-.25.21-.23-.28.25-.21.23.28Z"/>
        <path class="cls-1" d="m24.5,16.16v.42s.26,0,.26,0v.2s-.28,0-.28,0l-.03.97c0,.2.03.22.09.22.06,0,.11-.03.18-.06l.1.19c-.06.02-.21.1-.39.1-.19,0-.36-.09-.35-.38l.03-1.03h-.23s0-.19,0-.19h.25s.01-.43.01-.43h.34Z"/>
        <path class="cls-1" d="m25.64,16.52c.35,0,.58.23.64.56.08.43-.08,1.08-.67,1.09-.32,0-.58-.23-.65-.58-.11-.59.22-1.06.68-1.06m-.03,1.46c.32,0,.32-.77.27-1-.02-.11-.09-.26-.23-.26-.3,0-.35.66-.28,1,0,.03.05.26.24.26"/>
      </g>
      <rect class="cls-2" width="36.26" height="24.83"/>
    </g>
  </g>
</svg>