<?xml version="1.0" encoding="UTF-8"?>
<svg id="Capa_2" data-name="Capa 2" xmlns="http://www.w3.org/2000/svg" viewBox="0 0 36.26 24.83">
  <defs>
    <style>
      .cls-1 {
        fill: #8c98a4;
        fill-rule: evenodd;
      }

      .cls-2 {
        fill: none;
      }
    </style>
  </defs>
  <g id="Capa_1-2" data-name="Capa 1">
    <g>
      <path class="cls-1" d="m25.67,13.77h-.91l2.68-5.26h1.05l2.68,5.26h-.92l-.7-1.38h-3.16l-.71,1.38Zm3.53-2.03l-1.25-2.45-1.25,2.45h2.5Zm-7.71-3.37l.62-.72h1.38l-2.01.72Zm-1.78,5.41h4.7v-.6h-3.89v-1.82h2.89v-.62h-2.89v-1.64h3.87v-.59h-4.68v5.26Zm-6.39-5.27h3.46c.92,0,1.68.69,1.68,1.53,0,.73-.57,1.35-1.34,1.49l1.63,2.24h-.95l-1.6-2.21h-2.15v2.21h-.73v-5.26Zm3.51.63h.05s.05.01.05.01h.05s.05.02.05.02l.04.02.04.02.04.02.04.02.04.02.04.02.04.03.04.03.03.03.03.03.03.04.03.04.02.04.02.04.02.04.02.04.02.04.02.04v.04s.02.04.02.04v.04s.02.04.02.04v.04s.01.04.01.04v.21s-.01.04-.01.04v.04s-.02.04-.02.04v.04s-.02.04-.02.04l-.02.04-.02.04-.02.04-.02.04-.02.04-.02.04-.03.04-.03.04-.03.03-.03.03-.04.03-.04.03-.04.02-.04.02-.04.02-.04.02-.04.02-.04.02h-.05s-.05.02-.05.02h-.05s-.05.02-.05.02h-.05s-.05,0-.05,0h-2.63v-1.81h2.73Zm-8-.93c-1.49,0-2.69,1.2-2.69,2.69s1.2,2.69,2.69,2.69,2.69-1.2,2.69-2.69-1.21-2.69-2.69-2.69m0-.6c-1.98,0-3.58,1.47-3.58,3.29s1.6,3.29,3.58,3.29,3.58-1.47,3.58-3.29c0-1.82-1.61-3.29-3.58-3.29M0,13.78v-5.26h.67v4.69h3.98v.57H0Zm31.54,0h4.72v-.6h-3.98v-4.67h-.74v5.26h0Zm-16.93,3.42h-.4l1.18-2.05h.46l1.18,2.05h-.4l-.31-.54h-1.39l-.31.54Zm1.55-.79l-.55-.95-.55.95h1.1Zm1.63-1.26h1.46c.39,0,.71.27.71.59,0,.28-.24.53-.56.58l.68.87h-.4l-.68-.86h-.83v.86h-.39v-2.05h0Zm1.47.25h.04s.02.01.02.01h.02s.02.01.02.01h.02s.02.01.02.01h.02s.02.02.02.02h.02s.01.02.01.02h.01s.01.02.01.02h.01s.01.02.01.02h.01s.01.02.01.02h.01s.01.02.01.02h0s0,.02,0,.02h0s0,.02,0,.02v.02s.01.02.01.02v.2s-.01.02-.01.02h0s0,.02,0,.02h0s0,.02,0,.02h-.01s-.01.02-.01.02h-.01s-.01.02-.01.02h-.01s-.01.02-.01.02h-.01s-.01.02-.01.02h-.01s-.02.02-.02.02h-.02s-.02.02-.02.02h-.02s-.02.01-.02.01h-.02s-.02.01-.02.01h-.02s-.02.01-.02.01h-1.09v-.71h1.07Zm-7.36-.24h1.46c.39,0,.71.27.71.59,0,.21-.13.39-.31.5-.13.07-.26.09-.4.1h-1.06v.86h-.39v-2.05h0Zm1.47.25h.04s.02.01.02.01h.02s.02.01.02.01h.02s.02.01.02.01h.02s.02.02.02.02h.02s.02.02.02.02h.01s.01.02.01.02h.01s.01.02.01.02h.01s.01.02.01.02h.01s0,.02,0,.02h0s0,.02,0,.02h0s0,.02,0,.02v.02s.01.02.01.02v.02s0,.02,0,.02v.15s-.01.02-.01.02v.02s-.01.01-.01.01h0s0,.02,0,.02h0s0,.02,0,.02h-.01s-.01.02-.01.02h-.01s-.01.02-.01.02h-.01s-.01.02-.01.02h-.01s-.02.02-.02.02h-.02s-.02.02-.02.02h-.02s-.02.01-.02.01h-.02s-.02.01-.02.01h-.02s-.02.01-.02.01h-.02s-.02,0-.02,0h-1.07v-.71h1.07Zm8.91,1.15l.35-.02c.02.1.05.19.11.25s.16.12.28.16c.13.04.27.06.44.06.15,0,.27-.01.38-.05.11-.03.19-.07.24-.13.05-.05.08-.11.08-.18s-.02-.12-.08-.17c-.05-.05-.14-.09-.25-.12-.08-.02-.24-.05-.51-.1-.26-.04-.44-.08-.54-.13-.13-.05-.24-.11-.3-.19-.07-.08-.1-.16-.1-.25,0-.1.04-.2.12-.29s.2-.16.36-.21.33-.07.52-.07c.21,0,.39.02.56.07.16.05.28.12.37.22s.13.21.14.32l-.35.02c-.02-.13-.08-.23-.2-.3-.11-.07-.28-.1-.5-.1-.23,0-.39.03-.5.09s-.16.13-.16.22c0,.07.04.13.11.18.07.05.26.1.57.15.3.05.51.1.63.13.16.05.28.13.37.21.08.08.11.18.11.29s-.04.21-.13.31-.21.17-.37.22c-.16.05-.34.08-.54.08-.25,0-.47-.02-.65-.08-.18-.05-.31-.13-.41-.24-.09-.11-.15-.23-.15-.37m-1.26-.79h.38v1.44h-.38v-1.44Zm0-.6h.38v.38h-.38v-.38ZM3.28,10.36h.62l.93-1.81h-.79l-.76,1.81Z"/>
      <rect class="cls-2" width="36.26" height="24.83"/>
    </g>
  </g>
</svg>