<?xml version="1.0" encoding="UTF-8"?>
<svg id="Capa_2" data-name="Capa 2" xmlns="http://www.w3.org/2000/svg" viewBox="0 0 36.26 24.83">
  <defs>
    <style>
      .cls-1 {
        fill: #8c98a4;
      }

      .cls-2 {
        fill: none;
      }
    </style>
  </defs>
  <g id="Capa_1-2" data-name="Capa 1">
    <g>
      <g>
        <path class="cls-1" d="m14.09,10.76c.09-1.12.56-4.16,4.5-4.6,3.94-.45,3.94,2.53,3.85,3.66-.11,1.42-.23,2.83-.34,4.25-.09,1.12-.56,4.16-4.5,4.6-3.94.45-3.94-2.54-3.85-3.66.11-1.42.23-2.83.34-4.25Zm2.59,3.02c-.11,1.31-.08,2.1,1.15,1.96,1.23-.14,1.38-.95,1.48-2.25.07-.82.13-1.63.2-2.45.1-1.31.08-2.1-1.15-1.96-1.23.14-1.38.95-1.48,2.26-.06.82-.13,1.63-.19,2.45Z"/>
        <path class="cls-1" d="m.03,9.12c-.11-.34.04-.56.39-.6.66-.07,1.32-.15,1.98-.22.3-.03.53.09.6.37.58,2.28,1.15,4.55,1.73,6.83.05.16.18.15.2-.02l.33-7.06c.02-.29.2-.46.5-.49.48-.05.95-.11,1.43-.16.3-.03.52.09.6.37.63,2.27,1.27,4.54,1.9,6.81.05.16.18.15.2-.02.05-2.35.11-4.7.16-7.04,0-.29.2-.46.5-.49.66-.07,1.32-.15,1.98-.22.35-.04.54.14.51.5-.28,3.63-.56,7.26-.84,10.89-.02.29-.2.46-.5.49-.78.09-1.56.18-2.34.27-.3.03-.5-.09-.6-.37-.46-1.33-.92-2.66-1.38-3.99-.05-.16-.19-.15-.2.02-.15,1.4-.3,2.79-.45,4.19-.03.29-.2.46-.5.5-.78.09-1.56.18-2.34.26-.3.03-.52-.09-.6-.37C2.2,16.07,1.12,12.6.03,9.12Z"/>
        <path class="cls-1" d="m36.23,15.71c.11.34-.04.56-.39.6-.66.07-1.32.15-1.98.22-.3.03-.53-.09-.6-.37-.58-2.28-1.16-4.55-1.73-6.83-.05-.16-.18-.15-.2.02-.11,2.35-.22,4.71-.33,7.06-.02.29-.2.46-.5.49-.48.05-.95.11-1.43.16-.3.04-.52-.09-.6-.37-.63-2.27-1.27-4.54-1.9-6.81-.05-.16-.19-.15-.2.02-.05,2.35-.11,4.7-.16,7.04,0,.28-.2.46-.5.49-.66.07-1.32.15-1.98.22-.35.04-.54-.14-.51-.5.28-3.63.56-7.26.84-10.89.02-.29.2-.46.5-.5.78-.09,1.56-.18,2.35-.26.3-.03.5.1.6.37.46,1.33.92,2.66,1.38,3.99.05.16.19.15.2-.02.15-1.4.3-2.8.45-4.19.04-.29.2-.46.5-.49.78-.09,1.56-.18,2.34-.27.3-.03.52.09.6.37,1.08,3.48,2.17,6.95,3.25,10.43Z"/>
      </g>
      <rect class="cls-2" width="36.26" height="24.83"/>
    </g>
  </g>
</svg>