<?xml version="1.0" encoding="UTF-8"?>
<svg id="Capa_2" data-name="Capa 2" xmlns="http://www.w3.org/2000/svg" viewBox="0 0 36.26 24.83">
  <defs>
    <style>
      .cls-1 {
        fill: #8c98a4;
      }

      .cls-2 {
        fill: none;
      }
    </style>
  </defs>
  <g id="Capa_1-2" data-name="Capa 1">
    <g>
      <g>
        <path class="cls-1" d="m23.57,14.99c-.1,0-.19.03-.28.08-.08.05-.15.13-.21.21s-.1.16-.14.24c-.04.08-.06.13-.08.18h-.01v-.7s-.02,0-.02,0l-.66.25v.03s.08.04.12.06.07.05.1.06c.02.02.04.03.04.04s0,.04,0,.06v1.69c0,.05-.03.09-.08.11s-.12.04-.2.04v.05h1.12v-.05s-.07-.01-.11-.01-.09,0-.13-.01-.08-.02-.11-.04c-.03-.02-.05-.04-.07-.07v-1.44s.04-.1.07-.16c.02-.05.05-.1.09-.15.04-.04.07-.08.11-.11.04-.03.08-.04.12-.04.05,0,.08.01.11.03s.05.04.08.06c.02.02.05.04.08.06.03.02.07.03.13.03s.11-.02.15-.07c.04-.05.07-.11.07-.18,0-.08-.03-.14-.09-.19-.06-.04-.13-.07-.21-.07m-1.85.8c-.09-.08-.2-.14-.31-.18-.11-.04-.24-.07-.36-.08v-.02c.23-.05.41-.14.56-.27.14-.13.21-.31.21-.53,0-.2-.05-.37-.16-.5-.11-.13-.25-.23-.42-.29-.11-.04-.22-.07-.33-.08-.11-.01-.24-.02-.36-.02h-1.69v.05c.09.01.16.02.21.04.05.02.1.05.15.11.02.02.04.05.05.1.01.04.02.1.03.15s.01.11.02.18c0,.06,0,.12,0,.18v1.56c0,.1,0,.18,0,.27v.19c0,.05,0,.11,0,.16,0,.05,0,.11-.02.16,0,.05-.02.1-.03.13s-.02.07-.04.09c-.05.05-.11.1-.18.13s-.16.05-.24.07v.05h1.73c.15,0,.3,0,.46-.01.16-.01.3-.04.42-.08.07-.02.15-.07.22-.11.07-.05.14-.11.2-.19s.11-.16.15-.25.05-.21.05-.33c0-.13-.03-.25-.08-.36-.06-.12-.13-.21-.22-.29m-1.86-.74v-.4c0-.14,0-.27,0-.39,0-.06,0-.11,0-.15s0-.07,0-.09c0-.02,0-.04,0-.06,0-.02,0-.04.01-.05.03-.01.07-.02.13-.02.05,0,.12-.01.19-.01.24,0,.43.04.57.1.13.05.24.15.32.28.08.13.13.28.13.45,0,.23-.08.42-.24.57-.16.15-.38.24-.68.25-.05,0-.11,0-.19,0h-.28v-.49h0Zm1.46,1.87c-.08.12-.19.22-.33.3-.11.05-.22.09-.33.1s-.22.02-.31.02c-.11,0-.2-.01-.26-.04s-.1-.05-.13-.09c-.04-.05-.07-.12-.07-.21s-.01-.19-.02-.31v-1.09h.48c.1,0,.18,0,.25.01s.15.02.22.05c.09.03.18.07.25.12.07.05.14.11.19.19.05.07.1.15.13.24.03.08.05.18.05.27,0,.18-.04.32-.12.45m7.11.41s-.05-.02-.08-.04c-.02-.02-.03-.04-.03-.06v-1.47c0-.23-.05-.41-.16-.56-.1-.15-.25-.22-.44-.22-.09,0-.18.02-.26.05s-.16.08-.23.13c-.07.05-.13.11-.19.18-.05.07-.1.13-.14.18h-.01v-.55h-.03l-.66.24v.03s.08.04.12.06.07.04.1.06c.02.02.04.03.04.04s0,.03,0,.06v1.72c0,.05-.03.09-.08.11s-.12.04-.2.04v.05h.97v-.05s-.07-.01-.1-.01-.05,0-.08-.01-.04-.02-.06-.03-.03-.04-.04-.07v-1.64c.09-.09.17-.16.25-.21.07-.05.16-.07.28-.07.18,0,.3.06.37.18.07.12.11.28.11.47v1.28c0,.05-.02.08-.08.1-.05.01-.13.02-.22.03v.05h1.02v-.04s-.06,0-.1-.01c-.02,0-.05-.01-.08-.02m-2.38-.29s-.1.05-.17.05c-.07,0-.13-.02-.18-.07-.05-.05-.08-.15-.08-.3v-1.2c0-.05,0-.11,0-.18s-.01-.1-.02-.12c-.04-.07-.09-.12-.16-.17-.08-.04-.16-.07-.25-.07-.04,0-.1.01-.17.03-.07.02-.15.05-.22.08-.08.03-.17.07-.26.12s-.18.1-.27.15c-.03.02-.06.04-.09.05-.04.02-.07.04-.1.07-.03.02-.05.05-.07.09-.02.04-.03.07-.03.11,0,.05.02.1.05.13s.08.06.14.06.11-.02.16-.05c.05-.04.07-.08.07-.13v-.22s.01-.04.04-.07.05-.05.1-.08.08-.05.14-.07c.05-.02.1-.03.16-.03.08,0,.15.01.19.03.05.02.09.05.12.07.03.02.05.05.06.08s.02.04.02.05v.51s-.07.04-.12.07-.1.05-.17.09c-.07.04-.14.08-.22.13-.08.05-.18.11-.29.18s-.21.15-.28.24-.11.18-.11.27c0,.08.01.16.04.22s.07.11.11.15c.04.04.1.07.15.08.05.02.11.02.16.02.09,0,.18-.01.25-.04s.15-.07.21-.11.11-.1.16-.15c.04-.05.08-.1.11-.15h.01c0,.18.04.29.13.36.09.07.19.1.3.1.07,0,.13-.01.19-.04s.11-.06.15-.11.08-.1.1-.16c.02-.06.04-.12.04-.19h-.03s-.04.09-.07.12m-.83-.22c0,.05-.02.1-.06.14-.05.05-.12.1-.19.11s-.15.03-.23.03c-.1,0-.18-.04-.24-.1-.06-.07-.09-.15-.09-.24s.03-.16.09-.24c.06-.07.13-.13.22-.19s.18-.11.27-.16c.09-.05.16-.1.22-.14v.77h0Zm7.82-.57c-.1-.11-.24-.19-.38-.23-.06-.02-.14-.04-.22-.05s-.17-.04-.24-.05c-.11-.02-.19-.07-.27-.12s-.1-.15-.1-.27c0-.08.01-.15.04-.21.02-.06.06-.11.1-.15s.09-.07.15-.08.11-.03.17-.03c.09,0,.18.02.25.05.07.04.13.08.19.15.05.06.11.13.16.22.05.08.1.18.14.28h.04s-.06-.63-.06-.63c-.1-.04-.2-.07-.31-.09s-.23-.04-.37-.04c-.11,0-.21.02-.31.05s-.18.08-.25.14-.13.13-.18.22-.07.18-.07.28c0,.15.04.28.11.39.08.11.18.18.31.22.07.02.14.04.22.07.08.02.17.04.26.05.11.02.2.07.27.14.07.07.1.16.1.26,0,.19-.05.33-.14.42-.1.09-.22.14-.38.14-.11,0-.21-.02-.28-.07-.08-.05-.15-.11-.21-.19-.05-.08-.1-.16-.15-.25s-.07-.18-.1-.25h-.04v.66c.11.05.23.09.36.11s.27.04.42.04c.13,0,.24-.01.36-.04.11-.02.21-.07.3-.13s.16-.14.21-.24c.05-.1.08-.21.08-.34-.01-.17-.06-.31-.17-.43m-2.11.77v-3.25h-.04l-.8.22v.03l.41.16v.69c0,.08,0,.16,0,.21-.07-.02-.16-.04-.24-.06-.09-.02-.18-.02-.28-.02-.19,0-.36.03-.52.1s-.29.15-.4.27c-.11.11-.2.24-.26.39s-.09.31-.09.48c0,.19.02.36.08.51s.13.27.22.37.19.18.31.22c.11.05.24.07.36.07.2,0,.36-.04.5-.12s.25-.21.34-.37h0v.5h.03l.74-.21v-.04c-.06-.02-.13-.05-.21-.08-.08-.02-.13-.05-.15-.07m-.42-.29c-.02.15-.09.26-.19.36s-.22.14-.35.14-.25-.03-.34-.09c-.1-.06-.18-.14-.25-.24s-.11-.21-.15-.34-.05-.26-.05-.4.01-.27.04-.4.07-.25.13-.34c.06-.1.13-.18.23-.24.09-.06.21-.09.33-.09.1,0,.2.04.31.13s.21.19.28.33v1.18h0Z"/>
        <path class="cls-1" d="m14,10.72s0,.08.01.13c0-.04,0-.08-.01-.13h0Zm11.17-1.94v2.15c.4.04.81.07,1.21.11v-2.25h-1.21Zm2.7,0v2.42c.4.05.81.1,1.21.15v-2.57h-1.21Zm-21.73.61v-.61h-1.21v2.96c.44-.08.88-.15,1.33-.22-.08-.17-.13-.37-.13-.6v-.02c0-.71.47-1.18,1.03-1.18s1.04.47,1.04,1.18v.02c0,.11-.01.22-.04.33.41-.05.82-.1,1.24-.15,0,.08,0-.03,0-.18v-.02c0-1.43-.95-2.21-1.94-2.21-.63.01-1.03.3-1.33.7m5.8.28c.51,0,.83.36.9.91h-1.82c.1-.54.42-.91.92-.91m-2.1,1.25v.02s0,.08,0,.11c1.36-.15,2.74-.25,4.16-.33-.1-1.09-.76-2.02-2.06-2.02-1.24,0-2.11,1-2.11,2.22m4.59-.22c.4-.02.8-.04,1.21-.05.1-.51.49-.91,1.01-.91.43,0,.7.18.97.47l.74-.79c-.4-.45-.9-.71-1.7-.71-1.23,0-2.12.88-2.23,1.99m19-1.32c-.22-.43-.65-.68-1.2-.68-.61,0-.98.33-1.26.68v-.6h-1.21v2.66c.4.06.81.12,1.21.19v-.96c0-.57.28-.86.73-.86s.71.3.71.86v1.21c.4.08.81.16,1.21.24v-1.46c0-.57.28-.86.73-.86s.71.3.71.86v1.78c.4.1.81.2,1.21.31v-2.49c0-1.03-.54-1.57-1.44-1.57-.57,0-1.02.24-1.4.68m-10.17.26v-.86h-1.21v1.93c.44.02.87.05,1.31.07.18-.56.6-.83,1.2-.83h.07v-1.26h-.08c-.67,0-1.05.37-1.29.94m-4.11-1.95v1.09h-.51v1.03h.51v.82h.8c.14,0,.27.01.41.02v-.83h1v-1.03h-1v-1.09h-1.21ZM.22,9.08v.02c0,1.11.73,1.41,1.84,1.7.93.24,1.12.4,1.12.71h0c0,.34-.3.54-.8.54-.63,0-1.16-.26-1.66-.68L0,12.24c.19.18.4.32.62.44,1.2-.31,2.44-.58,3.73-.82.04-.14.05-.29.05-.45v-.02c0-.97-.63-1.38-1.76-1.67-.96-.25-1.2-.37-1.2-.73v-.02c0-.27.25-.48.72-.48s.95.21,1.44.55l.63-.92c-.56-.45-1.26-.71-2.07-.71-1.14,0-1.95.66-1.95,1.67"/>
        <path class="cls-1" d="m35.05,13.04h1.21v-.28c-.4-.11-.8-.21-1.21-.31v.59Zm-2.65,0h1.21v-.92c-.4-.08-.8-.16-1.21-.24v1.16Zm-31.78-.37c.54.3,1.14.45,1.74.45,1.03,0,1.79-.45,1.99-1.27-1.29.24-2.53.51-3.73.82m29.13.37h1.21v-1.41c-.4-.07-.8-.13-1.21-.19v1.6Zm-21.59-1.79c-.12.53-.53.85-1,.85-.38,0-.72-.22-.9-.57-.45.07-.89.15-1.33.22v2.57h1.21v-1.83c.28.34.68.63,1.33.63.97,0,1.86-.71,1.93-2.02-.42.05-.83.1-1.24.15m17.01.3c0,.98.53,1.58,1.44,1.58.61,0,.97-.33,1.25-.68v.6h1.21v-1.7c-.4-.05-.8-.1-1.21-.15-.01.55-.3.83-.76.83s-.73-.3-.73-.86v-.12c-.4-.04-.8-.08-1.21-.11v.61Zm-15.33-.49c.05,1.24.98,2.09,2.22,2.09.77,0,1.34-.3,1.74-.79l-.7-.61c-.33.31-.63.44-1.03.44-.54,0-.92-.28-1.04-.83h2.97c0-.11.02-.22.02-.32s0-.2-.02-.3c-1.42.07-2.81.19-4.16.33m12.21,1.99h1.21v-1.58c0-.26.03-.48.1-.68-.43-.03-.86-.05-1.31-.07v2.33Zm-7.63-2.34c0,.07-.01.15-.01.22v.02c0,1.21.94,2.2,2.22,2.2.85,0,1.33-.33,1.74-.78l-.71-.71c-.3.28-.57.45-.98.45-.66,0-1.08-.53-1.08-1.18v-.02c0-.08.01-.17.02-.25-.4.02-.8.04-1.2.05m4.73-.08v1.21c0,.99.5,1.28,1.24,1.28.4,0,.7-.1.95-.25v-.97c-.18.1-.37.15-.6.15-.27,0-.39-.13-.39-.41v-.99c-.14,0-.27-.01-.41-.02h-.79Z"/>
      </g>
      <rect class="cls-2" width="36.26" height="24.83"/>
    </g>
  </g>
</svg>