<?xml version="1.0" encoding="UTF-8"?>
<svg id="Capa_2" data-name="Capa 2" xmlns="http://www.w3.org/2000/svg" viewBox="0 0 36.26 24.83">
  <defs>
    <style>
      .cls-1 {
        fill: #8c98a4;
      }

      .cls-2 {
        fill: none;
      }
    </style>
  </defs>
  <g id="Capa_1-2" data-name="Capa 1">
    <g>
      <polygon class="cls-1" points="21.93 7.21 19.54 7.21 19.54 17.53 26.87 17.53 26.87 15.52 21.93 15.52 21.93 7.21"/>
      <path class="cls-1" d="m32.12,13.6h1.94v1.81c-.36.14-1.06.27-1.72.27-2.15,0-2.86-1.09-2.86-3.31s.68-3.36,2.83-3.36c1.19,0,1.87.37,2.44,1.09l1.48-1.36c-.9-1.29-2.49-1.69-3.97-1.69-3.34,0-5.09,1.82-5.09,5.3s1.58,5.33,5.08,5.33c1.6,0,3.17-.41,4.02-1.01v-5.01h-4.14v1.93Z"/>
      <path class="cls-1" d="m7.98,4.43C3.58,4.43,0,8,0,12.41s3.58,7.99,7.98,7.99,7.96-3.54,7.99-7.92v-.12c-.03-4.38-3.6-7.92-7.99-7.92Zm1.9,10.86v.62h-2.23v-7h.64v6.38h1.59Zm4.78-2.87c0,1.79-.69,3.46-1.96,4.73-1.26,1.26-2.94,1.96-4.73,1.96s-3.46-.7-4.72-1.96c-1.26-1.26-1.96-2.94-1.96-4.73,0-3.66,2.96-6.64,6.6-6.69h.15c.08,0,.19,0,.25,0v.63c-.08,0-.25,0-.32,0-1.62,0-3.14.63-4.29,1.77-1.14,1.14-1.77,2.66-1.77,4.29s.63,3.14,1.77,4.28c1.15,1.15,2.67,1.78,4.29,1.78,3.21,0,5.83-2.5,6.05-5.65,0-.01,0-.08,0-.09h-4.14v-.62h4.77s0,.3,0,.3Zm-8.27-2.55c0,.53-.43.95-.96.95s-.96-.43-.96-.95.43-.96.96-.96.96.43.96.96Z"/>
      <rect class="cls-2" width="36.26" height="24.83"/>
    </g>
  </g>
</svg>