<?xml version="1.0" encoding="UTF-8"?>
<svg id="Capa_2" data-name="Capa 2" xmlns="http://www.w3.org/2000/svg" xmlns:xlink="http://www.w3.org/1999/xlink" viewBox="0 0 41.82 27.3">
  <defs>
    <style>
      .cls-1 {
        fill: url(#Degradado_sin_nombre_13);
      }

      .cls-2 {
        fill: #fff;
      }

      .cls-3 {
        fill: #7c898c;
      }

      .cls-4 {
        fill: #495053;
      }

      .cls-5 {
        fill: #aeb4b5;
      }

      .cls-6 {
        clip-path: url(#clippath-2);
      }

      .cls-7 {
        clip-path: url(#clippath-6);
      }

      .cls-8 {
        clip-path: url(#clippath-7);
      }

      .cls-9 {
        clip-path: url(#clippath-1);
      }

      .cls-10 {
        clip-path: url(#clippath-4);
      }

      .cls-11 {
        fill: url(#Degradado_sin_nombre_9-2);
      }

      .cls-12 {
        fill: #888e8d;
      }

      .cls-13 {
        clip-path: url(#clippath-9);
      }

      .cls-14 {
        clip-path: url(#clippath);
      }

      .cls-15 {
        fill: none;
      }

      .cls-16 {
        clip-path: url(#clippath-3);
      }

      .cls-17 {
        clip-path: url(#clippath-8);
      }

      .cls-18 {
        fill: url(#Degradado_sin_nombre_9);
      }

      .cls-19 {
        fill: url(#Degradado_sin_nombre_8);
      }

      .cls-20 {
        clip-path: url(#clippath-5);
      }

      .cls-21 {
        fill: #838c8e;
      }

      .cls-22 {
        clip-path: url(#clippath-10);
      }

      .cls-23 {
        fill: #34393a;
      }

      .cls-24 {
        fill: url(#Degradado_sin_nombre_7);
      }

      .cls-25 {
        fill: url(#Degradado_sin_nombre_12);
      }
    </style>
    <clipPath id="clippath">
      <path d="m5.55,13.58c0,4.41,3.58,7.99,7.98,7.99s7.96-3.54,7.99-7.92v-.12c-.03-4.38-3.6-7.92-7.99-7.92s-7.98,3.58-7.98,7.99"/>
    </clipPath>
    <clipPath id="clippath-1">
      <path d="m8.13,8.17c-2.67,2.67-2.94,6.74-.6,9.08,2.34,2.34,6.41,2.07,9.08-.6,2.67-2.67,2.94-6.74.6-9.08-1.07-1.07-2.5-1.6-3.99-1.6-1.77,0-3.64.74-5.09,2.2"/>
    </clipPath>
    <clipPath id="clippath-2">
      <path d="m10.02,11.15c0,.59.48,1.06,1.07,1.06s1.07-.48,1.07-1.06-.48-1.07-1.07-1.07-1.07.48-1.07,1.07m3.34-.96h-.03s-.05.02-.05.02l.05.08v6.75s-.2.11-.2.11l.15.11s.06.03.11.03h2.22s.04-.02.04-.05v-.62s0-.06-.02-.07l-.12-.18h-1.45v-6.14s0-.05,0-.05l-.11-.18-.6.2Zm.25-3.34l-.17.05c-3.75,0-6.56,3.14-6.56,6.87,0,1.81.71,3.51,2,4.79,1.28,1.28,2.99,1.93,4.8,1.93s3.54-.69,4.82-1.97c1.29-1.28,1.99-2.98,1.99-4.79v-.39l-.16-.14h-4.94v.79l.12.16s.01.02.04.02h4.13c-.21,3.13-2.85,5.57-6,5.57-1.61,0-3.11-.62-4.25-1.75-1.13-1.13-1.76-2.63-1.76-4.23s.59-3.13,1.72-4.26c1.14-1.13,2.58-1.72,4.29-1.76h.32s.04,0,.04,0c.02,0,.04,0,.04-.05v-.65s-.02-.07-.02-.07l-.15-.18-.33.05Z"/>
    </clipPath>
    <clipPath id="clippath-3">
      <polygon class="cls-15" points="13.78 10.14 13.78 16.51 13.96 16.37 13.96 9.99 13.78 10.14"/>
    </clipPath>
    <linearGradient id="Degradado_sin_nombre_13" data-name="Degradado sin nombre 13" x1="-3395.56" y1="-460.17" x2="-3395.49" y2="-460.17" gradientTransform="translate(9244.95 -1237.78) scale(2.72 -2.72)" gradientUnits="userSpaceOnUse">
      <stop offset="0" stop-color="#aeb4b5"/>
      <stop offset=".17" stop-color="#8f9495"/>
      <stop offset=".57" stop-color="#4e5152"/>
      <stop offset=".85" stop-color="#252728"/>
      <stop offset="1" stop-color="#161718"/>
    </linearGradient>
    <clipPath id="clippath-4">
      <polygon class="cls-15" points="15.37 16.52 15.37 17 15.52 17.16 15.52 16.37 15.37 16.52"/>
    </clipPath>
    <linearGradient id="Degradado_sin_nombre_9" data-name="Degradado sin nombre 9" x1="-3145.46" y1="-463.01" x2="-3145.39" y2="-463.01" gradientTransform="translate(7541.82 -1091.12) scale(2.39 -2.39)" gradientUnits="userSpaceOnUse">
      <stop offset="0" stop-color="#b3b6b3"/>
      <stop offset=".17" stop-color="#949795"/>
      <stop offset=".57" stop-color="#535556"/>
      <stop offset=".85" stop-color="#2b2b2f"/>
      <stop offset="1" stop-color="#1c1c20"/>
    </linearGradient>
    <clipPath id="clippath-5">
      <path class="cls-15" d="m10.1,11.03c0-.49.4-.89.89-.89s.89.4.89.89-.4.88-.89.88-.89-.4-.89-.88m-.15,0c0,.57.47,1.04,1.04,1.04s1.04-.47,1.04-1.04-.47-1.04-1.04-1.04-1.04.47-1.04,1.04"/>
    </clipPath>
    <linearGradient id="Degradado_sin_nombre_12" data-name="Degradado sin nombre 12" x1="-5175.42" y1="-389.73" x2="-5175.36" y2="-389.73" gradientTransform="translate(-12435.65 165294.69) rotate(90) scale(31.94)" gradientUnits="userSpaceOnUse">
      <stop offset="0" stop-color="#a5b1b3"/>
      <stop offset="1" stop-color="#0f0f10"/>
    </linearGradient>
    <clipPath id="clippath-6">
      <path class="cls-15" d="m6.77,13.57c0,1.81.7,3.51,1.98,4.79,1.28,1.28,2.97,1.98,4.78,1.98s3.52-.71,4.79-1.98c1.28-1.28,1.98-2.98,1.98-4.79v-.39l-.16.16v.23c0,1.77-.69,3.43-1.93,4.68-1.25,1.25-2.91,1.94-4.68,1.94s-3.42-.69-4.67-1.94c-1.25-1.25-1.94-2.91-1.94-4.68,0-3.65,2.96-6.61,6.61-6.61h.25s.15-.15.15-.15h-.41c-3.73,0-6.76,3.03-6.76,6.77"/>
    </clipPath>
    <linearGradient id="Degradado_sin_nombre_7" data-name="Degradado sin nombre 7" x1="-5283.23" y1="-301.29" x2="-5283.17" y2="-301.29" gradientTransform="translate(-63041.49 1105694.49) rotate(90) scale(209.28)" gradientUnits="userSpaceOnUse">
      <stop offset="0" stop-color="#aeb4b5"/>
      <stop offset="1" stop-color="#202224"/>
    </linearGradient>
    <clipPath id="clippath-7">
      <path class="cls-15" d="m13.45,7.45c-1.6.02-3.1.66-4.25,1.79-1.15,1.16-1.79,2.7-1.79,4.34s.64,3.18,1.79,4.33c1.14,1.14,2.65,1.78,4.26,1.8h.16c3.18-.04,5.82-2.54,6.04-5.72v-.17s-.07.07-.07.07l-.08.09c-.21,3.13-2.83,5.57-5.96,5.57-1.6,0-3.1-.62-4.23-1.75-1.13-1.13-1.75-2.63-1.75-4.22s.62-3.1,1.75-4.23c1.13-1.13,2.63-1.75,4.23-1.75h.4s-.16-.15-.16-.15h-.17s-.16,0-.16,0Z"/>
    </clipPath>
    <linearGradient id="Degradado_sin_nombre_8" data-name="Degradado sin nombre 8" x1="-5329.98" y1="-287.8" x2="-5329.91" y2="-287.8" gradientTransform="translate(-1001182.25 -54048.05) rotate(-180) scale(187.84)" gradientUnits="userSpaceOnUse">
      <stop offset="0" stop-color="#aeb4b5"/>
      <stop offset="1" stop-color="#2b2f31"/>
    </linearGradient>
    <clipPath id="clippath-8">
      <polygon class="cls-15" points="13.79 6.96 13.79 7.45 13.94 7.6 13.94 6.81 13.79 6.96"/>
    </clipPath>
    <linearGradient id="Degradado_sin_nombre_9-2" data-name="Degradado sin nombre 9" x1="-3115.24" y1="-522.29" x2="-3115.17" y2="-522.29" gradientTransform="translate(7397.83 -1230.78) scale(2.37 -2.37)" xlink:href="#Degradado_sin_nombre_9"/>
    <clipPath id="clippath-9">
      <path class="cls-2" d="m13.22,10.07v7h2.23v-.62h-1.59v-6.38h-.64Zm.23-3.18c-3.64.04-6.6,3.03-6.6,6.69,0,1.79.7,3.46,1.96,4.73,1.26,1.26,2.94,1.96,4.72,1.96s3.47-.7,4.73-1.96c1.26-1.26,1.96-2.94,1.96-4.73v-.3h-.26s-4.51,0-4.51,0v.62h4.14s0,.08,0,.09c-.21,3.15-2.84,5.65-6.05,5.65-1.62,0-3.14-.63-4.29-1.78-1.14-1.14-1.77-2.66-1.77-4.28s.63-3.14,1.77-4.29c1.15-1.14,2.67-1.77,4.29-1.77.07,0,.24,0,.32,0v-.63c-.06,0-.17,0-.25,0h-.15Z"/>
    </clipPath>
    <clipPath id="clippath-10">
      <path class="cls-2" d="m10.03,11.03c0,.53.43.95.96.95s.96-.43.96-.95-.43-.96-.96-.96-.96.43-.96.96"/>
    </clipPath>
  </defs>
  <g id="Capa_1-2" data-name="Capa 1">
    <g>
      <g>
        <polygon points="27.49 8.37 25.1 8.37 25.1 18.7 32.43 18.7 32.43 16.69 27.49 16.69 27.49 8.37"/>
        <path d="m37.68,14.76h1.94v1.81c-.36.14-1.06.27-1.72.27-2.15,0-2.86-1.09-2.86-3.31s.68-3.36,2.83-3.36c1.19,0,1.87.37,2.44,1.09l1.48-1.36c-.9-1.29-2.49-1.69-3.97-1.69-3.34,0-5.09,1.82-5.09,5.3s1.58,5.33,5.08,5.33c1.6,0,3.17-.41,4.02-1.01v-5.01h-4.14v1.93Z"/>
        <g>
          <path d="m5.55,13.58c0,4.41,3.58,7.99,7.98,7.99s7.96-3.54,7.99-7.92v-.12c-.03-4.38-3.6-7.92-7.99-7.92s-7.98,3.58-7.98,7.99"/>
          <g class="cls-14">
            <rect x="5.55" y="5.59" width="15.97" height="15.97"/>
          </g>
        </g>
        <g>
          <path d="m8.13,8.17c-2.67,2.67-2.94,6.74-.6,9.08,2.34,2.34,6.41,2.07,9.08-.6,2.67-2.67,2.94-6.74.6-9.08-1.07-1.07-2.5-1.6-3.99-1.6-1.77,0-3.64.74-5.09,2.2"/>
          <g class="cls-9">
            <rect x="3.3" y="3.93" width="18.16" height="17.71" transform="translate(-3.63 5) rotate(-20)"/>
          </g>
        </g>
        <g>
          <path d="m10.02,11.15c0,.59.48,1.06,1.07,1.06s1.07-.48,1.07-1.06-.48-1.07-1.07-1.07-1.07.48-1.07,1.07m3.34-.96h-.03s-.05.02-.05.02l.05.08v6.75s-.2.11-.2.11l.15.11s.06.03.11.03h2.22s.04-.02.04-.05v-.62s0-.06-.02-.07l-.12-.18h-1.45v-6.14s0-.05,0-.05l-.11-.18-.6.2Zm.25-3.34l-.17.05c-3.75,0-6.56,3.14-6.56,6.87,0,1.81.71,3.51,2,4.79,1.28,1.28,2.99,1.93,4.8,1.93s3.54-.69,4.82-1.97c1.29-1.28,1.99-2.98,1.99-4.79v-.39l-.16-.14h-4.94v.79l.12.16s.01.02.04.02h4.13c-.21,3.13-2.85,5.57-6,5.57-1.61,0-3.11-.62-4.25-1.75-1.13-1.13-1.76-2.63-1.76-4.23s.59-3.13,1.72-4.26c1.14-1.13,2.58-1.72,4.29-1.76h.32s.04,0,.04,0c.02,0,.04,0,.04-.05v-.65s-.02-.07-.02-.07l-.15-.18-.33.05Z"/>
          <g class="cls-6">
            <rect x="4.04" y="4" width="19.3" height="19.3" transform="translate(-5.64 13.68) rotate(-45)"/>
          </g>
        </g>
        <polygon class="cls-4" points="13.29 17 13.13 17.16 15.52 17.16 15.37 17 13.29 17"/>
        <polygon class="cls-3" points="15.37 16.52 15.52 16.37 13.96 16.37 13.77 16.52 15.37 16.52"/>
        <polygon class="cls-12" points="13.96 9.99 13.13 9.99 13.28 10.14 13.78 10.14 13.96 9.99"/>
        <g class="cls-16">
          <rect class="cls-1" x="13.78" y="9.99" width=".18" height="6.52"/>
        </g>
        <g class="cls-10">
          <rect class="cls-18" x="15.37" y="16.37" width=".16" height=".79"/>
        </g>
        <polygon class="cls-5" points="13.13 9.99 13.13 17.16 13.29 17 13.28 10.14 13.13 9.99"/>
        <g class="cls-20">
          <rect class="cls-25" x="9.52" y="9.55" width="2.95" height="2.95" transform="translate(-4.58 11) rotate(-45)"/>
        </g>
        <polygon class="cls-23" points="19.66 13.82 15.52 13.82 15.36 13.98 19.5 13.98 19.58 13.89 19.66 13.82"/>
        <polygon class="cls-21" points="15.52 13.35 20.15 13.34 20.31 13.18 15.36 13.19 15.52 13.35"/>
        <g class="cls-7">
          <rect class="cls-24" x="3.97" y="4" width="19.15" height="19.15" transform="translate(-5.63 13.55) rotate(-45)"/>
        </g>
        <g class="cls-8">
          <rect class="cls-19" x="7.41" y="7.45" width="12.25" height="12.26"/>
        </g>
        <polygon class="cls-5" points="15.52 13.35 15.36 13.19 15.36 13.98 15.52 13.82 15.52 13.35"/>
        <g class="cls-17">
          <rect class="cls-11" x="13.79" y="6.81" width=".15" height=".8"/>
        </g>
        <g>
          <path class="cls-2" d="m13.22,10.07v7h2.23v-.62h-1.59v-6.38h-.64Zm.23-3.18c-3.64.04-6.6,3.03-6.6,6.69,0,1.79.7,3.46,1.96,4.73,1.26,1.26,2.94,1.96,4.72,1.96s3.47-.7,4.73-1.96c1.26-1.26,1.96-2.94,1.96-4.73v-.3h-.26s-4.51,0-4.51,0v.62h4.14s0,.08,0,.09c-.21,3.15-2.84,5.65-6.05,5.65-1.62,0-3.14-.63-4.29-1.78-1.14-1.14-1.77-2.66-1.77-4.28s.63-3.14,1.77-4.29c1.15-1.14,2.67-1.77,4.29-1.77.07,0,.24,0,.32,0v-.63c-.06,0-.17,0-.25,0h-.15Z"/>
          <g class="cls-13">
            <rect class="cls-2" x="6.85" y="6.89" width="13.37" height="13.37"/>
          </g>
        </g>
        <g>
          <path class="cls-2" d="m10.03,11.03c0,.53.43.95.96.95s.96-.43.96-.95-.43-.96-.96-.96-.96.43-.96.96"/>
          <g class="cls-22">
            <rect class="cls-2" x="10.03" y="10.07" width="1.92" height="1.91"/>
          </g>
        </g>
        <path class="cls-2" d="m11.16,10.24c.22,0,.42.08.58.2-.17-.23-.45-.38-.75-.38-.53,0-.96.43-.96.96,0,.31.15.57.37.75-.12-.16-.2-.36-.2-.58,0-.53.43-.96.96-.96"/>
        <path class="cls-2" d="m13.85,6.89c-.08,0-.24,0-.32,0-3.68,0-6.68,3-6.68,6.69,0,1.79.7,3.46,1.96,4.73.04.04.08.08.12.12-1.19-1.25-1.85-2.88-1.85-4.61,0-3.68,2.6-6.73,6.77-6.92"/>
        <path class="cls-2" d="m13.85,16.45s.46.13,1.59.13v-.13h-1.59Z"/>
        <path class="cls-2" d="m13.85,10.27v-.2h-.64v7s.2-1.06.2-6.8h.44Z"/>
        <path class="cls-2" d="m20.22,13.27h-4.77v.62h.17v-.45c4.16,0,4.6-.17,4.6-.17"/>
        <path class="cls-2" d="m19.58,13.89s0,.08,0,.09c-.21,3.15-2.84,5.65-6.05,5.65-1.62,0-3.14-.63-4.29-1.78-.75-.75-1.27-1.66-1.55-2.65.72,2.61,3.1,4.5,5.94,4.5,3.04,0,5.85-2.38,6.02-5.82h-.08Z"/>
      </g>
      <rect class="cls-15" x="5.55" y="1.16" width="36.26" height="24.83"/>
    </g>
  </g>
</svg>