<?xml version="1.0" encoding="UTF-8"?>
<svg id="Capa_2" data-name="Capa 2" xmlns="http://www.w3.org/2000/svg" viewBox="0 0 36.26 24.83">
  <defs>
    <style>
      .cls-1 {
        fill-rule: evenodd;
      }

      .cls-1, .cls-2 {
        fill: #8c98a4;
      }

      .cls-3 {
        fill: none;
      }
    </style>
  </defs>
  <g id="Capa_1-2" data-name="Capa 1">
    <g>
      <g>
        <g>
          <path class="cls-1" d="m20.59,5.77c-1.05-.2-2.4-.11-3.88.19-4.45,1.1-8.23,3.86-10.46,6.13-1.03,1.05-1.59,2-1.78,2.79,2.7-5.03,10.6-9.15,16.13-9.09h0Z"/>
          <path class="cls-1" d="m11.58,13.42h1.58l.91-1.06-.2,1.06h3.77s-4.14,2.11-4.14,2.11l-.35,1.97-.61-.67-4.08,2.13.64-.75,2.13-1.11-.52-.57c-.13.09-.26.17-.39.26l1.08-1.26-1.99-2.03h2.15v-.08h0Zm3.5-2.22l-.41,2.22h3.77s-4.14,2.11-4.14,2.11l-.48,2.69.66.72.61-3.41,4.14-2.11h-3.77s.62-3.39.62-3.39l-1,1.16Z"/>
          <path class="cls-1" d="m10.2,13.42h1.38s-1.38,0-1.38,0h0Zm3.68,0h.07l.92-1.06-.2,1.06h3.77s-4.14,2.11-4.14,2.11l-.35,1.97-.61-.67-.07.04.24-1.34,4.14-2.11h-3.77Zm1.99-2.23l-.41,2.22h3.77s-4.14,2.11-4.14,2.11l-.48,2.69.66.72.61-3.41,4.14-2.11h-3.77s.62-3.39.62-3.39l-1,1.16h0Zm-3.06,5.91l-3.55,1.85.64-.75,2.65-1.39.26.28h0Zm-2.27.36l.7-.37-.2-.22-.5.58Z"/>
          <path class="cls-1" d="m14.29,11.19l1-1.16-.62,3.39h3.77s-4.14,2.11-4.14,2.11l-.61,3.41-.66-.72.48-2.69,4.14-2.11h-3.77s.41-2.23.41-2.23h0Zm-3.05,5.91l-3.56,1.86,1.02-1.19c.64-.36,1.31-.76,2.02-1.23l.52.57Z"/>
          <path class="cls-1" d="m21.11,5.15C-2.92,4.63-6.51,27.96,10.72,16.53l2.18,2.4.61-3.41,4.14-2.11h-3.77s.62-3.39.62-3.39l-2.92,3.39h-3.75l2.1,2.21h0c-4.43,3.22-7.78.63-3.68-3.55,2.95-3,8.7-6.6,14.86-6.9v-.03Z"/>
          <path class="cls-1" d="m23.97,18.88l1.41-5.26h.66l-.26.97c.35-.35.74-.62,1.15-.8.42-.18.86-.27,1.33-.27.51,0,.9.09,1.17.27.51.33.5.75.38,1.26l-.21.85-.8,2.99h-.62l.79-2.95c.18-.67.19-1.13.05-1.4-.15-.26-.49-.39-1.02-.39-.6,0-1.14.16-1.61.49-.48.33-.78.75-.92,1.26l-.8,2.99h-.68Z"/>
          <path class="cls-1" d="m23.27,18.82h-.52c-.23-.01-.36-.13-.43-.25-.07-.12-.08-.33-.02-.64-.37.32-.75.55-1.13.7-.39.15-.83.22-1.32.22-.63,0-1.07-.13-1.34-.4-.27-.27-.33-.65-.2-1.15.06-.23.16-.44.3-.62.14-.19.32-.34.54-.48.17-.11.39-.19.65-.26.26-.07.7-.15,1.31-.23.13-.02.32-.04.55-.07.87-.1,1.35-.35,1.46-.73.08-.28.01-.5-.19-.65-.2-.15-.54-.22-1.01-.22-.59,0-1.06.1-1.42.3-.36.2-.6.5-.74.9h-.67c.2-.61.54-1.06,1.03-1.36.48-.3,1.11-.45,1.88-.45.49,0,.87.05,1.15.15.28.1.47.26.59.48.07.13.1.29.1.46,0,.17-.05.44-.15.8l-.08.29-.54,2.01c-.06.23-.08.37-.05.43.02.06.09.09.2.09.05,0,.27-.03.26.02l-.2.68h0Zm-.44-2.9c-.14.07-.35.13-.61.19-.26.06-.69.13-1.28.22-.78.12-1.28.24-1.51.38-.23.13-.39.34-.46.61-.07.28-.02.5.18.67.2.17.5.25.91.25.64,0,1.19-.15,1.67-.45.48-.3.78-.69.91-1.16l.02-.08.17-.62Z"/>
          <path class="cls-1" d="m35.03,17.05c-.28.54-.68.98-1.21,1.3-.53.32-1.11.48-1.73.48-.8,0-1.38-.25-1.74-.74-.36-.49-.43-1.14-.21-1.95.21-.8.63-1.44,1.26-1.94.62-.49,1.33-.74,2.13-.74s1.38.24,1.74.73c.36.48.42,1.13.21,1.94l-.04.15h-4.62c-.12.61-.06,1.07.19,1.4.25.33.67.5,1.26.5.43,0,.82-.1,1.17-.3.36-.2.64-.48.86-.84h.74Zm-4.06-1.31h3.86c.1-.5.01-.9-.26-1.2-.27-.3-.67-.45-1.21-.45s-1.04.15-1.47.45c-.43.3-.74.7-.92,1.2Z"/>
          <path class="cls-1" d="m23.66,18.88l1.4-5.26h.66l-.26.97c.35-.35.73-.62,1.15-.81.42-.18.86-.27,1.32-.27.5,0,.89.09,1.16.27.27.18.43.45.48.81l-.32,1.3-.8,3h-.62l.79-2.96c.18-.67.19-1.14.04-1.4-.15-.26-.49-.39-1.02-.39-.59,0-1.13.16-1.6.49-.47.33-.78.75-.91,1.26l-.8,3h-.68Z"/>
          <path class="cls-1" d="m22.98,18.82h-.52c-.23-.01-.35-.13-.43-.25-.07-.12-.08-.34-.02-.64-.37.32-.74.55-1.13.7-.38.15-.82.22-1.31.22-.62,0-1.06-.14-1.33-.41-.26-.27-.33-.65-.2-1.15.06-.23.16-.44.3-.62.14-.19.32-.34.53-.48.17-.11.38-.19.65-.26.26-.07.69-.15,1.3-.23.13-.02.31-.04.55-.07.86-.1,1.34-.35,1.45-.73.08-.28.01-.5-.19-.65-.2-.15-.54-.22-1-.22-.59,0-1.06.1-1.41.3-.36.2-.6.5-.73.9h-.67c.2-.61.54-1.06,1.02-1.36.48-.3,1.1-.45,1.87-.45.49,0,.87.05,1.14.15.27.1.47.26.58.48.07.13.1.29.1.46,0,.17-.05.44-.14.8l-.08.29-.53,2.01c-.06.23-.08.37-.05.43.02.06.09.09.19.09.05,0,.27-.03.26.02l-.2.69h0Zm-.44-2.9c-.14.07-.34.13-.61.19-.26.06-.69.13-1.27.22-.77.12-1.27.24-1.5.38-.23.14-.38.34-.46.61-.07.28-.01.5.18.67.19.17.49.25.9.25.63,0,1.19-.15,1.66-.45.47-.3.78-.69.9-1.16l.02-.08.17-.62Z"/>
          <path class="cls-1" d="m34.66,17.05c-.28.55-.68.98-1.2,1.3-.53.32-1.1.48-1.72.48-.79,0-1.37-.25-1.73-.74-.35-.49-.43-1.14-.21-1.95.21-.8.63-1.45,1.25-1.94.62-.49,1.33-.74,2.12-.74s1.37.24,1.72.73c.35.49.42,1.13.21,1.94l-.04.15h-4.59c-.12.61-.06,1.08.19,1.41.25.33.67.5,1.25.5.42,0,.81-.1,1.17-.3.35-.2.64-.48.86-.84h.73Zm-4.03-1.32h3.83c.1-.5.01-.9-.26-1.2-.27-.3-.67-.45-1.2-.45s-1.03.15-1.46.45c-.43.3-.73.7-.91,1.2Z"/>
        </g>
        <g>
          <path class="cls-2" d="m35.85,12.95s-.02-.01-.03-.02c.05,0,.08-.03.1-.05.03-.03.04-.06.04-.11,0-.03,0-.06-.02-.09-.02-.03-.04-.05-.07-.06-.03-.01-.07-.02-.12-.02h-.26v.58h.09v-.25h.08s.03,0,.04,0c.01,0,.02,0,.03.01.01,0,.02.02.04.04.01.02.03.04.05.08l.08.12h.11l-.11-.17s-.04-.06-.06-.08Zm.03-.18s0,.03-.01.05c0,.01-.02.02-.04.03-.02,0-.04.01-.08.01h-.16v-.17h.17s.07,0,.09.02c.02.02.03.04.03.06Z"/>
          <path class="cls-2" d="m35.74,12.38c-.29,0-.53.23-.53.52s.24.52.53.52.53-.23.53-.52-.24-.52-.53-.52Zm.45.52c0,.25-.2.45-.45.45s-.45-.2-.45-.45.2-.45.45-.45.45.2.45.45Z"/>
        </g>
      </g>
      <rect class="cls-3" width="36.26" height="24.83"/>
    </g>
  </g>
</svg>