<?xml version="1.0" encoding="UTF-8"?>
<svg id="Capa_2" data-name="Capa 2" xmlns="http://www.w3.org/2000/svg" viewBox="0 0 36.26 24.83">
  <defs>
    <style>
      .cls-1 {
        fill: #8c98a4;
      }

      .cls-2 {
        fill: none;
      }
    </style>
  </defs>
  <g id="Capa_1-2" data-name="Capa 1">
    <g>
      <g>
        <g>
          <path class="cls-1" d="m9.09,7.83h-4.4s-.05,0-.05,0C2.12,7.83,0,9.93,0,12.41s2.1,4.59,4.69,4.59,4.69-2.06,4.69-4.59v-4.29c0-.16-.13-.29-.29-.29m0,4.59c0,2.37-1.97,4.29-4.4,4.29S.29,14.79.29,12.41s1.99-4.29,4.34-4.29c.02,0,.04,0,.05,0s.04,0,.05,0h4.34v4.29Z"/>
          <path class="cls-1" d="m4.78,8.55c-2.16,0-3.92,1.74-3.92,3.88s1.76,3.88,3.92,3.88,3.92-1.74,3.92-3.88-1.76-3.88-3.92-3.88Zm0,7.47c-2,0-3.63-1.61-3.63-3.59s1.63-3.59,3.63-3.59,3.63,1.61,3.63,3.59-1.63,3.59-3.63,3.59Z"/>
          <g>
            <path class="cls-1" d="m6.3,11.35s0,0-.01,0c0,0-.01,0-.02,0,0,0-.01,0-.02,0,0,0-.01,0-.02,0h-.53l-.16.58h.54s.02,0,.03,0c0,0,.01,0,.02,0,0,0,.01,0,.02-.01,0,0,.01,0,.02-.01,0,0,0,0,0-.02,0,0,0-.01.01-.02,0,0,0-.01,0-.02,0,0,0-.02,0-.03l.1-.38s0-.01,0-.02c0,0,0-.01,0-.02,0,0,0,0,0-.01,0,0,0,0,0-.01Z"/>
            <path class="cls-1" d="m4.78,9.47c-1.65,0-2.99,1.32-2.99,2.95s1.34,2.95,2.99,2.95,2.99-1.32,2.99-2.95-1.34-2.95-2.99-2.95Zm-.66,3.41s-.01.04-.02.06c0,.02-.02.04-.03.06-.01.02-.02.04-.03.06-.01.02-.02.04-.04.05-.01.02-.02.03-.03.04-.01.01-.03.03-.05.04-.02.02-.03.03-.05.04-.01.01-.03.02-.05.03-.02.01-.03.02-.05.03-.02.01-.03.02-.05.03-.02,0-.04.02-.06.02-.03,0-.05.01-.07.02-.03,0-.05.01-.08.01-.03,0-.06,0-.09,0-.03,0-.06,0-.09,0h-1.22l.11-.41h.81s.03,0,.05,0c.02,0,.03,0,.04-.01.03-.01.05-.03.07-.05,0,0,.02-.02.03-.03,0-.01.01-.02.02-.03,0,0,0-.02.01-.03,0-.01,0-.03.01-.03l.5-1.87h.87l-.51,1.89s0,.04-.02.06Zm3.05-1.43l-.13.51s0,.02-.01.04c0,.01,0,.02,0,.03,0,.01,0,.03-.01.04,0,.01-.01.03-.02.04,0,.01-.01.02-.02.04,0,.01-.01.02-.02.03,0,0-.01.02-.03.03-.01.01-.02.02-.03.03,0,0-.01.01-.02.02,0,0-.02.01-.03.02-.01,0-.02,0-.03.02-.01,0-.02,0-.03.01-.01,0-.03.01-.04.01-.01,0-.03,0-.04,0-.02,0-.03,0-.05,0-.02,0-.03,0-.05,0l.21,1.07h-.97l-.13-1.07h-.28l-.29,1.07h-.87l.66-2.47h1.87s.09,0,.12,0c.04,0,.07.02.1.03.03.01.05.03.08.04.02.02.04.04.06.06,0,0,.01.02.02.04,0,.01,0,.03.01.04,0,.02,0,.03,0,.05,0,.02,0,.04,0,.05,0,.03,0,.06-.01.09,0,.03-.01.07-.02.1Z"/>
          </g>
        </g>
        <g>
          <polygon class="cls-1" points="13.36 11.11 13.21 11.71 10.06 11.71 10.97 8.08 12.36 8.08 11.6 11.11 13.36 11.11"/>
          <polygon class="cls-1" points="15.99 8.08 15.09 11.71 13.7 11.71 14.61 8.08 15.99 8.08"/>
          <path class="cls-1" d="m19.77,8.08l-.15.6h-1.55c-.18,0-.29.08-.33.23l-.49,1.98s-.01.06-.01.08c0,.1.08.15.23.15h1.55l-.15.6h-2.31c-.47,0-.7-.21-.7-.63,0-.11.02-.24.05-.38l.4-1.62c.08-.32.22-.57.41-.74.19-.17.44-.26.74-.26h2.31Z"/>
          <path class="cls-1" d="m23.92,9.08l-.4,1.62c-.08.33-.22.58-.41.75-.19.17-.43.26-.74.26h-2.13c-.47,0-.7-.21-.7-.63,0-.11.02-.24.05-.38l.4-1.62c.08-.32.22-.57.41-.74.19-.17.44-.26.74-.26h2.13c.23,0,.41.05.52.16.12.11.17.26.17.46,0,.1-.02.23-.06.39m-1.34-.18s.01-.06.01-.08c0-.1-.08-.15-.23-.15h-.6c-.18,0-.29.08-.33.23l-.49,1.98s-.01.06-.01.08c0,.1.08.15.23.15h.6c.19,0,.3-.08.33-.23l.49-1.98Z"/>
          <path class="cls-1" d="m28.32,8.88l-.18.7c-.04.18-.11.31-.2.39-.11.11-.28.16-.49.16l.37,1.58h-1.52l-.27-1.58h-.43l-.39,1.58h-1.39l.91-3.64h2.89c.25,0,.44.04.56.11.12.08.18.2.18.39,0,.08-.01.18-.04.31m-1.39,0s.02-.08.02-.1c0-.07-.06-.1-.17-.1h-.81l-.21.85h.81c.08,0,.14-.01.17-.04.03-.03.06-.08.08-.16l.11-.44Z"/>
          <polygon class="cls-1" points="32.24 8.08 32.09 8.68 30.33 8.68 30.12 9.53 31.73 9.53 31.58 10.13 29.97 10.13 29.72 11.11 31.48 11.11 31.34 11.71 28.19 11.71 29.1 8.08 32.24 8.08"/>
          <path class="cls-1" d="m36.23,8.08l-.15.6h-1.91c-.1,0-.17,0-.2.03-.03.02-.06.06-.08.12l-.06.23c-.01.05,0,.09.03.11.03.02.09.03.18.03h1.03c.24,0,.42.04.55.12.13.08.19.21.19.38,0,.05,0,.12-.03.2l-.24.95c-.14.57-.49.86-1.03.86h-2.68l.15-.6h1.94c.09,0,.15-.01.18-.03.03-.02.06-.06.07-.12l.06-.25s.01-.05.01-.06c0-.06-.07-.1-.2-.1h-1.19c-.4,0-.6-.14-.6-.43,0-.09.02-.2.05-.33l.22-.87c.06-.24.17-.43.32-.59.17-.17.38-.25.62-.25h2.76Z"/>
          <path class="cls-1" d="m14.45,12.24l-.73,2.91c-.1.38-.26.66-.48.84-.22.18-.55.27-.98.27h-2.23l.16-.67h1.49c.14,0,.25-.03.32-.1.08-.06.14-.18.18-.35l.73-2.91h1.53Z"/>
          <path class="cls-1" d="m19.42,12.24l-.71,2.83c-.11.43-.26.74-.47.92-.2.18-.5.27-.88.27h-2.18c-.26,0-.46-.06-.59-.17-.15-.13-.23-.32-.23-.57,0-.14.02-.29.06-.45l.71-2.83h1.53l-.75,2.99c-.01.05-.02.1-.02.14,0,.15.09.23.28.23h1.36c.14,0,.24-.02.3-.06.06-.04.1-.13.14-.26l.76-3.03h.67Z"/>
          <polygon class="cls-1" points="24.43 12.24 23.43 16.26 21.44 16.26 20.61 12.93 19.77 16.26 19.1 16.26 20.11 12.24 22.11 12.24 22.93 15.52 23.77 12.24 24.43 12.24"/>
          <polygon class="cls-1" points="26.66 12.24 25.65 16.26 24.12 16.26 25.12 12.24 26.66 12.24"/>
          <path class="cls-1" d="m31.34,13.35l-.45,1.8c-.09.36-.24.64-.45.83-.21.19-.48.29-.82.29h-2.35c-.52,0-.77-.23-.77-.69,0-.12.02-.26.06-.42l.45-1.8c.09-.36.24-.63.45-.82.21-.19.49-.29.82-.29h2.35c.26,0,.45.06.58.18.13.12.19.29.19.51,0,.11-.02.25-.06.43m-1.48-.2s.01-.07.01-.09c0-.11-.08-.16-.25-.16h-.67c-.2,0-.32.08-.36.25l-.55,2.19s-.01.07-.01.09c0,.11.08.16.25.16h.67c.21,0,.33-.08.36-.25l.55-2.19Z"/>
          <path class="cls-1" d="m36.21,13.13l-.2.77c-.05.2-.12.34-.22.43-.13.12-.31.18-.55.18l.41,1.75h-1.68l-.3-1.75h-.47l-.43,1.75h-1.53l1.01-4.02h3.19c.28,0,.48.04.62.13.13.08.2.23.2.43,0,.08-.02.2-.05.34m-1.53,0s.02-.08.02-.11c0-.08-.06-.11-.19-.11h-.89l-.23.94h.89c.09,0,.15-.02.19-.05.04-.03.07-.09.09-.18l.12-.49Z"/>
        </g>
      </g>
      <rect class="cls-2" width="36.26" height="24.83"/>
    </g>
  </g>
</svg>