<?xml version="1.0" encoding="UTF-8"?>
<svg id="Capa_2" data-name="Capa 2" xmlns="http://www.w3.org/2000/svg" viewBox="0 0 36.26 24.83">
  <defs>
    <style>
      .cls-1 {
        fill: #8c98a4;
      }

      .cls-2 {
        fill: none;
      }
    </style>
  </defs>
  <g id="Capa_1-2" data-name="Capa 1">
    <g>
      <g>
        <path class="cls-1" d="m16.84,12.67c0,.44-.37.8-.82.8s-.82-.36-.82-.8.37-.8.82-.8.82.36.82.8"/>
        <path class="cls-1" d="m10.87,15.3c.38,0,.64.01.96-.22.16-.13.3-.33.3-.59V5.21h-.57c-.26,0-.46.08-.67.24-.14.14-.24.34-.24.56v9.29h.22Z"/>
        <path class="cls-1" d="m31.59,9.07c-.3-.16-.59-.21-.93-.21-.58,0-1.01.21-1.48.74v-.57h-.69c-.17,0-.37.08-.51.19-.16.13-.28.36-.28.6v5.49h.16c.37,0,.64-.02.96-.25.4-.33.35-1.06.35-1.06v-1.93c0-1.24.51-1.64,1.2-1.8.59-.14,1.09.07,1.49.43v-1.05c0-.32-.13-.47-.29-.56"/>
        <path class="cls-1" d="m18.97,5.02c-.26,0-.46.08-.66.24-.14.14-.24.34-.24.55v3.76c-.43-.61-1.35-.92-2.06-.92-1.73,0-3.04,1.4-3.03,3.25,0,.32.03.62.1.91.17.74.54,1.36,1.07,1.79.53.43,1.2.68,1.95.68h0c.73,0,1.23-.2,1.84-.73v.74h.13s.22,0,.22,0c.37,0,.64.02.96-.22.16-.13.29-.33.29-.59V5.02h-.57Zm-2.78,8.99c-.85,0-1.48-.57-1.69-1.44-.04-.18-.06-.37-.06-.57,0-1.17.76-2.03,1.77-2.02.89,0,1.53.56,1.73,1.43.04.17.06.36.06.56,0,1.22-.74,2.04-1.81,2.04"/>
        <path class="cls-1" d="m8.91,9.01l.02.07-.02-.07s-.04,0-.05,0c-.6,0-.73.41-.75.63-.6-.56-1.16-.8-1.92-.79-1.74,0-3.04,1.4-3.02,3.25,0,.32.04.62.1.91.17.73.55,1.35,1.07,1.79.53.44,1.2.68,1.95.68h0c.73,0,1.23-.2,1.84-.73v.55h.39c.34,0,.62,0,.93-.22.15-.12.25-.33.25-.59v-5.47h-.79Zm-4.21,3.74c-.04-.18-.06-.37-.06-.57,0-1.17.75-2.03,1.76-2.02.89,0,1.53.56,1.74,1.43.04.17.06.36.06.56,0,1.22-.73,2.04-1.81,2.04-.85,0-1.48-.57-1.69-1.44"/>
        <path class="cls-1" d="m26.19,15.72c-1.62,1.72-3.84,2.79-6.29,2.79-2.29,0-4.37-.93-5.96-2.45-.25-.22-.49-.45-.71-.7.91,2.75,3.54,4.73,6.65,4.73s5.74-1.99,6.65-4.73c-.11.12-.23.24-.35.36"/>
        <path class="cls-1" d="m24.21,11.23c0,.44-.37.8-.82.8s-.82-.36-.82-.8.37-.8.82-.8.82.36.82.8"/>
        <path class="cls-1" d="m27.03,11.99c0,1.83-1.53,3.31-3.42,3.31s-3.42-1.48-3.42-3.31,1.53-3.31,3.42-3.31,3.42,1.48,3.42,3.31m-3.41-2.04c-1.08,0-1.95.92-1.95,2.06s.87,2.06,1.95,2.06,1.95-.92,1.95-2.06-.87-2.06-1.95-2.06"/>
      </g>
      <rect class="cls-2" width="36.26" height="24.83"/>
    </g>
  </g>
</svg>