<?xml version="1.0" encoding="UTF-8"?>
<svg id="Capa_2" data-name="Capa 2" xmlns="http://www.w3.org/2000/svg" viewBox="0 0 36.26 24.83">
  <defs>
    <style>
      .cls-1 {
        fill: #8c98a4;
      }

      .cls-2 {
        fill: none;
      }
    </style>
  </defs>
  <g id="Capa_1-2" data-name="Capa 1">
    <g>
      <rect class="cls-2" width="36.26" height="24.83"/>
      <g>
        <path class="cls-1" d="m15.04,9.61c.77.29,1.27.77,1.27.77.01-.23.07-.47.16-.68,0,0-.24-.46-.96-.95-.78-.53-1.67-.67-1.67-.67-.18.38-.3.81-.37,1.25,0,0,.65-.07,1.57.29h0Z"/>
        <path class="cls-1" d="m15.6,8.06c.73.71,1,1.42,1,1.42.13-.22.31-.41.52-.55,0,0-.26-.84-.71-1.48-.43-.62-1.14-1.14-1.14-1.14-.35.26-.66.58-.91.93,0,0,.72.31,1.25.83h0Z"/>
        <path class="cls-1" d="m16.88,7.18c.32.84.41,1.63.41,1.63.22-.11.5-.19.76-.22,0,0,.01-.82-.17-1.65-.2-.97-.44-1.59-.44-1.59-.43.07-.84.19-1.23.37,0,0,.44.87.67,1.44h0Z"/>
        <path class="cls-1" d="m21.23,9.61c-.76.29-1.27.77-1.27.77,0-.23-.06-.47-.14-.68,0,0,.24-.46.96-.95.78-.53,1.66-.67,1.66-.67.18.38.31.81.37,1.25,0,0-.65-.07-1.57.29h0Z"/>
        <path class="cls-1" d="m20.69,8.06c-.73.71-1,1.42-1,1.42-.13-.22-.31-.41-.53-.55,0,0,.28-.84.71-1.48.44-.62,1.15-1.14,1.15-1.14.35.26.65.58.91.93,0,0-.72.31-1.25.83h0Z"/>
        <path class="cls-1" d="m19.4,7.18c-.34.84-.42,1.63-.42,1.63-.22-.11-.49-.19-.74-.22,0,0-.01-.82.16-1.65.22-.97.46-1.59.46-1.59.43.07.84.19,1.23.37,0,0-.44.87-.67,1.44h0Z"/>
        <path class="cls-1" d="m15.68,12.47c.91-.43,1.83-.34,1.83-.34-.32-.13-.6-.34-.81-.6,0,0-.82-.1-1.44.02-.95.19-1.37.52-1.37.52.19.4.44.76.73,1.08,0,0,.38-.36,1.06-.68h0Z"/>
        <path class="cls-1" d="m14.97,11.1c.94-.05,1.57.19,1.57.19-.12-.2-.19-.43-.22-.68,0,0-.73-.42-1.42-.5-.94-.13-1.49.05-1.49.05.01.44.08.88.22,1.29,0,0,.6-.3,1.33-.34h0Z"/>
        <path class="cls-1" d="m18.14,13.18c1.32,0,1.91,1.15,1.91,1.15.41-.18.79-.42,1.14-.71,0,0-1.13-1.42-3.05-1.42s-3.05,1.42-3.05,1.42c.35.29.72.53,1.14.71,0,0,.58-1.15,1.91-1.15h0Z"/>
        <path class="cls-1" d="m20.59,12.47c-.9-.43-1.83-.34-1.83-.34.32-.13.61-.34.82-.6,0,0,.82-.1,1.44.02.95.19,1.37.52,1.37.52-.19.4-.44.76-.73,1.08,0,0-.4-.36-1.07-.68h0Z"/>
        <path class="cls-1" d="m21.3,11.1c-.93-.05-1.56.19-1.56.19.11-.2.19-.43.22-.68,0,0,.73-.42,1.42-.5.94-.13,1.49.05,1.49.05-.01.44-.1.88-.22,1.29,0,0-.6-.3-1.35-.34h0Z"/>
        <path class="cls-1" d="m.87,17.56v-1.57h.67c.24,0,.43.02.62.18.18.14.3.37.3.6,0,.25-.1.46-.29.62-.19.16-.4.17-.64.17h-.67Zm0,.35h.71c.35,0,.64-.05.9-.3.24-.23.37-.52.37-.84,0-.35-.17-.68-.43-.89-.26-.19-.56-.24-.88-.24H0v.35h.48v3.05h-.48v.35h1.33v-.35h-.47v-1.13h0Z"/>
        <path class="cls-1" d="m3.23,17.85c.07-.52.54-.95,1.07-.95.56,0,1.06.4,1.13.96h-2.2Zm2.04.76c-.2.35-.55.54-.96.54-.56,0-1.05-.46-1.08-1.02h2.52v-.11c0-.8-.62-1.44-1.44-1.44s-1.43.67-1.43,1.45.65,1.42,1.44,1.42c.58,0,1.08-.32,1.32-.84h-.37Z"/>
        <path class="cls-1" d="m6.75,17.19c.13-.38.49-.54.89-.55v.32c-.61.05-.89.41-.89,1v1.11h.47v.32h-1.27v-.32h.47v-2.1h-.47v-.32h.81v.55h0Z"/>
        <path class="cls-1" d="m8.96,17.12c.17-.35.54-.53.93-.53.3,0,.77.17.95.53.07.13.16.38.16.72v1.23h.46v.32h-1.27v-.32h.47v-1.11c0-.24-.01-.48-.13-.7-.16-.25-.46-.34-.72-.34-.24,0-.49.11-.65.29-.18.22-.18.44-.18.71v1.14h.46v.32h-1.27v-.32h.47v-2.1h-.47v-.32h.82v.48h0Z"/>
        <path class="cls-1" d="m12.99,19.12c-.62,0-1.11-.5-1.11-1.11s.49-1.09,1.11-1.09,1.09.5,1.09,1.11-.49,1.09-1.09,1.09h0Zm0,.34c.8,0,1.44-.65,1.44-1.45s-.65-1.42-1.44-1.42-1.45.64-1.45,1.44.65,1.43,1.45,1.43h0Z"/>
        <path class="cls-1" d="m16.12,19.14c-.6,0-1.12-.49-1.12-1.11s.49-1.12,1.12-1.12,1.11.49,1.11,1.11-.48,1.12-1.11,1.12h0Zm1.09.25h.8v-.32h-.46v-3.42h-.82v.32h.47v1.31c-.22-.43-.67-.68-1.14-.68-.77,0-1.42.66-1.42,1.43,0,.26.11.56.24.79.25.38.76.65,1.19.65.48,0,.89-.24,1.13-.65v.58h0Z"/>
        <path class="cls-1" d="m22.91,19.39h-.73l-1.15-1.61h.14c.28,0,.55,0,.79-.14.26-.17.42-.44.42-.76,0-.26-.08-.5-.28-.67-.23-.2-.47-.22-.74-.22h-.74v3.05h.46v.35h-1.31v-.35h.48v-3.05h-.48v-.35h1.62c.36,0,.66.04.96.28.28.24.42.58.42.95,0,.64-.49,1.15-1.14,1.15l.79,1.02h.49v.35h0Z"/>
        <path class="cls-1" d="m24.01,19.06h.47v.32h-1.29v-.32h.48v-2.1h-.47v-.32h.81v2.43h0Zm-.34-3.42h.34v.54h-.34v-.54h0Z"/>
        <path class="cls-1" d="m27.14,17.47h-.32c-.19-.32-.56-.53-.95-.53-.6,0-1.08.49-1.08,1.09s.49,1.09,1.12,1.09c.4-.01.78-.23.94-.59h.4c-.2.56-.77.93-1.37.93-.78,0-1.43-.65-1.43-1.42,0-.4.16-.76.41-1.02.26-.26.61-.43,1.01-.43s.71.16.96.43v-.38h.32v.83h0Z"/>
        <path class="cls-1" d="m28.85,16.93c.6,0,1.09.49,1.09,1.09s-.49,1.11-1.12,1.11-1.09-.5-1.09-1.09.5-1.11,1.12-1.11h0Zm1.09,2.46h.8v-.32h-.46v-2.1h.46v-.32h-.8v.6c-.25-.42-.64-.65-1.13-.65s-.97.25-1.2.65c-.11.2-.23.38-.23.79-.01.3.08.56.22.79.25.4.71.64,1.21.64s.89-.23,1.13-.64v.56h0Z"/>
        <path class="cls-1" d="m31.92,17.19c.12-.38.49-.54.88-.55v.32c-.6.05-.88.41-.88,1v1.11h.46v.32h-1.27v-.32h.47v-2.1h-.47v-.32h.82v.55h0Z"/>
        <path class="cls-1" d="m34.36,19.14c-.6,0-1.12-.49-1.12-1.11s.49-1.12,1.12-1.12,1.11.49,1.11,1.11-.48,1.12-1.11,1.12h0Zm1.09.25h.81v-.32h-.46v-3.42h-.82v.32h.47v1.31c-.22-.43-.67-.68-1.14-.68-.77,0-1.42.66-1.42,1.43,0,.26.11.56.24.79.25.38.76.65,1.19.65.48,0,.89-.24,1.13-.65v.58h0Z"/>
      </g>
    </g>
  </g>
</svg>