<?xml version="1.0" encoding="UTF-8"?>
<svg id="Capa_2" data-name="Capa 2" xmlns="http://www.w3.org/2000/svg" viewBox="0 0 36.26 24.83">
  <defs>
    <style>
      .cls-1 {
        fill: #fff;
      }

      .cls-2 {
        fill: none;
      }
    </style>
  </defs>
  <g id="Capa_1-2" data-name="Capa 1">
    <g>
      <g>
        <path d="m30.54,12.41c0,6.86-5.56,12.41-12.41,12.41s-12.41-5.56-12.41-12.41S11.27,0,18.13,0s12.41,5.56,12.41,12.41Z"/>
        <g id="Claro">
          <path class="cls-1" d="m10.31,10.81c.63,0,1.17.38,1.43.92h1.05c-.3-1.12-1.29-1.94-2.48-1.94-1.42,0-2.57,1.18-2.57,2.63s1.15,2.63,2.57,2.63c1.18,0,2.18-.82,2.48-1.93h-1.05c-.25.54-.8.92-1.43.92-.87,0-1.58-.72-1.58-1.62s.71-1.62,1.58-1.62Z"/>
          <path class="cls-1" d="m23.57,10.81c-1.17,0-2.13.95-2.13,2.13s.95,2.13,2.13,2.13,2.13-.95,2.13-2.13-.95-2.13-2.13-2.13Zm0,3.25c-.62,0-1.12-.5-1.12-1.12s.5-1.12,1.12-1.12,1.12.5,1.12,1.12-.5,1.12-1.12,1.12Z"/>
          <polygon class="cls-1" points="13.31 9.77 14.3 9.77 14.3 15.03 13.31 15.03 13.31 9.77 13.31 9.77"/>
          <path class="cls-1" d="m17.82,11.07c-.34-.18-.72-.26-1.16-.26-.67,0-1.14.18-1.41.54-.17.23-.27.52-.29.88h1c.03-.16.07-.28.15-.37.1-.13.28-.19.52-.19.22,0,.38.03.49.1.12.06.17.18.17.34,0,.14-.07.24-.22.3-.08.04-.22.07-.41.09l-.35.05c-.4.05-.66.14-.87.26-.37.22-.56.59-.56,1.09,0,.39.12.66.35.87.24.21.46.28.81.28.83,0,1.29-.41,1.29-.41,0,.08,0,.33,0,.41h.98v-2.96c.01-.49-.16-.82-.49-1Zm-.53,2.32c0,.36-.1.6-.29.73-.19.14-.39.2-.62.2-.14,0-.26-.04-.36-.12-.1-.08-.14-.21-.14-.39,0-.2.08-.36.24-.45.09-.06.25-.11.47-.15l.23-.04c.12-.02.21-.05.27-.07.07-.03.13-.06.2-.1v.39Z"/>
          <path class="cls-1" d="m21.05,10.84c-.1.02-.23.05-.38.11-.21.09-.52.31-.71.58v-.52h-.95s0,4.03,0,4.03h.99v-1.92c0-.32.04-.56.12-.72.14-.27.48-.56.9-.56h.12s.18.02.18.02v-1.03s-.17,0-.27.01Z"/>
          <path class="cls-1" d="m24.14,9.78v-2.56s-.99,0-.99,0v2.56s.99,0,.99,0Z"/>
          <polygon class="cls-1" points="27.6 7.81 25.26 10.15 25.97 10.88 28.32 8.54 27.6 7.81"/>
          <path class="cls-1" d="m29.23,11.87h-2.59s0,1.02,0,1.02h2.59c0-.05,0-1.02,0-1.02Z"/>
        </g>
      </g>
      <rect class="cls-2" width="36.26" height="24.83"/>
    </g>
  </g>
</svg>