<?xml version="1.0" encoding="UTF-8"?>
<svg id="Capa_2" data-name="Capa 2" xmlns="http://www.w3.org/2000/svg" viewBox="0 0 36.26 24.83">
  <defs>
    <style>
      .cls-1 {
        fill-rule: evenodd;
      }

      .cls-1, .cls-2 {
        fill: #8c98a4;
      }

      .cls-3 {
        fill: none;
      }
    </style>
  </defs>
  <g id="Capa_1-2" data-name="Capa 1">
    <g>
      <g>
        <g>
          <path class="cls-2" d="m.46,17.99c.05-.14.12-.26.22-.37.1-.1.2-.19.31-.27.11-.07.22-.13.33-.17.02,0,.04-.01.06-.02.02,0,.04-.01.07-.02.02,0,.04,0,.06-.02.02,0,.04,0,.06-.01.04,0,.09-.01.13-.02.04,0,.08,0,.12,0,.11,0,.21.01.31.03.1.02.19.05.28.09.09.04.17.09.26.15.09.06.17.13.25.21l-.24.26s-.02-.01-.03-.02c0,0-.02-.02-.03-.03,0,0-.01-.01-.02-.02,0,0-.01,0-.02-.02,0,0-.01,0-.02-.02,0,0-.01-.01-.02-.02-.05-.04-.1-.07-.15-.11-.05-.03-.11-.07-.17-.1-.06-.03-.13-.05-.19-.07-.07-.02-.14-.02-.21-.02-.16,0-.3.02-.42.07-.12.04-.22.11-.3.2-.08.09-.15.18-.2.28-.05.1-.08.2-.1.31,0,.02,0,.03,0,.05,0,.02,0,.03,0,.05,0,.02,0,.04,0,.05v.05c0,.13.02.25.06.37.04.12.11.23.19.34.09.11.19.19.32.24.13.06.28.09.46.1h.05c.12,0,.22-.01.32-.05.1-.03.18-.08.25-.15.08-.07.14-.14.19-.21.05-.07.09-.15.12-.23,0-.02.02-.04.02-.06,0-.02.01-.04.01-.06,0-.01,0-.02,0-.03,0,0,0-.02,0-.03,0,0,0-.02,0-.02,0,0,0-.02,0-.03h-.95v-.37h1.34v.33c-.02.2-.06.38-.14.53-.08.15-.18.28-.31.39-.13.11-.28.19-.43.24-.15.05-.32.08-.5.08-.21,0-.4-.03-.57-.09-.17-.06-.32-.16-.45-.29-.13-.13-.23-.27-.3-.44-.07-.17-.11-.35-.11-.55H.38c0-.18.02-.34.07-.48Z"/>
          <path class="cls-2" d="m3.93,17.15v2.66h-.37v-2.66h.37Z"/>
          <path class="cls-2" d="m4.37,18.48c.05-.11.12-.21.22-.29.1-.08.2-.15.31-.19.11-.04.23-.06.35-.06h.04s.01,0,.02,0h.06s.01,0,.02,0h.02c.1.02.2.05.3.09.09.04.19.1.27.18.09.08.15.17.19.28.04.11.07.25.07.4v.03s0,.02,0,.03c0,.01,0,.02,0,.03,0,.01,0,.02,0,.03,0,.02,0,.04,0,.06,0,.02,0,.04-.01.06-.02.09-.06.18-.11.26-.05.08-.11.16-.18.23-.07.07-.16.13-.26.16-.1.04-.21.05-.34.05-.18,0-.33-.02-.46-.07-.13-.05-.23-.12-.31-.21-.08-.1-.14-.2-.18-.32-.04-.12-.06-.24-.06-.38h0c0-.15.02-.27.07-.38Zm.3.43s0,.03,0,.05c0,.02,0,.04,0,.05,0,.02,0,.03,0,.05.01.06.03.11.06.16.03.05.06.1.1.15.04.05.1.08.16.11.06.02.14.03.23.03.08,0,.16-.01.23-.03.07-.02.14-.06.2-.1.06-.05.1-.11.13-.2.03-.09.04-.19.04-.32,0-.09-.01-.17-.04-.24-.03-.07-.06-.14-.12-.19-.05-.05-.12-.09-.19-.12-.08-.03-.16-.04-.26-.04-.09,0-.17.01-.24.04-.07.02-.12.06-.17.11-.04.05-.08.1-.11.16-.03.06-.05.11-.06.17,0,.01,0,.02,0,.03,0,.01,0,.02,0,.03v.06h0v.05Z"/>
          <path class="cls-2" d="m6.86,17.18v1.7c0,.1.01.19.04.27.03.08.06.15.11.21.05.06.11.11.18.14.07.03.15.05.24.05.09,0,.16-.01.23-.04.07-.02.13-.06.17-.11.05-.05.09-.1.12-.15.03-.05.05-.11.07-.16,0-.01,0-.03,0-.04,0-.01,0-.03,0-.04,0-.02,0-.03,0-.04,0-.01,0-.03,0-.04,0-.1-.01-.19-.04-.27-.03-.08-.07-.14-.12-.19-.05-.05-.11-.09-.17-.12-.06-.03-.12-.05-.18-.05h-.05s0,0,0,0h-.02s-.08,0-.11,0c-.03,0-.06.01-.09.02-.03.01-.06.02-.08.03-.03.01-.06.02-.08.04h0s0,0,0,0c0,0-.01,0-.02,0,0,0,0,0-.01,0,0,0,0,0-.01,0,0,0,0,0-.01,0-.01,0-.02,0-.03,0,0,0-.02,0-.03.01v-.34s.06-.03.08-.04c.03-.01.06-.02.08-.03.03-.01.06-.02.09-.03.03,0,.06-.01.09-.02.01,0,.03,0,.04,0,.01,0,.03,0,.04,0h.02s.01,0,.02,0h.04c.12,0,.24.02.34.06.11.04.21.1.3.18.09.08.16.17.21.28.05.11.07.23.07.37,0,.13-.02.25-.06.36-.04.12-.1.23-.19.33-.08.11-.18.18-.31.24-.12.05-.26.08-.43.08s-.3-.02-.42-.07c-.12-.05-.22-.12-.3-.23-.08-.1-.14-.21-.17-.33-.04-.12-.06-.24-.06-.38v-1.68h.37Z"/>
          <path class="cls-2" d="m10.2,18.77c0-.06-.01-.11-.03-.17-.02-.05-.06-.11-.1-.15-.04-.05-.11-.09-.19-.11-.08-.03-.18-.04-.29-.04-.02,0-.04,0-.06,0-.02,0-.04,0-.06.01-.02,0-.05,0-.07.02-.02,0-.05.02-.07.03-.04.02-.08.04-.12.07-.04.03-.08.07-.11.11-.03.04-.06.09-.08.15-.02.06-.03.13-.04.2,0,.1.01.19.04.26.03.07.07.14.13.19.06.05.12.09.18.12.06.03.13.05.2.06h.02s0,0,.01,0h.05s.06,0,.09,0c.03,0,.05-.01.08-.02.01,0,.03-.01.04-.02.01,0,.02-.01.04-.02.01,0,.02-.02.03-.02.01,0,.02-.02.03-.03.01,0,.03-.02.04-.03.01-.01.02-.02.04-.03.01-.01.03-.02.04-.04.01-.01.03-.02.04-.04v.41s0,0,0,.01h0s-.06.04-.1.06c-.03.02-.07.03-.11.04-.04.01-.08.02-.13.02-.05,0-.11,0-.18,0h-.05c-.12,0-.23-.02-.33-.06-.1-.04-.2-.11-.28-.19-.09-.09-.15-.19-.19-.31-.04-.12-.06-.24-.06-.39,0-.13.02-.24.06-.35.04-.11.1-.21.19-.3.08-.09.19-.16.31-.2.12-.05.26-.07.42-.07s.29.02.41.06c.12.04.22.1.3.18.08.08.14.17.18.26.04.09.06.18.06.28v1.07h-.37v-1.05Z"/>
          <path class="cls-2" d="m11.3,17.15v2.66h-.36v-2.66h.36Z"/>
          <path class="cls-2" d="m13.16,17.15v1.7c0,.11,0,.2.02.28.02.08.04.15.07.21.03.06.08.1.15.13.07.03.15.04.25.04.06,0,.11,0,.15-.02.05-.01.09-.03.12-.06.04-.03.07-.06.09-.08.02-.03.04-.06.06-.09,0,0,0-.02,0-.02,0,0,0-.02,0-.02,0,0,0-.01,0-.02,0,0,0-.02,0-.02,0-.01,0-.03,0-.04,0-.01,0-.03,0-.04v-1.95h.4v1.94c0,.06,0,.11.02.15.01.04.04.08.06.11.03.03.06.06.09.08.03.02.07.04.1.05.01,0,.02,0,.03,0,0,0,.02,0,.03,0,0,0,.02,0,.03,0,0,0,.02,0,.03,0,.02,0,.04,0,.05,0,.02,0,.03,0,.04,0h.04s.02,0,.04,0c.01,0,.03,0,.04,0,.01,0,.03,0,.04,0,.04,0,.07-.03.11-.05.03-.02.07-.05.1-.08.03-.03.05-.07.07-.12.02-.05.03-.11.03-.18v-1.92h.4v1.97c0,.1-.01.19-.04.26-.03.07-.07.14-.12.19-.05.05-.11.1-.17.14-.06.04-.12.06-.19.09-.01,0-.03,0-.04,0-.01,0-.03,0-.04,0-.02,0-.03,0-.04,0-.01,0-.03,0-.04,0-.03,0-.05,0-.08,0-.02,0-.05,0-.07,0h-.03s0,0,0,0h-.03c-.07,0-.14,0-.2-.02-.06-.01-.11-.03-.15-.05-.05-.03-.09-.05-.12-.08-.03-.03-.06-.06-.09-.09-.01,0-.02-.02-.03-.03,0,0-.01-.02-.02-.03,0-.01,0-.02-.01-.03,0,0,0-.02-.01-.03-.03.06-.07.11-.11.15-.04.04-.08.08-.12.1-.02.01-.04.02-.06.04-.02.01-.04.02-.06.03-.02,0-.05.01-.07.02-.02,0-.04.01-.06.02-.02,0-.05,0-.07.01-.02,0-.04,0-.06,0h-.03s-.02,0-.03,0h-.06c-.11,0-.21-.01-.29-.04-.09-.03-.16-.07-.22-.13-.06-.06-.12-.12-.16-.18-.04-.06-.08-.13-.1-.2,0-.02-.02-.05-.02-.07,0-.02-.01-.05-.02-.07,0-.02,0-.05,0-.07,0-.02,0-.05,0-.07v-1.89h.4Z"/>
          <path class="cls-2" d="m16.42,17.49s.03-.04.05-.06c.02-.02.04-.03.07-.04.02,0,.05-.01.08-.01.03,0,.05,0,.08.01.02,0,.05.02.07.04.02.02.04.04.05.06.01.02.02.05.02.09s0,.06-.02.09c-.01.03-.03.05-.05.06-.02.02-.05.03-.07.04-.02,0-.05.01-.07.01-.03,0-.05,0-.08,0-.03,0-.05-.02-.07-.04-.02-.02-.04-.04-.05-.07-.01-.03-.02-.06-.02-.09h0s0-.06.02-.09Zm.01.5h.34v1.82h-.34v-1.82Z"/>
          <path class="cls-2" d="m17.35,18.71c0-.1.02-.2.05-.29.04-.09.09-.17.16-.25.07-.08.16-.13.26-.17.1-.04.22-.06.35-.06.02,0,.04,0,.07,0,.02,0,.05,0,.08.01.03,0,.06.01.09.02.03,0,.06.02.09.03.05.02.11.05.16.09.05.04.1.08.14.13.05.05.08.11.1.18.02.07.03.15.03.24h0v.02h0v1.15h-.37v-1.07c0-.06,0-.11-.03-.17-.02-.05-.04-.11-.08-.15-.03-.05-.08-.09-.13-.11-.05-.03-.12-.04-.19-.04-.07,0-.13.01-.18.03-.05.02-.1.06-.14.1-.04.05-.07.09-.09.15-.02.05-.04.11-.04.17v1.1h-.34v-1.1Z"/>
          <path class="cls-2" d="m20.57,18.47s-.01,0-.02,0c0,0-.01,0-.01-.02,0,0-.01-.01-.02-.02,0,0-.01-.02-.02-.02,0,0-.02-.01-.03-.02,0,0-.02-.01-.03-.02-.01,0-.02-.01-.03-.02-.01,0-.02-.01-.03-.02-.03-.01-.06-.02-.09-.03-.03,0-.07,0-.12,0-.1,0-.19.02-.27.05-.08.04-.14.09-.19.16-.05.07-.09.14-.12.22-.03.08-.04.15-.04.24h0c0,.08.01.15.04.22.03.07.07.13.12.19.05.06.12.11.19.14.08.03.16.05.26.05.11,0,.2-.01.27-.04.07-.02.12-.06.16-.11.04-.05.07-.11.1-.18.03-.07.06-.15.08-.23h0s0,0,0,0h0s.34.02.34.02h0s0,.02,0,.02h0v.02h0s0,.02,0,.02h0v.02s0,.04,0,.06c0,.02,0,.04-.01.07,0,.01,0,.02,0,.03,0,.01,0,.02,0,.03,0,.01-.01.02-.01.04,0,.01,0,.02-.01.04-.03.06-.07.13-.12.19-.05.06-.11.12-.19.17-.07.05-.16.09-.25.12-.1.03-.21.04-.32.04-.14,0-.26-.02-.38-.06-.12-.04-.22-.11-.31-.19-.1-.09-.17-.19-.21-.3-.05-.11-.07-.23-.07-.37,0-.14.02-.27.06-.38.04-.11.1-.2.17-.28.08-.08.16-.14.24-.19.09-.05.17-.09.27-.11.01,0,.02,0,.03,0,0,0,.02,0,.03,0,.01,0,.02,0,.03,0,0,0,.02,0,.03,0,.02,0,.04,0,.06,0,.02,0,.04,0,.06,0,.11,0,.21.01.3.04.09.03.18.07.25.13.07.06.14.12.2.19.06.07.11.15.16.23l-1.29.68-.15-.27.92-.51Z"/>
          <path class="cls-2" d="m22.81,17.8s-.04-.07-.06-.1c-.02-.03-.03-.06-.03-.09,0-.03-.01-.06-.01-.09,0-.05,0-.09.03-.13.02-.04.04-.08.08-.12.04-.04.08-.07.14-.09.06-.02.13-.03.22-.03h1.07s0,.35,0,.35h-1.07s-.05.01-.07.02c-.01,0-.02.02-.02.03,0,.01,0,.03.02.05,0,.02.02.04.04.06l1.19,1.46s0-.02.01-.03c0-.01,0-.02.01-.04,0-.01,0-.03,0-.04,0-.01,0-.03,0-.04,0-.03,0-.06.01-.09,0-.03,0-.06,0-.09,0-.01,0-.03,0-.04,0-.01,0-.03,0-.04,0-.01,0-.03,0-.04,0-.01,0-.03,0-.04-.01-.04-.02-.08-.04-.12-.02-.04-.04-.08-.06-.12-.02-.04-.05-.07-.07-.11-.02-.03-.05-.07-.08-.09l.28-.25s.09.08.13.13c.04.05.08.1.11.16.04.06.07.11.09.17.02.06.04.12.05.18,0,.02,0,.03,0,.04,0,.01,0,.03,0,.04v.02s0,.01,0,.02v.04s0,.08,0,.11c0,.03,0,.07-.01.1,0,.03-.01.06-.02.09,0,.03-.02.06-.03.09,0,.01-.01.02-.02.03,0,.01-.01.02-.02.03,0,.01-.01.02-.02.03,0,0-.01.02-.02.03-.01.02-.02.05-.04.07-.01.02-.03.05-.04.07l.33.38h-.49l-.12-.15s0,0,0,.01c0,0,0,0,0,0,0,0,0,0-.01,0,0,0,0,0-.01,0,0,0-.02.01-.02.02,0,0-.02.01-.02.02-.03.02-.06.04-.1.05-.04.02-.08.03-.13.04-.05.02-.1.03-.17.03-.06,0-.14.01-.22.01-.03,0-.07,0-.11,0-.04,0-.08,0-.12-.02-.04,0-.08-.02-.13-.03-.04-.01-.09-.02-.13-.04-.08-.03-.16-.08-.24-.13-.08-.05-.15-.12-.22-.2-.07-.08-.12-.17-.16-.28-.04-.11-.06-.24-.06-.38,0-.08,0-.16.02-.24.02-.08.04-.15.07-.21.03-.07.07-.13.1-.18.04-.05.07-.1.11-.14,0,0,.01-.01.02-.02,0,0,.01-.01.02-.02,0,0,.01-.01.02-.02,0,0,.01-.01.02-.02.01-.01.03-.02.04-.03.01,0,.02-.02.03-.02h0s-.06-.07-.08-.11Zm.33.4s-.08.06-.11.09c-.03.03-.06.07-.09.11-.02.04-.04.08-.06.12-.02.04-.03.08-.03.13,0,.01,0,.02,0,.03,0,.01,0,.02,0,.04v.06c0,.1.02.19.05.28.04.09.09.17.16.24.07.08.15.13.24.17.09.04.2.06.31.06.04,0,.07,0,.11,0,.03,0,.06,0,.09-.01.01,0,.03,0,.04,0,.01,0,.03,0,.04-.01.01,0,.03-.01.04-.02.01,0,.03-.01.04-.02,0,0,.02-.01.03-.02.01,0,.02-.01.03-.02.01,0,.02-.02.03-.02.01,0,.02-.02.03-.02h0s-.95-1.17-.95-1.17Z"/>
          <path class="cls-2" d="m27.05,19.49c.06,0,.11,0,.16,0,.05-.01.09-.03.13-.05.04-.02.07-.05.09-.09.02-.04.04-.08.05-.14,0-.05,0-.09-.02-.13-.02-.04-.04-.08-.07-.12-.03-.04-.07-.07-.12-.11-.05-.03-.1-.06-.16-.09-.01,0-.02-.01-.03-.02-.01,0-.02-.01-.03-.02-.01,0-.02,0-.03-.02,0,0-.02,0-.03-.02h0s0,0,0,0c0,0,0,0,0,0-.11-.05-.21-.1-.31-.16-.1-.06-.19-.11-.29-.17-.09-.06-.15-.13-.2-.21-.05-.08-.07-.17-.07-.27h0v-.02h0v-.02c0-.1.01-.18.04-.25.03-.07.07-.13.13-.18.06-.05.12-.09.18-.13.06-.03.13-.06.2-.07.01,0,.02,0,.03,0,.01,0,.02,0,.03,0,0,0,.01,0,.02,0,0,0,.01,0,.02,0,0,0,.01,0,.02,0,0,0,.01,0,.02,0h.95s0,.32,0,.32h-.89c-.05,0-.1.02-.15.03-.04.02-.08.04-.11.07-.03.03-.05.06-.07.1-.02.03-.03.07-.03.1,0,0,0,0,0,0h0v.02h0s0,.06,0,.08c0,.02.01.04.02.06.01.02.02.03.04.05.02.02.03.03.05.04.06.04.12.08.17.11.06.03.11.06.16.09.05.03.1.05.15.07.05.02.09.05.14.07.01,0,.03.01.04.02.01,0,.02.01.03.02,0,0,.01,0,.02,0,0,0,.01,0,.02,0,0,0,.01,0,.02.01,0,0,.01,0,.02,0,0,0,.02.01.03.02,0,0,.02.01.03.02,0,0,.02.01.03.02.01,0,.02.01.03.02.05.03.09.07.13.11.04.04.08.09.12.14.04.05.07.11.09.17.02.06.03.13.03.2,0,.02,0,.04,0,.06,0,.02,0,.04,0,.06,0,.02,0,.04,0,.06,0,.02,0,.04-.01.06-.02.06-.04.11-.07.16-.03.05-.07.1-.12.14-.05.05-.11.08-.19.1-.08.02-.17.03-.29.03h-1.08v-.33h.98Z"/>
          <path class="cls-2" d="m28.12,18.89c0-.13.02-.25.05-.35.03-.1.09-.19.16-.26.07-.07.14-.13.22-.18.08-.05.16-.08.24-.11.02,0,.05-.01.07-.02.02,0,.05,0,.07-.01.01,0,.02,0,.04,0,.01,0,.02,0,.04,0,.01,0,.02,0,.03,0h.03c.14,0,.26.02.36.05.1.03.19.08.26.15.07.06.13.13.18.2.05.07.09.14.11.22.01.03.02.06.03.09,0,.03.01.06.02.09,0,.03,0,.06.01.09,0,.03,0,.05,0,.08s0,.05,0,.08c0,.03,0,.06-.01.09,0,.03,0,.06-.02.09,0,.03-.02.06-.03.09-.03.07-.06.14-.1.21-.04.07-.1.13-.17.2-.07.06-.15.11-.25.15-.1.04-.21.06-.34.07-.04,0-.08,0-.12,0-.04,0-.08-.01-.12-.02-.04-.01-.09-.02-.14-.04-.05-.02-.11-.04-.17-.07v-.36s.07.04.11.06c.03.02.06.03.09.04.03.01.05.02.08.03.02,0,.05.01.07.02.01,0,.03,0,.04,0,.01,0,.03,0,.04,0,.01,0,.03,0,.04,0h.05c.1,0,.18-.01.26-.04.07-.03.13-.07.18-.13.05-.06.08-.13.11-.2.02-.07.04-.16.04-.24,0-.1-.02-.18-.05-.26-.03-.08-.08-.14-.15-.2-.06-.06-.13-.1-.2-.13-.07-.03-.14-.04-.22-.04-.02,0-.04,0-.05,0-.02,0-.04,0-.06.01-.02,0-.04,0-.06.02-.02,0-.04.02-.06.03-.05.02-.09.05-.13.09-.04.04-.08.08-.12.13-.04.05-.07.11-.09.17-.02.07-.03.15-.03.24v1.67h-.34v-1.74Z"/>
          <path class="cls-2" d="m30.49,17.49s.03-.04.05-.06c.02-.02.04-.03.07-.04.02,0,.05-.01.08-.01.03,0,.05,0,.08.01.02,0,.05.02.07.04.02.02.04.04.05.06.01.02.02.05.02.09s0,.06-.02.09c-.01.03-.03.05-.05.06-.02.02-.05.03-.07.04-.02,0-.05.01-.07.01-.03,0-.05,0-.08,0-.03,0-.05-.02-.07-.04-.02-.02-.04-.04-.05-.07-.01-.03-.02-.06-.02-.09h0s0-.06.02-.09Zm.01.5h.34v1.82h-.34v-1.82Z"/>
          <path class="cls-2" d="m31.7,17.99v.18s0,0,.01-.01c0,0,0-.01.02-.02,0,0,.01-.02.02-.02,0,0,.02-.02.02-.02.02-.02.04-.04.07-.06.02-.02.05-.03.09-.05.03-.02.07-.03.1-.04.04,0,.08-.01.12-.01h.12s0,.32,0,.32h-.09c-.07.01-.13.03-.19.06-.05.03-.1.06-.13.09-.03.04-.06.08-.08.12-.02.04-.04.08-.05.13-.01.03-.02.06-.02.09,0,.03,0,.06,0,.09,0,.03,0,.06,0,.08v.89h-.34v-1.82h.34Z"/>
          <path class="cls-2" d="m32.64,17.49s.03-.04.05-.06c.02-.02.04-.03.07-.04.02,0,.05-.01.08-.01.03,0,.05,0,.08.01.02,0,.05.02.07.04.02.02.04.04.05.06.01.02.02.05.02.09s0,.06-.02.09c-.01.03-.03.05-.05.06-.02.02-.05.03-.07.04-.02,0-.05.01-.07.01-.03,0-.05,0-.08,0-.03,0-.05-.02-.07-.04-.02-.02-.04-.04-.05-.07-.01-.03-.02-.06-.02-.09h0s0-.06.02-.09Zm.01.5h.34v1.82h-.34v-1.82Z"/>
          <path class="cls-2" d="m33.6,17.55h.37v.45h.71v.33h-.71v.93s0,.07,0,.1c0,.03.01.05.02.08.01.03.03.04.07.06.03.01.08.02.15.02h.43s0,.32,0,.32h-.48s0,0,0,0h-.03c-.09,0-.16-.01-.23-.04-.06-.03-.12-.06-.16-.12-.04-.05-.07-.11-.1-.17-.02-.06-.04-.12-.04-.19,0,0,0-.01,0-.02v-.06h0v-1.68Z"/>
          <path class="cls-2" d="m35.53,19.49s.01,0,.02,0h.05s.01,0,.02,0h.05s.06,0,.09,0c.03,0,.05-.01.08-.02.03,0,.05-.02.06-.04.01-.02.02-.05.02-.08,0-.04,0-.07-.03-.1-.02-.03-.05-.05-.09-.07-.04-.02-.08-.04-.13-.06-.05-.02-.11-.04-.17-.05,0,0-.02,0-.02,0,0,0-.02,0-.02,0-.01,0-.02,0-.03,0,0,0-.02,0-.02,0-.02,0-.04,0-.05-.02-.02,0-.03-.01-.05-.02-.08-.02-.16-.05-.22-.08-.07-.03-.13-.07-.18-.11-.05-.04-.09-.09-.11-.15-.02-.06-.04-.12-.04-.2,0-.1.02-.19.05-.26.04-.07.09-.11.16-.14.07-.03.15-.05.24-.06.09-.01.18-.02.28-.02h.7s0,.29,0,.29h-.73s-.09.01-.13.02c-.04,0-.08.01-.11.02-.03.01-.06.03-.07.05-.02.02-.02.05-.02.08,0,.03,0,.06.02.09.02.03.04.05.08.07.03.02.07.03.11.05.04.01.08.03.12.04.01,0,.03,0,.04,0,.01,0,.02,0,.03,0,0,0,.01,0,.02,0,0,0,.01,0,.02,0,0,0,.01,0,.02,0,0,0,.01,0,.02,0,0,0,.02,0,.02,0,0,0,.02,0,.02,0,0,0,0,0,.01,0,0,0,0,0,.01,0,0,0,0,0,0,0,0,0,0,0,0,0,.11.04.21.08.29.12.08.04.14.08.19.13.04.04.08.09.1.15.02.06.03.13.03.2,0,.08-.02.15-.04.21-.02.06-.06.1-.1.13-.04.03-.09.06-.13.08-.05.02-.1.03-.15.04-.02,0-.04,0-.05,0h-.07s-.02,0-.02,0h-.12s-.02,0-.02,0h-.81v-.33h.79Z"/>
        </g>
        <path class="cls-1" d="m10.68,6.1c-.26.28-.51.53-.75.79-.32-.24-.63-.48-.95-.7-.93-.65-1.96-1.01-3.12-.96-1.99.08-3.72,1.33-4.37,3.2-.86,2.46.38,5.21,2.81,6.07,1.91.68,3.69.37,5.19-1.02.84-.78,1.18-1.8,1.24-2.94h-4.19v-1.01h5.35s.02.02.02.03c.09,1.53-.19,2.96-1.22,4.17-1.03,1.21-2.36,1.88-3.95,2.06-2.78.32-5.47-1.33-6.4-3.91-1.06-2.96.62-6.3,3.69-7.31,1.57-.51,3.13-.52,4.67.14.75.33,1.41.79,2,1.38Z"/>
        <path class="cls-1" d="m13.99,4.39h1.14v.24c0,2.52,0,5.04,0,7.56,0,.34.03.68.11,1.01.22.89,1.01,1.52,1.94,1.6.51.05,1.01.02,1.49-.2.88-.41,1.25-1.13,1.28-2.05,0-.15.01-.31.01-.46,0-2.49,0-4.98,0-7.47v-.23h1.14v.22c0,2.57,0,5.14,0,7.71,0,.24.01.48.06.72.19.99.94,1.65,1.96,1.76.48.05.95.02,1.4-.16.83-.34,1.27-.97,1.37-1.83.03-.27.04-.54.04-.81,0-2.45,0-4.9,0-7.35v-.24h1.14v.2c0,2.36,0,4.72,0,7.08,0,.66-.03,1.31-.22,1.95-.37,1.21-1.44,2.06-2.72,2.19-.52.05-1.02.03-1.53-.09-.81-.19-1.44-.64-1.89-1.33-.05-.08-.1-.15-.16-.23,0,0-.02-.01-.01,0-.24.29-.45.61-.72.86-.71.66-1.59.85-2.54.82-.68-.02-1.31-.2-1.88-.57-.78-.52-1.18-1.26-1.31-2.15-.06-.4-.1-.81-.1-1.22,0-2.43,0-4.87,0-7.3v-.2Z"/>
        <path class="cls-1" d="m29,15.82v-1.01h.23c1.25,0,2.49,0,3.74-.01.3,0,.61-.06.9-.13,1.03-.28,1.48-1.12,1.15-2.12-.15-.44-.42-.8-.82-1.04-.57-.34-1.17-.63-1.76-.94-.6-.31-1.22-.6-1.81-.93-.67-.39-1.19-.92-1.43-1.67-.44-1.41.24-3.11,2.23-3.37.3-.04.61-.05.91-.06,1.04,0,2.09,0,3.13,0h.24v1.02c-.08,0-.15,0-.23,0-1.24,0-2.48,0-3.72.01-1.01.02-1.62.7-1.54,1.67.04.53.31.96.75,1.25.42.27.86.51,1.31.74.79.41,1.61.78,2.38,1.22.75.42,1.27,1.05,1.49,1.89.39,1.44-.47,3.28-2.45,3.44-.3.02-.59.04-.89.04-1.2,0-2.39,0-3.59,0h-.24Z"/>
      </g>
      <rect class="cls-3" width="36.26" height="24.83"/>
    </g>
  </g>
</svg>