<?xml version="1.0" encoding="UTF-8"?>
<svg id="Capa_2" data-name="Capa 2" xmlns="http://www.w3.org/2000/svg" viewBox="0 0 36.26 24.83">
  <defs>
    <style>
      .cls-1 {
        fill-rule: evenodd;
      }

      .cls-1, .cls-2 {
        fill: #8c98a4;
      }

      .cls-3 {
        fill: none;
      }
    </style>
  </defs>
  <g id="Capa_1-2" data-name="Capa 1">
    <g>
      <g>
        <path class="cls-2" d="m21.61,9.13h0s-.31,0-.31,0c-1.63,0-3.16,1.2-3.22,3.53-.06,2.13,1.05,3.61,2.91,3.61,1.54,0,2.08-1.07,2.08-1.07.09.71.48.94,1.25.94v-7.01h-2.71Zm1.39,4.13c0,.97-.56,1.89-1.76,1.89-1.08,0-1.86-.72-1.81-2.47.05-1.68.85-2.41,1.92-2.41.08,0,.16,0,.24,0h1.41v3Z"/>
        <path class="cls-2" d="m10.72,9.08v4.87c0,.71-.58,1.07-1.36,1.07-.81,0-1.35-.36-1.35-1.07v-3.64c0-1.04-.66-1.23-1.23-1.23v5.17c0,1.3,1.17,1.94,2.55,1.94s2.63-.64,2.63-1.94v-3.78c0-1.02-.38-1.38-1.24-1.38h0Z"/>
        <path class="cls-2" d="m13.72,11.76v4.34h1.23s0-4.38,0-4.38c0-.93.5-1.49,1.44-1.49h.36c1.07,0,1.25-.55,1.25-1.15h-1.71c-1.52,0-2.57.88-2.57,2.68h0Z"/>
        <path class="cls-2" d="m3.62,12.22l-1.5-.41c-.41-.11-.79-.29-.79-.8s.32-.78.98-.78h1.33c.59,0,1.29-.19,1.29-1.15h-2.51c-1.54,0-2.43.78-2.43,1.9,0,1.04.66,1.63,1.84,1.94l1.31.34c.54.14.73.48.73.83,0,.52-.33.84-1.14.85l-2.5.02v1.13h2.54c1.54,0,2.43-.83,2.43-1.92s-.43-1.64-1.59-1.95h0Z"/>
      </g>
      <path class="cls-1" d="m31.17,17.68s.03.01.02.04c-.18.42-.37.73-.76.93-.68.34-1.04.15-1.09.12-.01,0-.02-.02-.02-.04,0-.01.01-.03.03-.03.3-.09,1.19-.42,1.8-1.02,0,0,.01,0,.02,0h0Zm.08-1.24c-.47.28-1.43.69-2.28.93-1,.28-1.81.42-2.35.34-.47-.07-.71-.29-.78-.37,0-.01-.02-.02-.02-.04,0-.02.02-.03.04-.03h.18c.4-.04,1.12-.06,1.95-.18.97-.14,2.52-.42,3.23-.7.02,0,.03.01.01.04h0Zm.07.42s.02.01.02.04c-.14.18-.36.38-.65.59-.29.2-.63.4-.98.57-.38.18-.7.33-1.05.42-.39.1-.72.14-1,.1-.23-.03-.41-.09-.55-.21,0,0-.01-.02,0-.03,0-.02.02-.03.03-.03.87-.14,1.67-.35,2.41-.61.73-.25,1.34-.54,1.79-.85h0Zm3.82-3.49s.02.01.02.04c-.35.29-1.93,1.61-2.78,2.31l-.03.03c-.25.19-.41.23-.44-.18,0-.1-.02-.18-.02-.18-.02-.09.01-.08.04-.1.28-.17.81-.47,1.23-.72.76-.45,1.64-.99,1.98-1.19h0Zm-1.17,1.76s.03.01.02.04c-.34.4-1.61,1.78-2.18,2.39-.06.06-.09.03-.07-.03,0,0,.11-.27.15-.48.03-.13.06-.23.13-.29.74-.62,1.45-1.24,1.92-1.63h.02Zm1.56-2.45s.03,0,.03,0c0,0,.02.02,0,.04-.16.1-3.7,1.57-3.73,1.58-.19.07-.41.1-.57-.17-.07-.11-.12-.2-.15-.24-.01-.02-.05-.06.05-.09,0,0,1-.27,1.88-.49,1.02-.26,2.18-.55,2.49-.63h0Zm.37-.51s.03.01.02.03c0,0,0,.02-.02.02-.27.04-5.19.71-5.23.72-.03,0-.06,0-.09,0-.03,0-.05,0-.08,0-.23-.03-.46-.14-.67-.36-.11-.11-.2-.29-.22-.36,0,0,0-.02,0-.03,0-.01.02-.02.03-.02,0,0,1.65,0,2.69,0,.78,0,1.6,0,2.28,0,.58,0,1.05,0,1.28,0h0Zm.32-.44s.02.01.02.03c0,.01-.01.02-.03.02-.72-.05-7.19-.51-7.19-.51-.06,0-.11-.01-.17-.03-.51-.16-.81-.56-.93-.96,0-.02,0-.03,0-.04,0-.01.03-.02.04-.02,0,0,7.63,1.39,8.26,1.5h0Zm-1.34-1.26s0,.04-.03.04c-.28-.14-.91-.44-1.54-.76-.53-.27-4.18-1.99-4.43-2.11l-.44-.22c-.06-.03-.12-.07-.18-.1-.17-.1-.26-.18-.36-.3-.08-.1-.14-.22-.19-.34-.1-.26-.1-.61-.09-.67,0,0,0-.02.02-.03,0,0,.02,0,.05,0l.45.28.24.15,1.34.82c1.86,1.16,4.47,2.82,5.15,3.25h0Zm.79.75s.02.01.02.02c0,.01-.01.02-.04.02-.2-.06-.64-.18-1.18-.33-1.25-.34-5.98-1.61-6.06-1.63h-.02c-.28-.1-.52-.24-.69-.43-.05-.05-.1-.12-.14-.18-.16-.24-.2-.6-.21-.66,0,0,0-.02.01-.03,0,0,.02-.01.05,0l.77.3c1.83.71,6.7,2.6,7.49,2.93h0Z"/>
      <rect class="cls-3" width="36.26" height="24.83"/>
    </g>
  </g>
</svg>