<?xml version="1.0" encoding="UTF-8"?>
<svg id="Capa_2" data-name="Capa 2" xmlns="http://www.w3.org/2000/svg" viewBox="0 0 36.26 24.83">
  <defs>
    <style>
      .cls-1 {
        fill: #8c98a4;
      }

      .cls-2 {
        fill: none;
      }
    </style>
  </defs>
  <g id="Capa_1-2" data-name="Capa 1">
    <g>
      <g>
        <path class="cls-1" d="m0,15.72v3.02h1.3c.62,0,1.1-.22,1.1-.91,0-.36-.19-.56-.4-.66.09-.06.16-.14.21-.24.05-.1.08-.24.08-.4,0-.5-.35-.77-.94-.8h-.12S0,15.72,0,15.72Zm1.68.81c0,.3-.08.43-.3.46h-.1s-.66,0-.66,0v-.85h.61c.35,0,.45.08.45.38Zm.11,1.3c0,.35-.12.46-.37.48h-.11s-.69,0-.69,0v-.91h.66c.22,0,.52,0,.52.42Zm7.11.52c-.23.05-.46.07-.58.07-.21.01-.33-.03-.4-.14-.07-.12-.09-.31-.09-.61,0-.6.08-.78.49-.76.12,0,.39.06.58.08l.06-.35c-.19-.03-.45-.08-.62-.09-.92-.04-1.14.35-1.14,1.12s.22,1.15,1.14,1.12c.19,0,.44-.04.63-.08l-.07-.36Z"/>
        <path class="cls-1" d="m15.63,18.41c-.31,0-.41-.14-.44-.44v-.14s1.45,0,1.45,0v-.25c0-.71-.37-1.05-1.07-1.05-.65,0-1.03.3-1.03,1.12,0,.33.05.61.2.8.16.2.43.32.88.32.22,0,.45-.02.69-.06l.24-.05-.07-.36c-.22.05-.65.1-.86.1Zm-.34-1.39c.07-.09.17-.12.31-.12.26,0,.38.1.42.41v.15s-.84,0-.84,0c0-.21.04-.35.11-.44Zm-2.02-.49c-.78,0-1.01.41-1.01,1.07,0,.75.21,1.17,1.23,1.17.18,0,.35,0,.57-.03l.23-.02v-3h-.61v.84c-.12-.02-.26-.03-.42-.03Zm.14,1.87c-.45-.03-.52-.26-.52-.79,0-.25.02-.42.07-.53.06-.11.15-.16.3-.18.12-.01.24,0,.33.01l.09.02v1.47s-.1.02-.28,0Zm-2.41.07c.17-.19.22-.48.22-.86,0-.7-.36-1.04-.97-1.08h-.13c-.75,0-1.12.31-1.12,1.07,0,.81.25,1.16,1.12,1.16.44,0,.71-.1.88-.29Zm-.88-.07c-.41,0-.49-.17-.49-.8,0-.29.03-.47.11-.58.08-.1.2-.14.38-.14.27,0,.45.15.47.62v.1c0,.59-.07.79-.47.79Zm-6.47-1.5c.17,0,.25.08.27.25v.08s0,.08,0,.08c0,0-.3,0-.56.03-.58.07-.8.33-.8.69,0,.4.31.66.81.71.3.03.59.01.87-.01l.28-.03v-1.45c0-.22-.07-.4-.21-.52-.14-.13-.36-.2-.67-.2-.26,0-.51.05-.87.12l.07.37c.34-.07.6-.12.81-.12Zm-.17,1.48c-.22-.04-.27-.18-.27-.34,0-.11.03-.19.08-.24.05-.06.14-.09.24-.1.07,0,.13-.01.19-.02h.21s0,.7,0,.7c-.17.02-.31.03-.45,0Z"/>
        <path class="cls-1" d="m4.85,18.73h.6v-1.77c.11-.03.28-.06.44-.06.28,0,.41.14.43.53v.18s0,1.12,0,1.12h.61v-1.12c0-.35-.07-.62-.23-.8-.16-.18-.43-.28-.82-.28-.32,0-.61.06-.91.17l-.13.05v1.98Z"/>
        <path class="cls-1" d="m22.47,18.34c-.23.05-.46.07-.58.07-.21.01-.33-.03-.4-.14-.07-.12-.09-.31-.09-.61,0-.6.08-.78.49-.76.12,0,.39.06.58.08l.06-.35c-.19-.03-.44-.08-.62-.09-.92-.04-1.14.35-1.14,1.12s.22,1.15,1.14,1.12c.19,0,.44-.04.63-.08l-.07-.36Zm1.87,0c-.23.05-.46.07-.58.07-.21.01-.33-.03-.4-.14-.07-.12-.09-.31-.09-.61,0-.6.08-.78.49-.76.12,0,.39.06.58.08l.06-.35c-.19-.03-.45-.08-.62-.09-.92-.04-1.14.35-1.14,1.12s.23,1.15,1.14,1.12c.19,0,.44-.04.63-.08l-.07-.36Z"/>
        <path class="cls-1" d="m32.91,16.08v.51h-.37v.37h.37v1.07c0,.51.09.75.62.75.07,0,.21,0,.4-.03l.15-.03-.07-.36c-.17.01-.26.03-.35.02-.08-.01-.11-.07-.12-.2v-.16s0-1.07,0-1.07h.48v-.37h-.48v-.51h-.62Zm-2.59,2.65h.6v-1.77c.11-.03.28-.06.44-.06.28,0,.41.14.44.53v.18s0,1.12,0,1.12h.61v-1.12c0-.35-.07-.62-.23-.8-.16-.18-.43-.28-.82-.28-.32,0-.61.06-.91.17l-.13.05v1.98Zm-3.71-2.2c-.78,0-1.01.41-1.01,1.07,0,.75.21,1.17,1.23,1.17.12,0,.24,0,.36-.02l.44-.04v-3h-.61v.84c-.12-.02-.26-.03-.42-.03Zm.24,1.87s-.08,0-.11,0c-.45-.02-.51-.26-.51-.79,0-.25.02-.42.07-.53.06-.11.15-.16.3-.18.12-.01.24,0,.33.01l.09.02v1.47c-.05,0-.12,0-.17,0Zm-2.15-2.16h.6v-.45h-.6v.45Zm0,2.48h.6v-2.16h-.6v2.16Zm-5.58-3.05c-.99,0-1.44.42-1.44,1.48,0,.57.08.97.3,1.22.22.26.58.38,1.14.38,1.07,0,1.38-.48,1.41-1.4v-.19c0-1.05-.51-1.49-1.41-1.49Zm0,2.66c-.68,0-.81-.28-.81-1.18,0-.85.23-1.06.81-1.06.24,0,.44.07.58.24.14.17.21.44.21.84,0,.78-.1,1.12-.67,1.16h-.12Z"/>
        <path class="cls-1" d="m26.43,11.73l3.7,3.7,3.7-3.7-.86-.86-2.84,2.83-1.98-1.98,1.98-1.97.84.84.86-.86-1.7-1.7-3.7,3.69Zm8.82,6.68c-.31,0-.41-.14-.44-.44v-.14s1.45,0,1.45,0v-.25c0-.71-.37-1.05-1.07-1.05-.65,0-1.03.3-1.03,1.12,0,.33.05.61.2.8.16.2.43.32.88.32.22,0,.45-.02.69-.06l.24-.05-.07-.36c-.22.05-.65.1-.86.1Zm-.34-1.39c.07-.09.17-.12.31-.12.26,0,.38.1.42.41v.15s-.84,0-.84,0c0-.21.04-.35.11-.44Zm-5.89,1.38c-.31,0-.41-.14-.45-.44v-.14s1.45,0,1.45,0v-.25c0-.71-.37-1.04-1.07-1.04-.65,0-1.03.3-1.03,1.12,0,.32.05.6.2.8.16.2.43.32.88.32.22,0,.45-.02.69-.06l.24-.05-.06-.36c-.22.05-.66.1-.86.1Zm-.35-1.39c.07-.09.17-.12.31-.12.26,0,.38.1.42.42v.15s-.84,0-.84,0c0-.21.04-.36.11-.44Z"/>
        <polygon class="cls-1" points="33.83 9.74 30.13 6.05 26.43 9.74 27.29 10.6 30.13 7.76 32.11 9.74 30.13 11.72 29.29 10.87 28.43 11.73 30.13 13.44 33.83 9.74"/>
      </g>
      <rect class="cls-2" width="36.26" height="24.83"/>
    </g>
  </g>
</svg>