<?xml version="1.0" encoding="UTF-8"?>
<svg xmlns="http://www.w3.org/2000/svg" viewBox="0 0 36.26 24.83">
  <defs>
    <style>
      .cls-1 {
        fill: none;
      }

      .cls-1, .cls-2 {
        mix-blend-mode: multiply;
      }

      .cls-3 {
        fill: #8c98a4;
      }

      .cls-3, .cls-4, .cls-2 {
        fill-rule: evenodd;
      }

      .cls-5 {
        isolation: isolate;
      }

      .cls-4 {
        fill: #757575;
      }

      .cls-2 {
        fill: #94a3b8;
      }
    </style>
  </defs>
  <g class="cls-5">
    <g id="Capa_2" data-name="Capa 2">
      <g id="Capa_1-2" data-name="Capa 1">
        <g>
          <polygon class="cls-4" points="13.55 20.15 13.8 20.29 14.15 19.36 14.14 19.36 13.55 20.15"/>
          <path class="cls-3" d="m27.55,16.35c-.1-.06-.21-.07-.32-.04-.11.03-.2.09-.26.19-.06.1-.07.21-.04.32.03.11.1.2.2.26.1.06.21.07.32.04.11-.03.2-.09.26-.2.06-.1.07-.21.04-.32-.03-.11-.1-.2-.2-.26Zm.08.38l-.25.04-.03.04.17.1-.06.11-.46-.27.1-.17s.03-.06.05-.07c.01-.02.03-.03.05-.05.02-.01.05-.02.07-.02s.05,0,.07.02c.03.02.06.05.07.08.01.03.01.06,0,.1l.3-.05-.08.14Z"/>
          <path class="cls-2" d="m27.27,16.59s-.02,0-.03,0c-.01,0-.02,0-.03,0,0,0-.02.01-.03.02,0,0-.02.02-.03.04l-.02.03.13.08.02-.03s.02-.03.02-.05c0-.02,0-.03,0-.04,0-.01,0-.02-.01-.03,0,0-.02-.02-.03-.03Z"/>
          <path class="cls-3" d="m13.96,3.57c-.06-.03-.13-.03-.21.01l-.08.04.3.61.08-.04c.08-.04.13-.1.14-.16,0-.07-.01-.15-.07-.26-.05-.1-.1-.16-.15-.2Z"/>
          <path class="cls-3" d="m19.76,2.67h-.08s-.15.94-.15.94h.08c.08.03.15.02.19-.01.04-.03.07-.08.09-.15.02-.07.03-.16.05-.26.02-.1.03-.19.03-.26,0-.07,0-.13-.04-.17-.03-.04-.08-.07-.17-.08Z"/>
          <path class="cls-3" d="m18.13,0C11.27,0,5.72,5.56,5.72,12.41c0,6.86,5.56,12.41,12.41,12.41,6.86,0,12.41-5.56,12.41-12.41S24.99,0,18.13,0Zm.03,24.1c-6.47,0-11.71-5.24-11.71-11.71S11.7.68,18.16.68s11.71,5.24,11.71,11.71-5.24,11.71-11.71,11.71Z"/>
          <path class="cls-3" d="m18.16,1.05c-6.26,0-11.34,5.08-11.34,11.34s5.08,11.34,11.34,11.34,11.34-5.08,11.34-11.34S24.42,1.05,18.16,1.05Zm8.87,10.55c.45,0,.81.36.81.81,0,.45-.36.81-.81.81s-.81-.36-.81-.81.36-.81.81-.81Zm-3.36-6.45c.04-.14.14-.29.3-.47l.05-.05c.12-.12.23-.21.34-.27.1-.05.23-.08.38-.07.12,0,.24.04.35.11.11.07.22.14.31.24.14.13.25.27.34.42.09.16.15.33.18.53l-.53.57s-.28-.32-.56-.6c.04-.04.07-.08.11-.12.03-.04.05-.09.06-.13,0-.04,0-.09-.05-.12-.04-.04-.09-.05-.14-.04-.05.01-.1.04-.14.08-.02.02-.04.05-.06.08-.02.03-.03.06-.03.09,0,.04,0,.09.03.14.02.05.04.09.06.13.06.1.12.21.17.32.06.12.1.23.12.35.02.13,0,.25-.06.38-.07.14-.15.26-.26.38h-.01c-.14.17-.3.29-.46.36-.16.08-.33.1-.51.06-.18-.04-.37-.15-.57-.34-.13-.12-.25-.26-.34-.42-.09-.16-.15-.33-.17-.53l.58-.62c.23.17.45.35.66.55-.07.07-.14.15-.19.2-.05.05-.08.1-.09.13-.01.03-.01.07,0,.1,0,.03.02.06.05.08.05.04.1.05.15.03.06-.02.1-.05.15-.1.07-.08.12-.15.13-.22.01-.06,0-.13-.03-.19-.03-.06-.07-.13-.11-.2-.1-.16-.17-.3-.21-.43-.04-.13-.04-.27,0-.41Zm-2.22-2.21l.25-.53c.67.24,1.3.54,1.9.9l-.49,1.05c-.23-.14-.47-.27-.71-.4l.05-.09c.05-.1.07-.18.06-.24,0-.06-.06-.11-.17-.16l-.05-.02-.25.54c.27.12.5.25.5.25l-.28.59c-.28-.15-.49-.25-.49-.25l-.27.57.05.02c.08.04.14.05.18.04.05,0,.08-.04.11-.09.03-.05.06-.11.1-.19l.03-.06c.24.12.48.26.7.4l-.51,1.09c-.58-.39-1.22-.69-1.9-.9l.25-.53c.06-.01.11-.05.14-.09.03-.05.06-.1.08-.16l.66-1.4c.03-.06.05-.11.07-.17.02-.05.01-.11-.02-.17Zm-3.07,1.63c.06-.03.09-.07.11-.13.02-.05.03-.12.04-.18l.24-1.53c.01-.06.02-.12.02-.18,0-.06-.02-.11-.06-.16l.09-.57c.63.04,1.12.13,1.12.13.12.02.26.05.39.08.13.04.25.11.33.21.09.12.14.24.16.37.02.13.02.25,0,.36-.01.1-.02.21-.03.24l-.04.26c-.03.21-.08.38-.16.53-.07.14-.18.24-.32.3-.14.06-.33.07-.56.04l-.31-.05c-.02.08-.02.15-.03.21,0,.06.02.12.06.16l-.09.58c-.35-.06-.7-.09-1.06-.1l.09-.57Zm4.63,3.55c-.18.22-.28.46-.28.74,0,.48.26.8.66,1.03-.52.17-.9.55-.9,1.14,0,.41.19.7.49.95-.7.33-1.17.95-1.17,1.75,0,1.11.88,1.87,1.94,1.9-1.19,1.99-3.25,3.22-5.59,3.22-3.57,0-6.46-2.89-6.46-6.46s2.89-6.46,6.46-6.46c1.88,0,3.61.8,4.86,2.2Zm-5.28-6.31l.16,1.14c-.27,0-.54.03-.81.06v-.1c-.03-.11-.05-.19-.09-.23-.04-.05-.11-.06-.23-.04h-.05s.08.6.08.6c.21-.03.55-.06.55-.06l.09.64c-.31.02-.55.06-.55.06l.09.63h.05c.08-.02.14-.04.18-.07.03-.03.05-.08.05-.13s0-.13-.02-.22v-.07c.25-.03.52-.05.79-.05l.11,1.19c-.7,0-1.38.1-2.02.29l-.08-.58s.07-.1.07-.16,0-.12-.02-.18l-.22-1.54c0-.06-.02-.12-.03-.18-.02-.06-.05-.1-.11-.13l-.08-.58c.67-.16,1.37-.26,2.08-.29Zm-4.01.97c.11-.04.51-.15.89.12.1.1.18.21.25.35.08.16.13.32.14.48,0,.15-.05.29-.17.4.14-.02.25,0,.34.04.09.05.16.15.24.3l.11.23c.02.05.06.11.09.16.04.05.09.08.15.08l.26.53c-.3.09-.6.21-.88.34-.03-.05-.08-.11-.11-.15-.04-.06-.08-.13-.13-.23-.05-.1-.11-.22-.19-.38-.05-.12-.11-.2-.17-.25-.06-.05-.14-.05-.24,0l-.03.02.16.34c.03.06.05.11.09.16.03.05.08.08.14.09l.25.52c-.32.16-.63.35-.92.55l-.26-.53c.03-.06.03-.11.01-.17-.02-.05-.04-.11-.07-.16l-.67-1.4c-.03-.06-.05-.11-.09-.16-.03-.05-.08-.08-.14-.09l-.26-.53c.54-.35,1.1-.62,1.22-.66Zm-3.17,2.23c.08-.13.18-.25.31-.36.13-.11.28-.2.44-.27.16-.07.34-.11.51-.13l.6.64c-.23.17-.44.36-.65.55-.04-.05-.15-.16-.18-.2-.04-.04-.08-.07-.13-.08-.04-.02-.09,0-.13.04-.04.04-.06.09-.05.13.01.05.04.09.07.13.04.04.07.08.11.11l.87.93s.07.07.11.11.08.07.13.08c.04.01.09,0,.13-.04.04-.04.06-.09.05-.13-.01-.05-.04-.09-.07-.13-.04-.04-.07-.08-.11-.11l-.23-.24c.21-.19.43-.37.65-.54l.69.74c-.01.16-.06.32-.14.47-.08.16-.19.3-.31.43-.13.13-.26.22-.41.3-.14.07-.28.1-.41.09-.12-.01-.23-.04-.32-.1-.1-.05-.18-.12-.27-.2-.08-.08-.17-.17-.25-.26l-.78-.84c-.1-.11-.19-.22-.26-.34-.07-.12-.1-.25-.1-.4,0-.13.05-.27.13-.39Zm-2.15,7.4c0-.45.36-.81.81-.81s.81.36.81.81-.36.81-.81.81-.81-.36-.81-.81Zm1.97,7.16l1.03-1.27-1.39.87c-.18-.21-.34-.43-.5-.65l1.61-1.98c.05-.05.09-.11.13-.17.04-.06.06-.12.06-.19l.44-.39c.18.34.38.66.61.96l-.44.39c-.07-.02-.13,0-.19.05l-.72.79,1.54-.98c.11.14.23.27.36.4l-1.13,1.43.84-.63c.06-.06.09-.12.07-.19l.44-.39c.24.23.49.44.75.63l-.43.39c-.07,0-.13.01-.19.05-.06.03-.12.07-.18.11l-2.12,1.37c-.2-.19-.4-.39-.59-.59Zm3.93,2.05l-.29.52c-.34-.14-.67-.3-.99-.48l.28-.51c.08,0,.13-.03.18-.11.02-.03.05-.12.06-.15l-.37-.2s-.07.11-.09.14c-.05.08-.04.15.01.21l-.28.51c-.28-.16-.55-.34-.81-.53l.28-.51c.06-.01.11-.05.16-.1.05-.05.09-.11.13-.16l1.47-1.88c.34.23.7.44,1.08.61l-.8,2.29c-.02.05-.04.12-.05.19-.01.07,0,.13.03.17Zm3.08-.83c-.26-.02-.51-.06-.76-.1.02-.07.04-.16.05-.22.01-.06.01-.1,0-.14,0-.04-.03-.07-.07-.1-.04-.02-.1-.04-.18-.05l-.13.62c.26.06.55.1.55.1l-.14.63c-.27-.04-.55-.1-.55-.1l-.09.41c-.02.06-.03.12-.03.18,0,.06.01.11.05.16l-.12.57c-.35-.07-.69-.16-1.03-.27l.12-.58c.06-.03.1-.07.12-.12.02-.05.03-.11.05-.17l.32-1.52c.02-.08.03-.15.03-.21,0-.06-.02-.1-.07-.13l.12-.57c.63.23,1.3.38,2,.43l-.25,1.17Zm1.48.18c.2-.01.55-.06.55-.06l.06.64c-.32.05-.55.06-.55.06l.04.42c0,.06.01.12.02.18.01.06.05.1.1.14l.05.58c-.32.03-.65.04-.98.04h-.09s-.05-.58-.05-.58c.05-.04.07-.09.07-.15,0-.06,0-.12,0-.18l-.14-1.55c0-.09-.02-.16-.04-.21-.02-.05-.05-.09-.1-.11l-.05-.58c.13,0,.27.01.4.01.56,0,1.11-.06,1.64-.19l.1,1.2c-.25.05-.5.09-.75.12,0-.07,0-.17-.01-.22,0-.06-.02-.1-.04-.14-.02-.04-.05-.06-.09-.07-.04-.01-.11-.01-.19,0l.05.64Zm2.3,1.57l-.22-.55c.03-.06.04-.11.03-.17-.01-.06-.03-.11-.06-.17l-.58-1.44c-.02-.06-.05-.11-.07-.16-.03-.05-.07-.08-.13-.1l-.22-.54c.35-.09.69-.2,1.02-.33l.22.53c-.03.05-.04.11-.03.17.01.06.03.11.06.17l.64,1.58.08-.03c.07-.03.11-.06.13-.1.02-.04.02-.09,0-.14-.01-.05-.04-.11-.06-.18l-.09-.22c.24-.1.47-.22.7-.34l.5,1.24c-.6.31-1.24.57-1.9.77Zm2.5-1.11l-.36-.49c.02-.06.01-.12-.01-.17-.03-.05-.06-.1-.1-.15l-.9-1.23c-.03-.05-.07-.1-.11-.14-.04-.04-.09-.06-.16-.07l-.34-.47c.62-.34,1.18-.78,1.67-1.28l.71.97c-.19.19-.4.37-.61.54l-.08-.11c-.06-.09-.12-.15-.18-.17-.06-.02-.13,0-.22.07l-.04.03.37.52c.25-.19.44-.35.44-.35l.38.52c-.2.17-.44.35-.44.35l.34.48.04-.03c.07-.05.11-.1.13-.14.01-.04,0-.09-.02-.14-.03-.05-.07-.11-.12-.18l-.02-.03c.21-.17.42-.35.61-.53l.68.94c-.51.47-1.07.9-1.67,1.26Zm3.11-2.84c-.1.15-.23.28-.38.39-.15.11-.31.19-.5.23l-.72-.52c.19-.21.37-.43.54-.66.07.05.11.08.16.12.06.04.11.06.14.07.04,0,.07,0,.1,0,.03-.01.06-.03.08-.06.03-.05.03-.1,0-.15-.03-.05-.06-.1-.12-.13-.09-.06-.17-.1-.23-.1-.07,0-.13.01-.18.05-.06.04-.12.08-.18.14-.14.12-.28.2-.41.26-.13.06-.26.08-.41.05s-.31-.11-.5-.24l-.06-.04c-.14-.1-.24-.21-.31-.3-.07-.1-.11-.22-.12-.37,0-.12.01-.25.06-.37.05-.12.12-.23.2-.34.11-.15.24-.29.38-.39.14-.11.31-.19.51-.24l.58.42c-.18.33-.43.7-.43.7l-.04-.03s-.08-.06-.13-.09c-.05-.03-.09-.04-.14-.04-.04,0-.08.02-.12.06-.03.05-.04.09-.02.14.02.05.05.09.1.13.03.02.05.04.08.05.03.01.06.02.1.02.04,0,.09-.02.13-.05.05-.03.09-.05.12-.08.09-.07.19-.14.3-.21.11-.07.22-.12.33-.16.12-.04.25-.03.38.01.14.05.28.12.41.21h.01c.17.13.31.27.41.42.1.15.14.32.12.5-.02.18-.1.39-.26.61Zm.7-1.37c-.14.04-.28.02-.41-.05-.13-.07-.21-.18-.25-.33-.04-.14-.02-.28.05-.41.07-.13.18-.21.33-.25.14-.04.28-.02.41.05.13.07.21.18.25.33.04.14.02.28-.05.41-.07.13-.18.21-.33.25Z"/>
          <g>
            <path class="cls-3" d="m17.49,13.22c.05.05.1.09.16.12.06.03.12.04.19.04.09,0,.16,0,.23-.03.07-.02.13-.06.2-.12l-.81-.94s-.05.1-.08.18c-.03.08-.04.17-.04.27,0,.11.01.2.04.28.03.08.07.14.12.2Z"/>
            <path class="cls-3" d="m17.77,11.63c.07-.07.12-.15.15-.23.04-.08.05-.17.06-.27,0-.08,0-.15-.03-.2-.02-.05-.04-.09-.07-.12-.03-.03-.05-.04-.09-.05-.03,0-.06-.01-.07-.01-.02,0-.04,0-.07,0-.02,0-.05.02-.09.05-.03.02-.05.06-.07.1-.02.05-.03.11-.03.17,0,.1.02.19.08.27.05.08.13.17.22.27Z"/>
            <path class="cls-3" d="m23.21,15.75c-1.11,0-2-.85-2-1.91,0-.91.68-1.68,1.58-1.86-.45-.14-.78-.54-.78-1.02,0-.58.49-1.06,1.1-1.07-.43-.08-.75-.46-.75-.92,0-.36.2-.68.5-.83-1.11-1.15-2.67-1.87-4.4-1.87-3.38,0-6.12,2.74-6.12,6.12s2.74,6.12,6.12,6.12c2.15,0,4.05-1.11,5.14-2.8-.12.02-.25.03-.38.03Zm-6.62-3.24c.03-.1.08-.19.13-.27.05-.08.11-.14.17-.2.07-.06.13-.11.19-.15-.06-.06-.11-.11-.16-.16-.04-.05-.08-.11-.12-.18-.03-.06-.06-.13-.08-.21-.02-.08-.03-.16-.02-.26,0-.11.02-.21.06-.31.04-.1.1-.19.18-.28.08-.08.19-.14.33-.19.14-.05.3-.08.48-.07.16,0,.31.03.43.07.12.04.22.1.3.17.08.07.14.15.18.25.04.1.06.2.06.31,0,.07-.01.15-.03.24-.02.09-.05.17-.1.24-.06.09-.13.17-.22.24-.09.07-.2.13-.33.18l.58.68v-.77s.74,0,.74,0v.27c0,.07-.01.15-.03.25-.01.1-.03.18-.05.25-.02.08-.05.16-.09.24-.04.08-.09.16-.14.24l.73.84h-.94l-.25-.3c-.15.14-.3.23-.45.29-.15.06-.31.08-.48.08-.36,0-.63-.11-.84-.32-.2-.21-.3-.48-.29-.82,0-.14.02-.26.05-.36Zm2.31,5.13c-2.83,0-5.16-2.08-5.56-4.8,0,0,0-.04,0-.06,0-.21.17-.39.39-.39s.38.17.39.38c.13,2.66,2.36,4.75,5.05,4.75,1.2,0,2.41-.56,2.41-.56-.8.43-1.71.67-2.67.67Z"/>
          </g>
          <rect class="cls-1" width="36.26" height="24.83"/>
        </g>
      </g>
    </g>
  </g>
</svg>