<?xml version="1.0" encoding="UTF-8"?>
<svg id="Capa_2" data-name="Capa 2" xmlns="http://www.w3.org/2000/svg" viewBox="0 0 36.26 24.83">
  <defs>
    <style>
      .cls-1 {
        fill: #8c98a4;
      }

      .cls-2 {
        fill: none;
      }
    </style>
  </defs>
  <g id="Capa_1-2" data-name="Capa 1">
    <g>
      <path class="cls-1" d="m1.38,11.14c-.03-.1-.02-.21,0-.27.04-.17.15-.35.47-.35.3,0,.48.19.48.47v.32h1.29v-.36c0-1.13-1.02-1.31-1.75-1.31-.92,0-1.67.31-1.81,1.15-.04.23-.04.44.01.7.22,1.06,2.07,1.37,2.33,2.04.05.12.04.28.01.38-.04.17-.16.35-.51.35-.32,0-.52-.19-.52-.47v-.5H0v.4C0,14.84.91,15.19,1.88,15.19s1.71-.32,1.83-1.19c.06-.45.02-.74,0-.85-.22-1.09-2.18-1.41-2.33-2.02m16.86.01c-.02-.1-.02-.21,0-.27.04-.17.15-.35.47-.35.3,0,.47.19.47.47v.32h1.28v-.36c0-1.12-1-1.29-1.73-1.29-.91,0-1.66.3-1.8,1.14-.04.23-.04.43.01.69.22,1.05,2.05,1.35,2.31,2.01.05.13.03.29,0,.38-.04.17-.16.35-.5.35-.32,0-.52-.19-.52-.46v-.5h-1.38v.4c0,1.15.9,1.49,1.86,1.49s1.69-.32,1.81-1.17c.06-.44.01-.73,0-.84-.21-1.07-2.16-1.4-2.31-2m11.77,2.82l-1.22-4.17h-1.92v5.13h1.27l-.07-4.31,1.31,4.31h1.84v-5.13h-1.28l.07,4.17ZM5.55,9.8l-.96,5.18h1.4l.72-4.8.71,4.8h1.39l-.96-5.18h-2.3Zm7.83,0l-.65,4.05-.65-4.05h-2.11l-.11,5.18h1.3l.04-4.8.89,4.8h1.31l.89-4.8.04,4.8h1.3l-.12-5.18h-2.11Zm12.05,0h-1.31v3.83c0,.07,0,.14-.01.2-.03.13-.14.38-.5.38s-.47-.25-.49-.38c-.01-.06-.01-.13-.01-.2v-3.83h-1.31v3.72c0,.1,0,.29.01.34.09.97.85,1.28,1.81,1.28s1.72-.31,1.81-1.28c0-.05.02-.25.01-.34v-3.72Zm9,2.27v.76h.53v.75c0,.07,0,.14-.01.2-.02.14-.15.38-.53.38s-.51-.24-.53-.38c0-.06-.01-.13-.01-.2v-2.37c0-.08,0-.18.02-.24.03-.13.14-.38.52-.38.4,0,.5.26.52.38.01.07.02.2.02.2v.29h1.31v-.17s0-.18,0-.34c-.1-.97-.9-1.28-1.82-1.28s-1.71.31-1.82,1.28c-.01.09-.03.25-.03.34v2.18c0,.09,0,.17.02.34.09.95.9,1.28,1.82,1.28s1.74-.34,1.82-1.28c.02-.17.02-.25.02-.34v-1.39h-1.83Z"/>
      <rect class="cls-2" width="36.26" height="24.83"/>
    </g>
  </g>
</svg>