<?xml version="1.0" encoding="UTF-8"?>
<svg id="Capa_2" data-name="Capa 2" xmlns="http://www.w3.org/2000/svg" viewBox="0 0 300 300">
  <defs>
    <style>
      .cls-1 {
        fill: #fff;
      }
    </style>
  </defs>
  <g id="Capa_1-2" data-name="Capa 1">
    <g>
      <g>
        <path class="cls-1" d="m150.02,77.12c34.58,0,69.15,0,103.73,0,4.42,0,5.37.93,5.37,5.27,0,45.02,0,90.03,0,135.05,0,4.34-.95,5.28-5.36,5.28-6.36,0-12.71-.02-19.07.02-1.56.01-3.04-.15-4.34-1.02-8.26-5.54-17.34-7.02-27.16-6.37-8.06.53-16.18.13-24.28.09-1.47,0-2.88.12-4.12.95-8.25,5.53-17.34,6.59-27.15,6.48-33.81-.39-67.64-.15-101.46-.15-4.37,0-5.31-.94-5.31-5.34,0-45.02,0-90.03,0-135.05,0-4.24.97-5.22,5.19-5.22,34.65,0,69.3,0,103.95,0Zm-.29,47.22c32.98,0,65.96-.02,98.93.05,2.31,0,2.95-.63,2.92-2.93-.11-11.34-.09-22.69-.02-34.04.01-1.98-.4-2.77-2.61-2.77-65.96.06-131.91.06-197.87,0-2.1,0-2.71.61-2.69,2.69.09,11.27.04,22.54.04,33.81q0,3.17,3.26,3.18c32.68,0,65.35,0,98.03,0Zm7.37,49.29c0-13-.04-26.01.04-39.01.01-2.01-.46-2.76-2.64-2.75-15.12.09-30.24.09-45.37,0-2.21-.01-2.61.8-2.61,2.77.05,25.93.05,51.87,0,77.8,0,2.01.46,2.76,2.63,2.75,15.12-.09,30.24-.09,45.37,0,2.21.01,2.62-.8,2.61-2.77-.07-12.93-.04-25.86-.04-38.79Zm-58.12.13c0-13-.04-26.01.04-39.01.01-2.09-.45-2.9-2.73-2.88-15.05.1-30.09.08-45.14.01-2,0-2.76.45-2.75,2.63.07,26.01.07,52.02,0,78.03,0,2.16.72,2.65,2.74,2.64,15.05-.07,30.09-.08,45.14.01,2.27.01,2.76-.76,2.75-2.87-.08-12.85-.04-25.71-.04-38.56Zm138.34-.23c0,12.93.06,25.85-.05,38.78-.02,2.36.72,3.02,2.97,2.88,2.78-.18,5.6-.18,8.38,0,2.27.15,2.98-.53,2.96-2.89-.11-13.98-.05-27.97-.05-41.95,0-11.87-.06-23.74.05-35.6.02-2.36-.72-3.02-2.97-2.88-2.78.18-5.6.18-8.38,0-2.27-.15-2.98.53-2.96,2.89.11,12.92.05,25.85.05,38.78Zm-58.12,7.26c0,8.24.03,16.47-.03,24.7-.01,1.69.38,2.49,2.27,2.41,3.24-.13,6.5-.1,9.74,0,1.64.05,2.26-.46,2.26-2.18-.05-16.62-.05-33.24,0-49.86,0-1.73-.64-2.22-2.27-2.17-3.09.09-6.2.13-9.29-.01-2.04-.1-2.76.5-2.73,2.65.12,8.16.05,16.32.05,24.48Zm21.79.02c0,8.24.04,16.47-.03,24.7-.01,1.73.44,2.46,2.29,2.38,3.24-.13,6.5-.11,9.74,0,1.67.05,2.24-.52,2.23-2.21-.05-16.62-.05-33.24,0-49.86,0-1.76-.69-2.19-2.29-2.15-3.17.09-6.35.11-9.52,0-1.87-.07-2.49.55-2.47,2.44.09,8.23.04,16.47.04,24.7Zm-36.32-8.62c0,12.32,0,24.64,0,36.96,0,3.49-.09,3.26,3.2,1.97,2.98-1.18,3.85-2.94,3.83-6.12-.15-22.98-.07-45.95-.09-68.93,0-4.69.58-4.03-4.3-4.21-2.1-.08-2.7.6-2.69,2.69.09,12.55.04,25.09.04,37.64Zm65.06.22c0-.45,0-.91,0-1.36,0-12.24-.03-24.49.04-36.73.01-1.89-.59-2.67-2.46-2.42-.45.06-.91,0-1.36,0q-3.16,0-3.16,3.26c0,22.97.11,45.95-.11,68.92-.04,3.91.98,6.15,4.68,7.42,2.38.81,2.37,1.02,2.37-1.46,0-12.55,0-25.09,0-37.64Zm-32.78-26.29c5.29,0,10.57-.07,15.86.04,1.91.04,2.5-.63,2.43-2.48-.12-3.24-.08-6.49-.02-9.74.03-1.4-.38-2.06-1.92-2.05-10.72.04-21.44.04-32.17,0-1.49,0-1.99.56-1.96,2.01.07,3.32.11,6.65-.02,9.97-.07,1.86.67,2.32,2.39,2.29,5.13-.08,10.27-.03,15.4-.03Z"/>
        <path class="cls-1" d="m77.51,102.68c0,2.35.03,4.69-.01,7.04-.05,2.6-1.34,3.99-3.87,4.02-4.77.05-9.53.05-14.3,0-2.55-.03-3.88-1.39-3.91-3.97-.04-4.69-.04-9.38,0-14.07.02-2.69,1.36-4,4.09-4.03,4.62-.04,9.23-.04,13.85,0,2.84.02,4.11,1.33,4.15,4.21.03,2.27,0,4.54,0,6.81Zm-7.58.04q0-3.49-3.34-3.49-3.6,0-3.6,3.23,0,3.72,3.34,3.72,3.61,0,3.61-3.46Z"/>
        <path class="cls-1" d="m126.4,113.76c-7.11,0-14.21-.05-21.32.03-1.85.02-2.54-.55-2.49-2.45.15-6.04-.65-5.13,4.96-5.15,13.23-.05,26.46.03,39.69-.06,2.26-.02,3.06.59,2.96,2.92-.21,5.39.56,4.66-4.75,4.7-6.35.04-12.7,0-19.05,0Z"/>
        <path class="cls-1" d="m171.6,113.75c-4.08,0-8.16-.05-12.24.02-1.62.03-2.31-.47-2.28-2.19.13-6.44-.7-5.34,5.15-5.4,7.25-.07,14.51.03,21.76-.05,1.82-.02,2.56.5,2.51,2.42-.16,6.11.69,5.09-5.16,5.18-3.25.05-6.5,0-9.75,0Z"/>
        <path class="cls-1" d="m90.11,106.18h.45c5.24,0,6.12,1.12,5.08,6.33-.16.81-.53,1.21-1.33,1.22-2.87,0-5.73,0-8.6,0-.07,0-.17,0-.22-.03-2.16-1.61-.64-3.87-1-5.8-.23-1.25.56-1.73,1.76-1.7,1.28.04,2.56,0,3.85,0,0,0,0,0,0-.01Z"/>
        <path class="cls-1" d="m131.84,193.35c-1.27,3.08-2.32,5.49-3.25,7.96-.85,2.26-2.29,3.42-4.8,3.28-2.11-.12-4.24.01-6.35-.04-2.46-.06-3.87-1.37-3.88-3.77-.04-10.9-.04-21.79,0-32.69,0-2.41,1.41-3.73,3.87-3.78,2.8-.06,5.6-.09,8.4,0,1.64.06,2.38-.46,2.26-2.19-.11-1.58-.05-3.18,0-4.77.07-2.58,1.33-3.83,3.93-3.97.53-.03,1.07,0,1.58-.1.81-.17,1.36-.65,1.36-1.56,0-.91-.55-1.38-1.36-1.56-.44-.1-.9-.08-1.35-.09-.83-.02-1.67-.04-2.5-.02-1.12.03-1.84-.47-1.63-1.61.36-1.96-1.33-5.13.98-5.67,3.54-.83,7.54-1.03,10.73,1.92,5.05,4.66,3.95,12.54-2.25,15.52-.96.46-1.95.72-1.94,2.14.01,1.31.36,1.97,1.8,1.94,2.8-.06,5.6-.03,8.4,0,3.04.03,4.34,1.27,4.35,4.24.02,10.59.02,21.19,0,31.78,0,2.88-1.31,4.19-4.12,4.23-2.19.04-4.39-.04-6.58.02-2.12.06-3.4-.97-4.16-2.85-1.04-2.58-2.12-5.15-3.45-8.37Zm10.28,3.3c.48-.22.44-.63.45-1,0-7.34-.02-14.68.03-22.02.01-1.67-.92-1.78-2.19-1.77-5.68.03-11.35.08-17.03-.03-1.84-.03-2.33.63-2.31,2.38.08,6.89.02,13.77.05,20.66,0,.6-.35,1.38.52,1.79.8-.5.88-1.39,1.18-2.13,1.68-4.13,3.32-8.28,4.98-12.42.75-1.87,1.8-3.32,4.1-3.29,2.19.03,3.2,1.4,3.92,3.2,1.68,4.21,3.38,8.42,5.1,12.62.3.72.32,1.65,1.21,2.01Z"/>
        <path class="cls-1" d="m73.56,204.56c-3.48,0-6.96.03-10.44-.01-2.71-.03-4.04-1.35-4.07-4.05-.04-4.01-.07-8.02.01-12.03.03-1.59-.56-2.08-2.12-2.1-4.31-.05-5.16-.98-5.17-5.22,0-3.03.04-6.05-.01-9.08-.04-2.1.88-3.56,2.85-4.12,4.62-1.3,8.91-3.89,13.93-3.69,1.12.04,1.4-.66,1.39-1.62-.01-1.66-.02-3.33,0-4.99.05-2.91,1.22-4.12,4.1-4.26.45-.02.92,0,1.36-.08.81-.16,1.4-.6,1.42-1.51.03-1.03-.6-1.5-1.51-1.66-.44-.08-.9-.06-1.36-.06-.68-.01-1.36-.02-2.04,0-1.08.02-2.12-.16-1.92-1.54.3-1.98-1.28-5.18.91-5.71,3.62-.87,7.69-1.06,10.91,2,4.91,4.66,3.77,12.42-2.31,15.39-.27.13-.55.24-.84.34-1.35.48-1.19,1.61-1.1,2.66.1,1.21,1.07,1.07,1.89,1.08,5.05.06,9.46,2.44,14.09,3.98,1.55.52,2.17,1.96,2.15,3.66-.04,3.48.02,6.96-.02,10.44-.04,2.69-1.37,3.94-4.11,4.02q-3.14.09-3.14,3.29c0,3.56.02,7.11-.01,10.67-.03,2.86-1.32,4.16-4.17,4.19-3.56.04-7.11,0-10.67,0Zm-6.95-15.75c0,2.04.08,4.09-.02,6.12-.08,1.62.61,2.1,2.14,2.07,3.33-.08,6.66-.1,9.98,0,1.78.06,2.17-.72,2.14-2.3-.08-3.7-.03-7.41-.02-11.11.01-3.62,1.1-4.69,4.73-4.79,1.03-.03,2.45.49,2.52-1.37.06-1.53.16-2.82-1.85-3.54-8.21-2.91-16.34-2.93-24.58-.15-2.06.7-2.5,1.82-2.29,3.69.25,2.15,1.9,1.29,2.99,1.36,2.98.17,4.23,1.35,4.27,4.35.02,1.89,0,3.78,0,5.67Z"/>
      </g>
      <path class="cls-1" d="m150,300C67.29,300,0,232.71,0,150S67.29,0,150,0s150,67.29,150,150-67.29,150-150,150Zm0-296.3C69.33,3.7,3.7,69.33,3.7,150s65.63,146.3,146.3,146.3,146.3-65.63,146.3-146.3S230.67,3.7,150,3.7Z"/>
    </g>
  </g>
</svg>