<?xml version="1.0" encoding="utf-8"?>
<!-- Generator: Adobe Illustrator 27.1.0, SVG Export Plug-In . SVG Version: 6.00 Build 0)  -->
<svg version="1.1" id="Capa_2_00000090268090914762741030000001740249132313468076_"
	 xmlns="http://www.w3.org/2000/svg" xmlns:xlink="http://www.w3.org/1999/xlink" x="0px" y="0px" viewBox="0 0 300 300"
	 style="enable-background:new 0 0 300 300;" xml:space="preserve">
<style type="text/css">
	.st0{fill:#FFFFFF;}
</style>
<g id="Capa_1-2">
	<g>
		<g>
			<path class="st0" d="M150,77.1c34.6,0,69.2,0,103.7,0c4.4,0,5.4,0.9,5.4,5.3c0,45,0,90,0,135.1c0,4.3-1,5.3-5.4,5.3
				c-6.4,0-12.7,0-19.1,0c-1.6,0-3-0.1-4.3-1c-8.3-5.5-17.3-7-27.2-6.4c-8.1,0.5-16.2,0.1-24.3,0.1c-1.5,0-2.9,0.1-4.1,0.9
				c-8.2,5.5-17.3,6.6-27.1,6.5c-33.8-0.4-67.6-0.1-101.5-0.1c-4.4,0-5.3-0.9-5.3-5.3c0-45,0-90,0-135.1c0-4.2,1-5.2,5.2-5.2
				C80.7,77.1,115.4,77.1,150,77.1L150,77.1z M149.7,124.3c33,0,66,0,98.9,0.1c2.3,0,2.9-0.6,2.9-2.9c-0.1-11.3-0.1-22.7,0-34
				c0-2-0.4-2.8-2.6-2.8c-66,0.1-131.9,0.1-197.9,0c-2.1,0-2.7,0.6-2.7,2.7c0.1,11.3,0,22.5,0,33.8c0,2.1,1.1,3.2,3.3,3.2
				C84.4,124.3,117,124.3,149.7,124.3L149.7,124.3z M157.1,173.6c0-13,0-26,0-39c0-2-0.5-2.8-2.6-2.8c-15.1,0.1-30.2,0.1-45.4,0
				c-2.2,0-2.6,0.8-2.6,2.8c0.1,25.9,0.1,51.9,0,77.8c0,2,0.5,2.8,2.6,2.8c15.1-0.1,30.2-0.1,45.4,0c2.2,0,2.6-0.8,2.6-2.8
				C157.1,199.5,157.1,186.6,157.1,173.6L157.1,173.6z M99,173.8c0-13,0-26,0-39c0-2.1-0.4-2.9-2.7-2.9c-15.1,0.1-30.1,0.1-45.1,0
				c-2,0-2.8,0.4-2.8,2.6c0.1,26,0.1,52,0,78c0,2.2,0.7,2.6,2.7,2.6c15-0.1,30.1-0.1,45.1,0c2.3,0,2.8-0.8,2.8-2.9
				C99,199.5,99,186.6,99,173.8L99,173.8z M237.3,173.5c0,12.9,0.1,25.9-0.1,38.8c0,2.4,0.7,3,3,2.9c2.8-0.2,5.6-0.2,8.4,0
				c2.3,0.1,3-0.5,3-2.9c-0.1-14-0.1-28-0.1-41.9c0-11.9-0.1-23.7,0.1-35.6c0-2.4-0.7-3-3-2.9c-2.8,0.2-5.6,0.2-8.4,0
				c-2.3-0.1-3,0.5-3,2.9C237.4,147.7,237.3,160.6,237.3,173.5L237.3,173.5z M179.2,180.8c0,8.2,0,16.5,0,24.7
				c0,1.7,0.4,2.5,2.3,2.4c3.2-0.1,6.5-0.1,9.7,0c1.6,0.1,2.3-0.5,2.3-2.2c-0.1-16.6-0.1-33.2,0-49.9c0-1.7-0.6-2.2-2.3-2.2
				c-3.1,0.1-6.2,0.1-9.3,0c-2-0.1-2.8,0.5-2.7,2.6C179.3,164.5,179.2,172.7,179.2,180.8L179.2,180.8z M201,180.8
				c0,8.2,0,16.5,0,24.7c0,1.7,0.4,2.5,2.3,2.4c3.2-0.1,6.5-0.1,9.7,0c1.7,0.1,2.2-0.5,2.2-2.2c-0.1-16.6-0.1-33.2,0-49.9
				c0-1.8-0.7-2.2-2.3-2.1c-3.2,0.1-6.4,0.1-9.5,0c-1.9-0.1-2.5,0.6-2.5,2.4C201,164.3,201,172.6,201,180.8L201,180.8z M164.7,172.2
				c0,12.3,0,24.6,0,37c0,3.5-0.1,3.3,3.2,2c3-1.2,3.9-2.9,3.8-6.1c-0.1-23-0.1-45.9-0.1-68.9c0-4.7,0.6-4-4.3-4.2
				c-2.1-0.1-2.7,0.6-2.7,2.7C164.7,147.1,164.7,159.6,164.7,172.2L164.7,172.2z M229.7,172.4c0-0.4,0-0.9,0-1.4
				c0-12.2,0-24.5,0-36.7c0-1.9-0.6-2.7-2.5-2.4c-0.4,0.1-0.9,0-1.4,0c-2.1,0-3.2,1.1-3.2,3.3c0,23,0.1,45.9-0.1,68.9
				c0,3.9,1,6.1,4.7,7.4c2.4,0.8,2.4,1,2.4-1.5C229.7,197.5,229.7,185,229.7,172.4L229.7,172.4z M197,146.1c5.3,0,10.6-0.1,15.9,0
				c1.9,0,2.5-0.6,2.4-2.5c-0.1-3.2-0.1-6.5,0-9.7c0-1.4-0.4-2.1-1.9-2.1c-10.7,0-21.4,0-32.2,0c-1.5,0-2,0.6-2,2
				c0.1,3.3,0.1,6.6,0,10c-0.1,1.9,0.7,2.3,2.4,2.3C186.7,146.1,191.8,146.1,197,146.1L197,146.1z"/>
			<path class="st0" d="M77.5,102.7c0,2.3,0,4.7,0,7c-0.1,2.6-1.3,4-3.9,4c-4.8,0.1-9.5,0.1-14.3,0c-2.5,0-3.9-1.4-3.9-4
				c0-4.7,0-9.4,0-14.1c0-2.7,1.4-4,4.1-4c4.6,0,9.2,0,13.9,0c2.8,0,4.1,1.3,4.2,4.2C77.5,98.1,77.5,100.4,77.5,102.7L77.5,102.7z
				 M69.9,102.7c0-2.3-1.1-3.5-3.3-3.5c-2.4,0-3.6,1.1-3.6,3.2c0,2.5,1.1,3.7,3.3,3.7C68.7,106.2,69.9,105,69.9,102.7L69.9,102.7z"
				/>
			<path class="st0" d="M126.4,113.8c-7.1,0-14.2-0.1-21.3,0c-1.8,0-2.5-0.6-2.5-2.4c0.2-6-0.7-5.1,5-5.2c13.2-0.1,26.5,0,39.7-0.1
				c2.3,0,3.1,0.6,3,2.9c-0.2,5.4,0.6,4.7-4.8,4.7C139.1,113.8,132.8,113.8,126.4,113.8L126.4,113.8z"/>
			<path class="st0" d="M171.6,113.8c-4.1,0-8.2-0.1-12.2,0c-1.6,0-2.3-0.5-2.3-2.2c0.1-6.4-0.7-5.3,5.1-5.4
				c7.2-0.1,14.5,0,21.8-0.1c1.8,0,2.6,0.5,2.5,2.4c-0.2,6.1,0.7,5.1-5.2,5.2C178.1,113.8,174.8,113.7,171.6,113.8L171.6,113.8z"/>
			<path class="st0" d="M90.1,106.2h0.4c5.2,0,6.1,1.1,5.1,6.3c-0.2,0.8-0.5,1.2-1.3,1.2c-2.9,0-5.7,0-8.6,0c-0.1,0-0.2,0-0.2,0
				c-2.2-1.6-0.6-3.9-1-5.8c-0.2-1.2,0.6-1.7,1.8-1.7C87.5,106.2,88.8,106.2,90.1,106.2C90.1,106.2,90.1,106.2,90.1,106.2
				L90.1,106.2z"/>
			<path class="st0" d="M131.8,193.4c-1.3,3.1-2.3,5.5-3.2,8c-0.8,2.3-2.3,3.4-4.8,3.3c-2.1-0.1-4.2,0-6.3,0
				c-2.5-0.1-3.9-1.4-3.9-3.8c0-10.9,0-21.8,0-32.7c0-2.4,1.4-3.7,3.9-3.8c2.8-0.1,5.6-0.1,8.4,0c1.6,0.1,2.4-0.5,2.3-2.2
				c-0.1-1.6-0.1-3.2,0-4.8c0.1-2.6,1.3-3.8,3.9-4c0.5,0,1.1,0,1.6-0.1c0.8-0.2,1.4-0.6,1.4-1.6s-0.6-1.4-1.4-1.6
				c-0.4-0.1-0.9-0.1-1.4-0.1c-0.8,0-1.7,0-2.5,0c-1.1,0-1.8-0.5-1.6-1.6c0.4-2-1.3-5.1,1-5.7c3.5-0.8,7.5-1,10.7,1.9
				c5.1,4.7,3.9,12.5-2.2,15.5c-1,0.5-1.9,0.7-1.9,2.1c0,1.3,0.4,2,1.8,1.9c2.8-0.1,5.6,0,8.4,0c3,0,4.3,1.3,4.4,4.2
				c0,10.6,0,21.2,0,31.8c0,2.9-1.3,4.2-4.1,4.2c-2.2,0-4.4,0-6.6,0c-2.1,0.1-3.4-1-4.2-2.9C134.3,199.1,133.2,196.6,131.8,193.4
				L131.8,193.4z M142.1,196.7c0.5-0.2,0.4-0.6,0.4-1c0-7.3,0-14.7,0-22c0-1.7-0.9-1.8-2.2-1.8c-5.7,0-11.4,0.1-17,0
				c-1.8,0-2.3,0.6-2.3,2.4c0.1,6.9,0,13.8,0.1,20.7c0,0.6-0.3,1.4,0.5,1.8c0.8-0.5,0.9-1.4,1.2-2.1c1.7-4.1,3.3-8.3,5-12.4
				c0.7-1.9,1.8-3.3,4.1-3.3c2.2,0,3.2,1.4,3.9,3.2c1.7,4.2,3.4,8.4,5.1,12.6C141.2,195.4,141.2,196.3,142.1,196.7L142.1,196.7z"/>
			<path class="st0" d="M73.6,204.6c-3.5,0-7,0-10.4,0c-2.7,0-4-1.4-4.1-4.1c0-4-0.1-8,0-12c0-1.6-0.6-2.1-2.1-2.1
				c-4.3-0.1-5.2-1-5.2-5.2c0-3,0-6.1,0-9.1c0-2.1,0.9-3.6,2.8-4.1c4.6-1.3,8.9-3.9,13.9-3.7c1.1,0,1.4-0.7,1.4-1.6c0-1.7,0-3.3,0-5
				c0.1-2.9,1.2-4.1,4.1-4.3c0.4,0,0.9,0,1.4-0.1c0.8-0.2,1.4-0.6,1.4-1.5c0-1-0.6-1.5-1.5-1.7c-0.4-0.1-0.9-0.1-1.4-0.1
				c-0.7,0-1.4,0-2,0c-1.1,0-2.1-0.2-1.9-1.5c0.3-2-1.3-5.2,0.9-5.7c3.6-0.9,7.7-1.1,10.9,2c4.9,4.7,3.8,12.4-2.3,15.4
				c-0.3,0.1-0.6,0.2-0.8,0.3c-1.3,0.5-1.2,1.6-1.1,2.7c0.1,1.2,1.1,1.1,1.9,1.1c5.1,0.1,9.5,2.4,14.1,4c1.6,0.5,2.2,2,2.2,3.7
				c0,3.5,0,7,0,10.4c0,2.7-1.4,3.9-4.1,4c-2.1,0.1-3.1,1.2-3.1,3.3c0,3.6,0,7.1,0,10.7c0,2.9-1.3,4.2-4.2,4.2
				C80.7,204.6,77.1,204.6,73.6,204.6L73.6,204.6z M66.6,188.8c0,2,0.1,4.1,0,6.1c-0.1,1.6,0.6,2.1,2.1,2.1c3.3-0.1,6.7-0.1,10,0
				c1.8,0.1,2.2-0.7,2.1-2.3c-0.1-3.7,0-7.4,0-11.1c0-3.6,1.1-4.7,4.7-4.8c1,0,2.4,0.5,2.5-1.4c0.1-1.5,0.2-2.8-1.8-3.5
				c-8.2-2.9-16.3-2.9-24.6-0.1c-2.1,0.7-2.5,1.8-2.3,3.7c0.2,2.1,1.9,1.3,3,1.4c3,0.2,4.2,1.4,4.3,4.4
				C66.6,185,66.6,186.9,66.6,188.8L66.6,188.8z"/>
		</g>
	</g>
</g>
</svg>
