<?xml version="1.0" encoding="utf-8"?>
<!-- Generator: Adobe Illustrator 27.1.0, SVG Export Plug-In . SVG Version: 6.00 Build 0)  -->
<svg version="1.1" id="Capa_2_00000070119451072532312610000000133793376450295439_"
	 xmlns="http://www.w3.org/2000/svg" xmlns:xlink="http://www.w3.org/1999/xlink" x="0px" y="0px" viewBox="0 0 300 300"
	 style="enable-background:new 0 0 300 300;" xml:space="preserve">
<style type="text/css">
	.st0{fill:#FFFFFF;}
</style>
<g id="Capa_1-2">
	<g>
		<path class="st0" d="M238.8,239.6h-12.3c-2.2-1.1-3.2-2.9-3-5.3c0.1-0.9,0-1.8,0-2.6c0-1.9-1-2.8-2.9-2.8c-47.1,0-94.2,0-141.2,0
			c-0.5,0-1,0-1.4,0c-1,0-1.4,0.4-1.4,1.4c0,1.3-0.1,2.7,0,4c0.2,2.4-0.8,4.2-3,5.3H61.2c-2.6-1.5-3-3.9-3-6.5
			c0-55.4,0-110.7,0-166.1c0-0.9,0-1.8,0.2-2.6c0.5-2.6,2.1-4,4.8-4c2.6,0,5.3,0,7.9,0c3.5,0,5.3,1.7,5.3,5.2c0,4.9,0,9.9,0,14.9
			c0,1.4,0.4,2,1.9,2c16.5,0,33,0,49.4,0c0.9,0,1.5-0.3,2.2-0.9c1.7-1.6,2-3.2,0.6-5.1c-0.4-0.5-0.6-1.1-0.8-1.8
			c-1.2-3.6,1.4-7.2,5.2-7.3c10-0.1,20-0.1,29.9,0c3.6,0,6,3.2,5.4,6.6c-0.2,1.1-0.7,2-1.2,2.9c-1.4,2.8,0.3,5.5,3.5,5.5
			c16.1,0,32.2,0,48.3,0c2.4,0,2.4,0,2.4-2.3c0-5,0-10,0-15c0-2.7,1.8-4.6,4.4-4.6c3.1-0.1,6.2-0.1,9.4,0c2,0,3.6,1.4,4.1,3.3
			c0.3,1.1,0.3,2.3,0.3,3.5c0,16.1,0,32.2,0,48.3c0,39.2,0,78.4,0,117.7C241.7,235.7,241.4,238.1,238.8,239.6L238.8,239.6z
			 M133.8,162.2c0,15.3,0,30.7,0,46c0,0.6,0,1.3,0,1.9c0,0.6,0.4,0.9,1,1.1c3.6,1.1,5.3-0.1,5.3-3.6c0-0.7,0-1.4,0-2.1
			c0-2.7,0-5.5,0-8.2c0.1-1.7,1.2-2.8,2.8-2.9c1.6-0.1,2.8,0.9,3.1,2.6c0.1,0.6,0.1,1.3,0.1,1.9c0,3.5,0,7,0,10.5c0,0.8,0,1.5,1,1.8
			c2.6,0.8,3.9-0.1,3.9-2.7c0-7.5,0-15,0-22.6c0-4.1,1.9-5.8,6.1-5.9c2.3,0,4.7,0.4,7,0.2c4.9-0.4,9.7,0.2,14.6-0.1
			c1.6-0.1,2.2-0.4,2.3-2.1c0.1-2.6,1.5-4.5,4-4.7c6-0.4,12.1-0.5,18.1,0c2.2,0.2,3.5,2,3.7,4.1c0.1,1.7,1.1,2.5,2.8,2.6
			c0.4,0,0.7,0,1.1,0c4.4,0.1,6.2,1.8,6.2,6.1c0,7,0,14,0,21c0,4.4-0.6,4,4.3,4.1c1.7,0,2.3-0.5,2.3-2.2c-0.1-13-0.1-26,0-39
			c0-1.6-0.6-2.1-2.2-2.1c-24.3,0-48.6,0-72.9,0c-2.2,0-2.3,0.1-2.3,2.3c0,4.3,0,8.6,0,12.9c0,0.8,0,1.5-0.2,2.2
			c-0.5,1.4-1.5,2.1-3,2c-1.5-0.1-2.4-1-2.7-2.4c-0.1-0.7-0.1-1.5-0.1-2.3c0-20.5-0.1-41,0.1-61.5c0-2.8-0.4-4.9-3.4-5.8
			c-0.4-0.1-0.8-0.5-1.2-0.8c-0.5-0.3-0.9-1.1-1.5-0.7c-0.5,0.3-0.2,1.1-0.3,1.6C133.8,131.2,133.8,146.7,133.8,162.2L133.8,162.2z
			 M185.7,133.2c9.4,0,18.8,0,28.1,0c4,0,5.9,1.9,5.9,5.8c0,4.4,0,8.7,0,13.1c0,1.3,0.5,1.7,1.8,1.8c1.8,0.1,1.9-0.9,1.9-2.2
			c0-12.8,0-25.6,0-38.5c0-2.6,0-2.6-2.8-2.6c-16.4,0-32.7,0-49.1,0c-1.8,0-3.1,0.5-4.4,1.8c-5.2,5-11.6,7.4-19,6.8
			c-1.7-0.1-2.2,0.5-2.2,2.1c0.1,9.8,0,19.6,0,29.4c0,3.3,0,3.3,3.5,3.3c1.6,0,2.1-0.5,2.1-2c-0.1-4.3,0-8.6,0-12.9
			c0-3.8,2-5.7,5.9-5.7C166.9,133.2,176.3,133.2,185.7,133.2L185.7,133.2z M235.8,150.3c0-26.8,0-53.6,0-80.4c0-4.4,0.6-3.9-4.2-3.9
			c-1.6,0-2.2,0.5-2.1,2c0,0.5,0,0.9,0,1.4c0,53.8,0,107.7,0,161.5c0,2.3,1.2,3.4,3.6,3.4c1.9,0,2.8-0.9,2.8-2.7
			C235.8,204.5,235.8,177.4,235.8,150.3L235.8,150.3z M64.2,150.1c0,26.7,0,53.5,0,80.2c0,4.4-0.5,3.8,4.1,3.9
			c1.8,0,2.5-0.6,2.3-2.2c0-0.4,0-0.8,0-1.2c0-53.8,0-107.7,0-161.5c0-2.3-1.2-3.4-3.6-3.4c-1.8,0-2.8,0.9-2.8,2.7
			C64.2,95.8,64.2,123,64.2,150.1L64.2,150.1z M150.1,73.2c-4.1,0-8.2,0-12.3,0c-2.1,0-2.2,0.2-1.3,2.1c1.5,3,3.1,5.9,4.6,8.9
			c0.8,1.7,0.3,3.3-1.2,4c-1.5,0.7-2.9,0.1-3.9-1.4c-1.2-1.8-1.4-1.8-2.4,0.1c-3.3,6.5-3.1,12.9,1.2,18.9c4.3,6,10.5,8.6,18,7.5
			c12.4-1.8,19.5-14.4,14.3-25.4c-0.4-0.9-0.7-2.4-1.8-2.4c-1,0-1.2,1.4-1.6,2.3c-2.8,5.3-5.6,10.7-8.3,16.1
			c-1.1,2.1-2.8,3.2-5.2,3.2s-4.1-1.1-5.2-3.1c-1-1.9-2.1-3.8-3-5.8c-0.8-1.7-0.2-3.2,1.2-3.9c1.5-0.8,3.1-0.2,4.1,1.5
			c0.7,1.3,1.4,2.6,2,3.9c0.2,0.3,0.3,0.9,0.7,0.9c0.6,0.1,0.7-0.6,0.9-0.9c4.3-8.3,8.5-16.6,12.8-24.8c0.7-1.3,0.2-1.7-1.1-1.6
			C158.4,73.2,154.3,73.2,150.1,73.2L150.1,73.2z M150.2,217c-23.2,0-46.3,0-69.4,0c-4.7,0-4.2-0.6-4.2,4.1c0,1.5,0.5,2.2,2.1,2.1
			c0.5,0,1,0,1.4,0c46.7,0,93.3,0,140,0c2.3,0,3.5-1.2,3.5-3.5c0-1.8-0.9-2.7-2.8-2.7C197.2,217,173.7,217,150.2,217L150.2,217z
			 M101.9,104.8c7.9,0,15.8,0,23.6,0c0.9,0,1.9,0.2,1.3-1.3c-1.7-4.4-2-9-0.8-13.6c0.3-1.3-0.1-1.8-1.5-1.8c-15.3,0-30.7,0-46,0
			c-1.6,0-2.1,0.6-2.1,2.1c0.1,4.1,0.1,8.3,0,12.4c0,1.7,0.6,2.2,2.3,2.2C86.5,104.8,94.2,104.8,101.9,104.8L101.9,104.8z
			 M197.9,104.8c7.8,0,15.5,0,23.3,0c1.7,0,2.4-0.4,2.3-2.2c-0.1-4.1,0-8.2,0-12.2c0-2.1-0.1-2.3-2.4-2.3c-15.1,0-30.2,0-45.3,0
			c-2.1,0-2.3,0.2-1.8,2.2c1,4.3,0.8,8.5-0.8,12.6c-0.6,1.5-0.3,1.9,1.4,1.9C182.4,104.8,190.2,104.8,197.9,104.8L197.9,104.8z
			 M102.2,140.4c-3.6,0-7.1,0-10.6,0c-4.4,0-8.9,0-13.3,0c-1.1,0-1.7,0.2-1.7,1.4s0.7,1.5,1.7,1.4c0.5,0,1,0,1.4,0
			c5.8,0,11.5,0,17.3,0c2.1,0,3.3,1,3.3,2.7c0.1,1.7-1,2.7-3.1,2.9c-1,0.1-1.9,0.1-2.9,0.1c-5.2,0-10.5,0-15.7,0
			c-1.1,0-2.1,0.1-2.1,1.5c0,7.1,0,14.1,0,21.1c0,1.7,1.3,1.4,2.3,1.4c1.1,0,2.1,0,2.1-1.5c0-2.7,0-5.4,0-8c-0.1-2.5,0.3-5-0.2-7.5
			c-0.4-2.4,0.7-3.9,3.2-3.9c4.4-0.1,8.9-0.1,13.3,0c2.7,0,3.8,1.5,3.3,4c-0.1,0.4-0.2,0.9-0.2,1.4c0.3,4.5,0.1,9.1,0.1,13.6
			c0,1.2,0.1,2,1.7,2s1.8-0.8,1.7-2c0-0.2,0-0.4,0-0.5c-0.2-5.2,0.2-10.4-0.2-15.5c-0.1-1.7,1.1-2.9,3-3c4.6-0.1,9.3-0.1,13.9,0
			c2.3,0,3.4,1.6,3,3.8c-0.1,0.6-0.2,1.3-0.2,1.9c0,4.4,0,8.7,0,13.1c0,1.5,0.4,2.2,2.1,2.2c1.6,0,2.4-0.4,2.4-2.1
			c-0.1-6.3,0-12.6,0-18.9c0-2.1-1.1-3.1-3.2-3.1c-3.9,0-7.8,0-11.7,0c-1,0-1.9,0-2.9-0.1c-1.7-0.2-2.8-1.4-2.8-2.9
			c0.1-1.5,1.3-2.6,3-2.6c5.2,0,10.5-0.1,15.7,0c1.4,0,2-0.5,1.8-1.9c-0.2-1.2-1.1-1-2-1C118,140.5,110.1,140.5,102.2,140.4
			L102.2,140.4z M102.1,110.6c-3.6,0-7.1,0-10.6,0c-4.3,0-8.7,0-13,0c-1,0-2,0.1-2,1.4c0,7.2,0,14.3,0,21.5c0,1.7,1.3,1.4,2.3,1.4
			c1.1,0,2.1,0,2.1-1.5c-0.2-5.4,0.4-10.8-0.3-16.2c-0.2-1.9,0.8-3.2,2.8-3.3c4.8-0.1,9.6-0.1,14.4,0c1.8,0,3.1,1.2,2.8,2.9
			c-0.4,2.2-0.1,4.4-0.1,6.6c-0.1,3.4,0,6.8-0.1,10.1c0,1.2,0.6,1.4,1.6,1.3c0.8-0.1,1.8,0.2,1.8-1.1c-0.2-5.5,0.3-11.1-0.2-16.6
			c-0.2-2,0.8-3.3,2.9-3.3c4.7,0,9.4,0,14.1,0c2.3,0,3.3,1.4,3,3.6c-0.1,0.6-0.2,1.3-0.2,1.9c0,4.5,0.1,9,0,13.5
			c0,1.7,0.7,2.1,2.3,2.1c1.6,0,2.2-0.4,2.2-2.1c-0.1-6.7-0.1-13.4,0-20.1c0-1.7-0.7-2.2-2.3-2.2C117.8,110.6,110,110.6,102.1,110.6
			L102.1,110.6z M102.3,187.3c-7.9,0-15.8,0-23.6,0c-1.7,0-2.2,0.5-2.2,2.1c0.1,4.1,0,8.2,0,12.2c0,2.7,0,5.5,0,8.2
			c0,1.3,0.9,1.5,1.9,1.4c1-0.1,2.4,0.3,2.4-1.3c0-5.1,0.2-10.1-0.1-15.2c-0.2-3.3,0.4-4.4,3.9-4.4c3.8-0.1,7.7-0.1,11.5,0
			c3.8,0,4.6,1,4.1,4.7c0,0.2-0.1,0.5,0,0.7c0.3,4.7,0.1,9.3,0.1,14c0,1.2,0.4,1.7,1.7,1.7c1.2,0,1.7-0.4,1.7-1.6
			c-0.1-2.9,0.1-5.7-0.1-8.6c-0.1-2.3,0.4-4.5,0-6.8c-0.5-2.4,0.4-3.8,3-3.9c4.6-0.1,9.1-0.1,13.7,0c2.6,0.1,3.6,1.5,3.1,4
			c-0.1,0.5-0.2,1-0.2,1.6c0,4.4,0.1,8.7,0,13.1c0,1.7,0.6,2.2,2.3,2.3c1.8,0,2.2-0.8,2.2-2.3c-0.1-6.5,0-12.9,0-19.4
			c0-2.3,0-2.3-2.5-2.3C117.7,187.3,110,187.3,102.3,187.3L102.3,187.3z M184.9,159.6c-12.3,0-24.5,0-36.8,0c-0.9,0-1.9-0.1-1.9,1.2
			c0,1.3,0.9,1.3,1.8,1.3c0.3,0,0.6,0,0.9,0c24,0,48,0,71.9,0c0.6,0,1.2,0,1.8-0.1c0.5-0.1,0.8-0.5,0.8-1c0-0.5,0-1-0.4-1.3
			c-0.6-0.4-1.3-0.2-1.9-0.2C209,159.6,197,159.6,184.9,159.6L184.9,159.6z M195.5,153.6c0.2,0.1,0.3,0.2,0.5,0.2
			c5.4,0,10.8,0,16.2,0c1.3,0,1.6-0.6,1.6-1.8c0-3.6,0-7.2,0-10.8c0-2.1-1.3-3-3.4-2.1c-0.5,0.2-1,0.6-1.4,1.1
			c-4.3,4.1-8.5,8.2-12.8,12.4C195.9,152.8,195.4,153.1,195.5,153.6L195.5,153.6z M102.2,181.5c7.7,0,15.4,0,23.1,0
			c0.5,0,1.1,0,1.6-0.1c0.7-0.1,1-0.6,1-1.2c0-0.7-0.3-1.1-1-1.2c-0.5-0.1-1-0.1-1.4-0.1c-15.5,0-31,0-46.5,0c-0.5,0-1,0-1.4,0.1
			c-0.7,0.1-1,0.6-1,1.2c0,0.7,0.3,1.1,1,1.2c0.5,0.1,1.1,0.1,1.6,0.1C86.8,181.5,94.5,181.5,102.2,181.5L102.2,181.5z M109.7,127.2
			c0,2,0,4.1,0,6.1c0,1.1,0.5,1.6,1.6,1.6c1.6,0,3.1,0,4.7,0c1.1,0,1.7-0.6,1.7-1.6c0-4.1,0-8.1,0-12.2c0-1.2-0.6-1.7-1.8-1.6
			c-1.4,0-2.9,0-4.3,0c-1.3,0-1.9,0.6-1.8,1.8C109.8,123.2,109.7,125.2,109.7,127.2z M94.7,127.3c0-2,0-4.1,0-6.1
			c0-1.2-0.6-1.8-1.8-1.8c-1.4,0-2.9,0-4.3,0c-1.2,0-1.8,0.5-1.8,1.7c0,4.1,0,8.1,0,12.2c0,1.2,0.7,1.6,1.8,1.6c1.4,0,2.8,0,4.1,0
			c1.5,0.1,2.1-0.6,2-2C94.6,131.1,94.6,129.2,94.7,127.3L94.7,127.3z M94.7,203.7c0-1.9,0-3.8,0-5.8c0-1.3-0.4-2-1.9-1.9
			c-1.4,0.1-2.9,0.1-4.3,0c-1.3,0-1.8,0.6-1.8,1.8c0,3.9,0,7.8,0,11.7c0,1.1,0.5,1.8,1.7,1.8c1.6,0,3.1,0,4.7,0
			c1.1,0,1.6-0.6,1.6-1.6C94.6,207.7,94.6,205.7,94.7,203.7L94.7,203.7z M117.7,203.8c0-2,0-3.9,0-5.9c0-1.2-0.5-1.9-1.8-1.8
			c-1.5,0-3,0-4.5,0c-1.1,0-1.7,0.4-1.7,1.6c0,4,0,8,0,12c0,1.2,0.6,1.7,1.8,1.6c1.4,0,2.9,0,4.3,0c1.4,0,1.9-0.6,1.9-1.9
			C117.7,207.5,117.7,205.6,117.7,203.8L117.7,203.8z M94.7,165.5c0-2,0-4,0-5.9c0-1.2-0.5-1.7-1.7-1.7c-1.5,0-3,0-4.5,0
			c-1.2,0-1.8,0.5-1.8,1.7c0,4,0,7.9,0,11.9c0,1.2,0.6,1.6,1.8,1.6c1.4,0,2.9,0,4.3,0c1.3,0,1.9-0.5,1.8-1.8
			C94.6,169.4,94.6,167.5,94.7,165.5L94.7,165.5z M109.7,165.3c0,2,0,4.1,0,6.1c0,1.1,0.4,1.6,1.6,1.6c1.6,0,3.1,0,4.7,0
			c1.3,0,1.7-0.6,1.7-1.7c0-3.9,0-7.8,0-11.7c0-1.1-0.5-1.8-1.7-1.7c-1.5,0-3,0-4.5,0c-1.3,0-1.8,0.6-1.8,1.8
			C109.8,161.6,109.7,163.4,109.7,165.3z M157.7,153.3c0.2,0.1,0.4,0.1,0.5,0.2c4.7-4.5,9.3-9,14-13.5c0.8-0.8,0.2-1-0.6-1
			c-4.1,0-8.3,0-12.4,0c-1.2,0-1.5,0.6-1.5,1.7c0,2.7,0,5.5,0,8.2C157.7,150.3,157.7,151.8,157.7,153.3L157.7,153.3z M166.7,153.8
			c1.4,0,2.4-0.1,3.5,0c2,0.2,3.5-0.5,4.9-1.9c3.8-3.8,7.7-7.5,11.5-11.3c0.4-0.4,1.1-0.7,1-1.5c-1-0.3-1.9-0.1-2.9-0.2
			c-2.2-0.3-3.8,0.6-5.4,2.1c-3.4,3.5-6.9,6.8-10.4,10.1C168.2,151.9,167.3,152.5,166.7,153.8L166.7,153.8z M187,190.3
			c0,3.3,0.1,6.6,0,10c0,1.5,0.7,1.9,2.1,1.9c1.3,0,2-0.3,2-1.7c-0.1-6.6-0.1-13.2,0-19.7c0-1.4-0.7-1.8-2-1.8
			c-1.4,0-2.1,0.3-2.1,1.8C187,183.9,187,187.1,187,190.3L187,190.3z M200.9,190.5c0-3.3,0-6.5,0-9.8c0-1.4-0.6-1.8-2-1.8
			s-2,0.5-1.9,1.8c0,6.5,0,13.1,0,19.6c0,1.4,0.6,1.8,1.9,1.8s2-0.5,2-1.8C200.8,197,200.9,193.7,200.9,190.5L200.9,190.5z
			 M181.8,153.3c2.7,0.7,4.9,0.7,6.9-1.4c3.6-3.9,7.7-7.5,11.5-11.3c0.4-0.4,1-0.7,1.1-1.5c-2.3-0.2-4.6-0.6-6.4,1.5
			c-1.6,1.9-3.5,3.5-5.3,5.2C187.1,148.3,184.4,150.8,181.8,153.3L181.8,153.3z M161.1,194c0-2.2,0-4.4,0-6.6c0-1.5-0.9-1.5-2.1-1.5
			c-1.1,0-2,0.1-2,1.5c0,4.4,0,8.7,0,13.1c0,1.4,0.8,1.6,2,1.6c1.2,0,2.2-0.1,2.1-1.6C161,198.3,161.1,196.2,161.1,194z M171.1,194
			c0-2.1-0.1-4.2,0-6.3c0-1.4-0.5-1.9-1.9-1.8c-1.3,0-2.2,0.1-2.2,1.8c0.1,4.2,0.1,8.5,0,12.7c0,1.6,0.9,1.7,2.2,1.8
			c1.4,0,2-0.5,1.9-1.8C171.1,198.2,171.1,196.1,171.1,194L171.1,194z M180.9,193.8c0-2.1,0-4.3,0-6.5c0-1.5-1-1.5-2.1-1.5
			c-1.1,0-2,0.1-2,1.5c0,4.4,0,8.7,0,13.1c0,1.4,0.8,1.6,2,1.6c1.2,0,2.2-0.1,2.1-1.6C180.9,198.2,180.9,196,180.9,193.8
			L180.9,193.8z M206.8,193.8c0,2.1,0.1,4.3,0,6.5c-0.1,1.4,0.6,1.8,1.9,1.8c1.3,0,2.2-0.2,2.2-1.8c-0.1-4.2-0.1-8.5,0-12.8
			c0-1.5-0.8-1.7-2-1.7c-1.2,0-2.1,0.2-2.1,1.7C206.9,189.6,206.8,191.7,206.8,193.8L206.8,193.8z M159.1,207.9
			c-1.2-0.1-2.2,0-2.2,1.6c0,1.4,0.6,1.8,2,1.8c1.2,0,2.1-0.1,2.1-1.6C161.1,208.2,160.5,207.8,159.1,207.9z M169.1,207.9
			c-1.3-0.1-2.1,0.2-2.1,1.7c0,1.5,0.8,1.7,2.1,1.7c1.3,0,2-0.3,2.1-1.7C171.2,208,170.3,207.8,169.1,207.9L169.1,207.9z M179,207.9
			c-1.2-0.1-2.2,0-2.2,1.6c0,1.4,0.6,1.9,2,1.8c1.2,0,2.1-0.1,2.2-1.6C181,208.3,180.3,207.7,179,207.9L179,207.9z M189.1,207.9
			c-1.2-0.1-2.2,0-2.2,1.6c0,1.4,0.7,1.8,2,1.8c1.2,0,2.1-0.1,2.1-1.6C191,208.2,190.4,207.7,189.1,207.9L189.1,207.9z M208.9,207.9
			c-1.2-0.1-2.1,0.1-2.1,1.6c0,1.4,0.7,1.8,2,1.8c1.2,0,2.1-0.2,2.1-1.7C210.9,208.1,210.2,207.8,208.9,207.9L208.9,207.9z
			 M199,211.2c1.2,0.1,1.8-0.4,1.8-1.7c0-1.5-0.8-1.7-2.1-1.7c-1.3,0-1.8,0.5-1.8,1.8C197,211,197.7,211.3,199,211.2L199,211.2z"/>
	</g>
</g>
</svg>
