<?xml version="1.0" encoding="UTF-8"?>
<svg id="Capa_2" data-name="Capa 2" xmlns="http://www.w3.org/2000/svg" viewBox="0 0 300 300">
  <defs>
    <style>
      .cls-1 {
        fill: #fff;
      }
    </style>
  </defs>
  <g id="Capa_1-2" data-name="Capa 1">
    <g>
      <path class="cls-1" d="m238.78,239.61h-12.27c-2.18-1.13-3.23-2.86-3.03-5.29.07-.87.01-1.75.01-2.62q0-2.79-2.87-2.8c-47.08,0-94.16,0-141.23,0-.48,0-.96.01-1.44,0-.98-.01-1.43.45-1.42,1.39,0,1.34-.08,2.68.01,4.02.16,2.43-.84,4.16-3.04,5.29h-12.27c-2.58-1.49-2.95-3.87-2.95-6.5.02-55.37.01-110.73.02-166.1,0-.87.03-1.75.18-2.61.46-2.64,2.08-3.97,4.82-3.99,2.65-.02,5.29-.02,7.94,0,3.54.02,5.26,1.7,5.27,5.19.02,4.95.04,9.91-.01,14.86-.01,1.37.37,2.01,1.93,2.01,16.48-.04,32.96-.03,49.43-.02.9,0,1.53-.31,2.19-.95,1.66-1.58,1.98-3.17.57-5.05-.38-.51-.61-1.14-.81-1.75-1.18-3.59,1.36-7.24,5.21-7.27,9.98-.07,19.97-.06,29.95,0,3.59.02,6.04,3.15,5.39,6.58-.2,1.06-.71,1.97-1.19,2.91-1.42,2.82.28,5.51,3.53,5.51,16.12,0,32.23,0,48.35,0,2.39,0,2.44-.04,2.44-2.34,0-5.01-.02-10.02.02-15.04.02-2.66,1.8-4.57,4.36-4.63,3.13-.07,6.25-.06,9.38,0,2.04.04,3.65,1.37,4.15,3.28.3,1.14.32,2.3.32,3.47,0,16.09,0,32.17,0,48.26,0,39.22,0,78.44.01,117.67,0,2.62-.36,5.02-2.95,6.5Zm-104.94-77.41c0,15.33,0,30.66,0,45.98,0,.64,0,1.28.04,1.92.03.59.38.93.97,1.1,3.62,1.05,5.28-.07,5.28-3.6,0-.7,0-1.4,0-2.1,0-2.74-.04-5.48.04-8.22.05-1.72,1.2-2.83,2.76-2.9,1.59-.08,2.78.89,3.09,2.59.11.63.1,1.28.1,1.92.01,3.5,0,6.99.01,10.49,0,.76-.03,1.52.98,1.82,2.61.77,3.9-.1,3.9-2.67,0-7.52-.02-15.04.01-22.55.02-4.06,1.89-5.83,6.1-5.88,2.34-.03,4.73.38,7.01.19,4.87-.42,9.71.21,14.56-.15,1.55-.12,2.25-.43,2.29-2.08.06-2.63,1.5-4.51,3.96-4.68,6.03-.41,12.1-.46,18.13.03,2.19.18,3.53,2,3.7,4.14q.2,2.54,2.81,2.55c.36,0,.72,0,1.08,0,4.41.05,6.2,1.81,6.2,6.13,0,6.99-.01,13.99,0,20.98.01,4.37-.61,4.03,4.31,4.1,1.68.02,2.34-.48,2.33-2.21-.06-13-.06-25.99,0-38.99,0-1.63-.58-2.1-2.21-2.1-24.3.04-48.59.02-72.89.03-2.2,0-2.29.1-2.29,2.32,0,4.31,0,8.63,0,12.94,0,.76.02,1.51-.25,2.25-.5,1.38-1.48,2.14-2.99,2.03-1.51-.11-2.4-1.02-2.66-2.43-.14-.74-.08-1.51-.08-2.27,0-20.51-.06-41.03.06-61.54.02-2.79-.39-4.87-3.38-5.82-.44-.14-.79-.54-1.2-.76-.5-.27-.9-1.05-1.51-.7-.53.31-.25,1.08-.26,1.64-.01,15.5,0,31.01,0,46.51Zm51.85-29.03c9.38,0,18.76,0,28.14,0,4.02,0,5.93,1.88,5.95,5.81.02,4.37.03,8.74,0,13.11-.01,1.28.52,1.71,1.82,1.76,1.76.07,1.92-.86,1.91-2.2-.03-12.82-.01-25.64-.02-38.46,0-2.57-.02-2.59-2.75-2.59-16.35,0-32.71.02-49.06-.04-1.82,0-3.12.51-4.43,1.76-5.25,4.99-11.57,7.38-18.97,6.77-1.71-.14-2.19.5-2.18,2.08.05,9.79.02,19.58.02,29.37,0,3.34,0,3.28,3.47,3.31,1.55.01,2.14-.49,2.11-2.02-.07-4.31-.04-8.62-.02-12.93.02-3.8,1.98-5.72,5.87-5.72,9.38-.01,18.76,0,28.14,0Zm50.07,17.1c0-26.8,0-53.6,0-80.4,0-4.4.55-3.86-4.22-3.95-1.56-.03-2.25.51-2.12,2.02.04.46,0,.93,0,1.4,0,53.83,0,107.67,0,161.5q0,3.41,3.55,3.41,2.79,0,2.79-2.7c0-27.09,0-54.18,0-81.27Zm-171.52-.16c0,26.74,0,53.48,0,80.22,0,4.36-.51,3.83,4.06,3.94,1.75.04,2.46-.57,2.28-2.23-.04-.4,0-.81,0-1.22,0-53.83,0-107.67,0-161.5q0-3.39-3.57-3.39-2.77,0-2.77,2.72c0,27.15,0,54.3,0,81.45Zm85.87-76.92c-4.09,0-8.18,0-12.27,0-2.15,0-2.23.16-1.27,2.06,1.52,2.98,3.09,5.93,4.55,8.93.84,1.74.26,3.34-1.24,4.04-1.47.68-2.93.14-3.95-1.44-1.16-1.81-1.44-1.83-2.44.11-3.33,6.5-3.08,12.93,1.22,18.86,4.33,5.97,10.48,8.62,18.01,7.52,12.42-1.81,19.47-14.39,14.3-25.37-.43-.91-.67-2.37-1.81-2.38-1.03,0-1.19,1.45-1.64,2.29-2.81,5.35-5.56,10.72-8.34,16.08-1.07,2.05-2.81,3.21-5.17,3.24-2.36.03-4.14-1.09-5.23-3.13-1.02-1.91-2.06-3.83-2.96-5.79-.77-1.67-.21-3.23,1.21-3.92,1.52-.75,3.11-.2,4.07,1.49.72,1.28,1.35,2.6,2.04,3.9.19.35.29.88.74.93.62.07.7-.56.9-.95,4.29-8.28,8.54-16.57,12.84-24.85.68-1.31.23-1.65-1.1-1.64-4.15.02-8.3,0-12.45,0Zm.07,143.83c-23.15,0-46.3,0-69.45,0-4.72,0-4.15-.6-4.24,4.11-.03,1.48.5,2.21,2.07,2.09.48-.03.96,0,1.44,0,46.66,0,93.32,0,139.99,0q3.5,0,3.5-3.49,0-2.72-2.77-2.72c-23.51,0-47.02,0-70.53,0Zm-48.3-112.18c7.88,0,15.76,0,23.63,0,.89,0,1.94.24,1.35-1.33-1.67-4.43-2.01-8.97-.8-13.56.35-1.35-.14-1.77-1.51-1.77-15.33.02-30.67.03-46,0-1.6,0-2.08.63-2.06,2.1.07,4.14.09,8.28-.01,12.41-.04,1.72.6,2.2,2.31,2.18,7.7-.07,15.39-.03,23.09-.03Zm96.05,0c7.76,0,15.52-.04,23.27.03,1.69.01,2.37-.43,2.32-2.17-.11-4.08-.03-8.16-.04-12.24,0-2.12-.14-2.27-2.38-2.27-15.09,0-30.19,0-45.28,0-2.14,0-2.26.15-1.77,2.25,1.01,4.26.75,8.46-.77,12.55-.55,1.48-.3,1.89,1.37,1.88,7.76-.07,15.51-.03,23.27-.03Zm-95.69,35.59c-3.55,0-7.09,0-10.64,0-4.45,0-8.9.01-13.35,0-1.05,0-1.74.23-1.74,1.44,0,1.21.68,1.49,1.74,1.45.48-.02.96,0,1.44,0,5.77,0,11.54-.01,17.31.01,2.06,0,3.26,1.02,3.31,2.68.05,1.67-1.03,2.7-3.12,2.89-.96.09-1.92.1-2.88.11-5.23.01-10.46,0-15.69,0-1.09,0-2.1.07-2.1,1.51,0,7.05,0,14.1,0,21.15,0,1.67,1.28,1.36,2.33,1.39,1.08.04,2.1.03,2.09-1.46-.03-2.68.04-5.36-.01-8.04-.05-2.5.26-5.01-.18-7.49-.43-2.43.66-3.91,3.18-3.95,4.45-.07,8.9-.06,13.35,0,2.65.03,3.75,1.48,3.26,4.03-.09.45-.21.92-.18,1.38.31,4.54.1,9.09.13,13.63,0,1.19.07,1.97,1.7,1.97,1.63,0,1.77-.8,1.67-1.98-.01-.17,0-.35,0-.52-.15-5.17.25-10.35-.15-15.52-.13-1.73,1.07-2.93,3.03-2.97,4.63-.07,9.26-.08,13.89,0,2.32.04,3.44,1.57,3.04,3.77-.11.63-.22,1.26-.23,1.9-.02,4.37.04,8.74-.03,13.11-.03,1.53.38,2.22,2.12,2.2,1.62-.02,2.39-.36,2.37-2.14-.09-6.29-.03-12.58-.03-18.88q0-3.08-3.19-3.09c-3.91,0-7.82,0-11.72,0-.96,0-1.93-.04-2.88-.15-1.74-.21-2.82-1.38-2.75-2.88.07-1.51,1.26-2.61,3.01-2.63,5.23-.04,10.46-.05,15.69,0,1.43.01,2.02-.53,1.8-1.88-.18-1.18-1.14-1.01-1.96-1.01-7.88,0-15.75,0-23.63,0Zm-.12-29.82c-3.55,0-7.09,0-10.64,0-4.33,0-8.66,0-12.98,0-1.03,0-1.97.07-1.97,1.42,0,7.16,0,14.33,0,21.49,0,1.67,1.29,1.35,2.33,1.39,1.08.04,2.12.03,2.08-1.46-.17-5.41.36-10.82-.3-16.22-.23-1.89.85-3.25,2.8-3.27,4.81-.05,9.62-.05,14.43,0,1.84.02,3.09,1.23,2.77,2.91-.42,2.22-.05,4.41-.1,6.61-.07,3.38,0,6.76-.06,10.13-.02,1.18.64,1.35,1.61,1.3.81-.05,1.85.21,1.8-1.09-.2-5.52.31-11.05-.17-16.56-.17-2.01.85-3.3,2.95-3.31,4.69-.04,9.38-.04,14.07,0,2.26.02,3.34,1.41,2.97,3.59-.11.63-.24,1.26-.24,1.89-.02,4.49.05,8.97-.04,13.46-.03,1.68.67,2.06,2.26,2.06,1.61,0,2.25-.44,2.23-2.09-.07-6.7-.08-13.4,0-20.1.02-1.73-.66-2.2-2.33-2.19-7.81.05-15.63.02-23.44.02Zm.18,76.67c-7.88,0-15.75.03-23.63-.03-1.66-.01-2.22.52-2.19,2.13.09,4.08.03,8.16.03,12.23,0,2.74.02,5.48,0,8.21,0,1.33.89,1.51,1.94,1.45,1.02-.05,2.42.33,2.43-1.3.04-5.07.18-10.14-.09-15.2-.18-3.28.45-4.39,3.91-4.45,3.85-.07,7.69-.05,11.54-.01,3.82.04,4.63,1,4.13,4.66-.03.23-.05.47-.03.7.33,4.66.13,9.32.14,13.98,0,1.21.44,1.66,1.68,1.66,1.21,0,1.74-.38,1.71-1.62-.06-2.85.06-5.71-.05-8.56-.08-2.27.44-4.53,0-6.79-.48-2.41.45-3.82,3-3.91,4.56-.15,9.14-.15,13.7-.01,2.64.08,3.56,1.49,3.08,4-.1.51-.16,1.04-.16,1.56-.01,4.37.06,8.74-.04,13.11-.04,1.68.57,2.25,2.29,2.26,1.82.01,2.21-.76,2.2-2.34-.07-6.47-.02-12.93-.03-19.4,0-2.27-.04-2.31-2.48-2.31-7.69,0-15.39,0-23.08,0Zm82.56-27.63c-12.26,0-24.52,0-36.78,0-.92,0-1.89-.07-1.92,1.24-.03,1.29.87,1.34,1.83,1.33.3,0,.6,0,.9,0,23.98,0,47.96,0,71.95,0,.6,0,1.21,0,1.8-.08.54-.07.8-.47.83-.99.03-.48.03-.96-.43-1.26-.59-.38-1.28-.24-1.93-.24-12.08,0-24.16,0-36.24,0Zm10.59-6c.16.06.32.16.48.16,5.41.01,10.82,0,16.24.03,1.29,0,1.65-.62,1.65-1.75-.02-3.61,0-7.23,0-10.84,0-2.15-1.27-2.97-3.4-2.14-.53.2-.99.65-1.41,1.06-4.26,4.11-8.51,8.23-12.76,12.36-.32.31-.81.53-.78,1.13Zm-93.25,27.81c7.69,0,15.38,0,23.06,0,.54,0,1.08.01,1.62-.05.74-.09.96-.59.96-1.25,0-.67-.26-1.14-.99-1.23-.47-.06-.96-.05-1.44-.05-15.5,0-30.99,0-46.49,0-.48,0-.96,0-1.44.05-.74.09-.96.59-.96,1.25,0,.67.26,1.15.99,1.23.53.06,1.08.05,1.62.05,7.69,0,15.38,0,23.06,0Zm7.53-54.29c0,2.04,0,4.07,0,6.11,0,1.07.49,1.64,1.62,1.63,1.56,0,3.12,0,4.68,0,1.13,0,1.67-.56,1.67-1.61.01-4.07.01-8.14,0-12.21,0-1.16-.64-1.67-1.83-1.64-1.44.03-2.88.03-4.32,0-1.3-.03-1.86.55-1.83,1.79.03,1.98,0,3.95.01,5.93Zm-15.08.17c0-2.03-.02-4.07,0-6.1.02-1.24-.56-1.82-1.85-1.8-1.44.02-2.88.03-4.32,0-1.19-.02-1.82.49-1.82,1.65,0,4.07,0,8.13,0,12.2,0,1.17.67,1.65,1.84,1.63,1.38-.03,2.76-.04,4.14,0,1.48.05,2.05-.61,2.01-2-.05-1.86-.01-3.72-.02-5.58Zm0,76.36c0-1.92-.04-3.84.01-5.76.03-1.3-.44-1.97-1.87-1.92-1.44.05-2.88.05-4.32,0-1.34-.04-1.82.6-1.82,1.81.01,3.9.01,7.79,0,11.69,0,1.13.47,1.76,1.7,1.75,1.56-.01,3.12,0,4.68,0,1.12,0,1.63-.55,1.61-1.63-.02-1.98,0-3.95,0-5.93Zm23.06.08c0-1.98-.01-3.95,0-5.93.01-1.2-.46-1.86-1.8-1.82-1.5.04-3,.03-4.5,0-1.1-.01-1.69.43-1.68,1.55,0,4.01.02,8.02,0,12.04,0,1.21.63,1.66,1.78,1.65,1.44,0,2.88-.03,4.32.01,1.4.04,1.93-.62,1.9-1.92-.04-1.86-.01-3.72-.01-5.58Zm-23.06-38.24c0-1.98-.03-3.96,0-5.94.02-1.17-.48-1.73-1.71-1.7-1.5.03-3.01.04-4.51,0-1.22-.03-1.77.5-1.77,1.67,0,3.96,0,7.92,0,11.89,0,1.2.64,1.65,1.82,1.62,1.44-.04,2.89-.04,4.33,0,1.29.04,1.88-.47,1.84-1.76-.05-1.92-.01-3.85-.01-5.77Zm15.08-.23c0,2.04.02,4.08,0,6.12-.01,1.07.44,1.64,1.6,1.63,1.56-.02,3.13-.03,4.69,0,1.26.03,1.71-.61,1.7-1.73,0-3.9,0-7.81,0-11.71,0-1.13-.46-1.75-1.72-1.72-1.5.03-3.01.04-4.51,0-1.35-.04-1.8.59-1.77,1.82.05,1.86.01,3.73.01,5.59Zm47.95-12.01c.17.06.35.11.52.17,4.66-4.51,9.32-9.01,13.96-13.54.79-.77.19-.97-.55-.98-4.14,0-8.28,0-12.41,0-1.19,0-1.53.65-1.53,1.68.02,2.73,0,5.46,0,8.19,0,1.49,0,2.98,0,4.47Zm8.98.53c1.37,0,2.45-.1,3.51.02,2.03.23,3.49-.51,4.9-1.93,3.77-3.83,7.69-7.52,11.53-11.28.42-.42,1.12-.72,1.01-1.53-.96-.32-1.94-.05-2.88-.19-2.24-.32-3.83.56-5.36,2.12-3.38,3.47-6.94,6.76-10.4,10.15-.75.73-1.65,1.34-2.32,2.63Zm20.29,36.47c0,3.32.05,6.64-.02,9.96-.04,1.53.71,1.87,2.1,1.85,1.29-.02,2.03-.28,2.02-1.74-.05-6.58-.05-13.16,0-19.74.01-1.45-.69-1.75-2-1.76-1.37,0-2.15.27-2.12,1.83.08,3.2.02,6.41.02,9.61Zm13.91.18c0-3.26-.03-6.53.01-9.79.02-1.37-.58-1.83-1.96-1.83-1.38,0-1.96.46-1.95,1.83.03,6.53.03,13.05,0,19.58,0,1.37.58,1.83,1.95,1.83,1.37,0,1.98-.47,1.96-1.83-.05-3.26-.01-6.53-.02-9.79Zm-19.02-37.21c2.71.69,4.88.73,6.87-1.41,3.65-3.93,7.67-7.54,11.53-11.3.41-.4.98-.69,1.12-1.48-2.34-.21-4.55-.59-6.38,1.53-1.62,1.87-3.52,3.5-5.32,5.21-2.6,2.49-5.21,4.97-7.81,7.45Zm-20.78,40.74c0-2.21-.03-4.42,0-6.63.02-1.47-.94-1.5-2.05-1.51-1.12,0-2.04.08-2.03,1.53.03,4.36.04,8.73,0,13.09-.01,1.41.79,1.6,1.97,1.6,1.19,0,2.17-.07,2.13-1.62-.06-2.15-.01-4.31-.02-6.46Zm10.08-.04c0-2.1-.05-4.19.02-6.28.04-1.37-.54-1.86-1.93-1.83-1.29.02-2.22.14-2.19,1.75.06,4.25.06,8.5,0,12.74-.02,1.62.92,1.72,2.2,1.75,1.4.03,1.96-.48,1.91-1.84-.07-2.09-.02-4.19-.02-6.28Zm9.79-.15c0-2.15-.02-4.31,0-6.46.02-1.47-.98-1.48-2.07-1.49-1.13,0-2.04.08-2.03,1.53.03,4.37.04,8.74,0,13.1-.01,1.42.82,1.59,1.98,1.59,1.2,0,2.17-.08,2.13-1.63-.06-2.21-.01-4.43-.02-6.64Zm25.87,0c0,2.15.05,4.31-.02,6.46-.05,1.39.58,1.83,1.94,1.82,1.31-.02,2.2-.17,2.17-1.77-.07-4.25-.06-8.5,0-12.75.02-1.47-.76-1.73-2.03-1.72-1.24.01-2.12.16-2.07,1.68.07,2.09.02,4.19.02,6.29Zm-47.65,14.09c-1.22-.08-2.18,0-2.19,1.57,0,1.41.65,1.84,1.97,1.81,1.18-.03,2.13-.1,2.15-1.64.02-1.41-.62-1.9-1.93-1.74Zm9.94,0c-1.27-.14-2.05.19-2.05,1.66,0,1.48.84,1.7,2.08,1.71,1.27,0,2.04-.28,2.05-1.74,0-1.5-.82-1.77-2.08-1.64Zm9.95,0c-1.21-.07-2.2-.03-2.22,1.55,0,1.4.63,1.85,1.96,1.82,1.17-.03,2.15-.08,2.17-1.62.02-1.4-.6-1.92-1.92-1.75Zm10.06,0c-1.22-.08-2.17.01-2.18,1.57,0,1.41.66,1.83,1.98,1.8,1.18-.02,2.13-.1,2.14-1.64.01-1.42-.63-1.9-1.94-1.74Zm19.79,0c-1.24-.11-2.12.09-2.12,1.61,0,1.45.74,1.78,2.02,1.76,1.22-.01,2.09-.19,2.1-1.69.01-1.46-.72-1.83-2.01-1.69Zm-9.85,3.34c1.17.12,1.79-.37,1.82-1.67.03-1.49-.82-1.69-2.07-1.7-1.31,0-1.84.49-1.82,1.76.02,1.36.78,1.7,2.08,1.61Z"/>
      <path class="cls-1" d="m150,300C67.29,300,0,232.71,0,150S67.29,0,150,0s150,67.29,150,150-67.29,150-150,150Zm0-296.3C69.33,3.7,3.7,69.33,3.7,150s65.63,146.3,146.3,146.3,146.3-65.63,146.3-146.3S230.67,3.7,150,3.7Z"/>
    </g>
  </g>
</svg>