<?xml version="1.0" encoding="UTF-8"?>
<svg id="Capa_2" data-name="Capa 2" xmlns="http://www.w3.org/2000/svg" viewBox="0 0 300 300">
  <defs>
    <style>
      .cls-1 {
        fill: #fff;
      }
    </style>
  </defs>
  <g id="Capa_1-2" data-name="Capa 1">
    <g>
      <g>
        <path class="cls-1" d="m149.87,233.56c-32.28,0-64.56,0-96.85,0-3.8,0-4.58-.8-4.58-4.66,0-17.68.04-35.35-.04-53.03-.01-2.93.82-4.74,4.52-4.6,4.57.17,9.14,0,13.72.06,1.11.01,1.53-.22,1.5-1.43-.09-3.41-.11-6.83,0-10.24.05-1.4-.52-1.5-1.65-1.49-4.78.05-9.55.04-14.33.02-2.61-.01-3.71-1.07-3.71-3.68-.01-18.29-.01-36.58,0-54.87,0-2.61,1.09-3.69,3.69-3.7,4.85-.02,9.69-.04,14.54.02,1.17.02,1.48-.33,1.45-1.48-.07-3.41-.08-6.83,0-10.24.03-1.18-.34-1.48-1.48-1.45-2.66.08-5.32.04-7.98.02-2.52-.02-3.63-1.07-3.66-3.52-.04-3.14-.04-6.28,0-9.42.03-2.34,1.15-3.43,3.53-3.43,8.39-.02,16.79-.02,25.18,0,2.55,0,4.01,1.46,4.03,3.99.02,2.8.02,5.6,0,8.39-.02,2.52-1.48,3.96-4.03,3.99-2.46.02-4.92.06-7.37-.02-1.24-.04-1.79.16-1.74,1.61.12,3.34.12,6.69,0,10.03-.05,1.36.45,1.52,1.63,1.52,6.48-.05,12.97-.03,19.45-.03,42.52,0,85.04-.01,127.56.05,1.85,0,2.25-.49,2.17-2.23-.15-3.13-.12-6.28,0-9.42.05-1.32-.39-1.58-1.6-1.54-2.66.09-5.32.05-7.98.02-2.38-.02-3.51-1.09-3.54-3.43-.05-3.14-.04-6.28,0-9.42.03-2.38,1.13-3.51,3.45-3.52,8.46-.02,16.93-.02,25.39,0,2.45,0,3.88,1.46,3.91,3.91.03,2.87.02,5.73,0,8.6-.01,2.35-1.48,3.83-3.89,3.86-2.66.04-5.32.05-7.98-.01-.99-.02-1.27.27-1.25,1.25.06,3.48.07,6.96,0,10.44-.03,1.16.31,1.48,1.47,1.46,4.64-.07,9.28-.03,13.92-.02,2.97,0,4.3,1.34,4.3,4.35,0,17.81,0,35.63,0,53.44,0,3.12-1.31,4.46-4.39,4.46-4.57,0-9.15.05-13.72-.03-1.24-.02-1.63.26-1.59,1.56.1,3.34.09,6.69,0,10.03-.03,1.25.26,1.61,1.56,1.59,4.64-.09,9.28-.04,13.92-.03,2.8,0,4.21,1.42,4.21,4.23,0,17.88,0,35.76,0,53.65,0,3.07-1.34,4.38-4.47,4.38-32.42,0-64.84,0-97.26,0Zm.36-131.07c-31.13,0-62.25.01-93.38-.04-1.52,0-1.9.34-1.89,1.88.07,15.15.07,30.31,0,45.46,0,1.53.35,1.89,1.88,1.89,62.12-.04,124.23-.04,186.35,0,1.52,0,1.9-.34,1.89-1.88-.07-15.09-.07-30.17,0-45.26,0-1.7-.39-2.1-2.09-2.1-30.92.06-61.84.04-92.77.04Zm-.21,124.51c12.49,0,24.98-.03,37.47.04,1.53,0,1.89-.36,1.88-1.89-.06-15.15-.06-30.31,0-45.46,0-1.53-.36-1.89-1.89-1.88-24.98.05-49.97.05-74.95,0-1.53,0-1.89.36-1.88,1.88.06,15.15.06,30.31,0,45.46,0,1.53.36,1.89,1.89,1.88,12.49-.07,24.98-.04,37.47-.04Zm-70.34-49.15c-7.64,0-15.29.04-22.93-.04-1.43-.01-1.79.33-1.78,1.77.06,15.22.06,30.44,0,45.66,0,1.43.33,1.79,1.77,1.78,15.22-.06,30.44-.06,45.66,0,1.43,0,1.79-.33,1.78-1.77-.06-15.22-.06-30.44,0-45.66,0-1.43-.33-1.8-1.77-1.79-7.58.08-15.15.04-22.73.04Zm140.61,49.15c7.64,0,15.29-.03,22.93.03,1.3,0,1.87-.12,1.87-1.69-.07-15.29-.06-30.58,0-45.87,0-1.38-.41-1.65-1.7-1.65-15.29.04-30.58.05-45.87,0-1.38,0-1.65.41-1.65,1.7.04,15.29.05,30.58,0,45.87,0,1.38.4,1.66,1.7,1.65,7.58-.06,15.15-.03,22.73-.03Zm-70.47-55.7c24.57,0,49.15-.02,73.72.04,1.52,0,1.96-.34,1.89-1.88-.14-3.07-.15-6.15,0-9.21.09-1.72-.4-2.1-2.1-2.09-32.56.06-65.12.04-97.68.04-16.38,0-32.76.02-49.15-.04-1.52,0-1.96.34-1.89,1.88.14,3.07.15,6.15,0,9.21-.09,1.72.4,2.1,2.1,2.09,24.37-.06,48.74-.04,73.11-.04Zm-78.63-95.02c2.93,0,5.87-.09,8.8.04,1.54.07,1.2-.86,1.22-1.69.02-.86.26-1.69-1.24-1.66-5.73.09-11.47.1-17.2,0-1.53-.03-1.2.86-1.22,1.69-.02.86-.26,1.73,1.24,1.66,2.79-.13,5.6-.04,8.39-.04Zm157.27,0c2.93,0,5.87-.09,8.8.04,1.52.07,1.23-.84,1.23-1.68,0-.84.29-1.7-1.23-1.68-5.73.1-11.47.1-17.2,0-1.52-.03-1.23.84-1.23,1.68,0,.84-.29,1.75,1.23,1.68,2.79-.13,5.59-.04,8.39-.04Z"/>
        <path class="cls-1" d="m167.62,125.43c-19.65,0-39.3,0-58.95,0-3.7,0-4.52-.82-4.52-4.51,0-2.66-.01-5.32,0-7.98.02-2.86,1.04-3.88,3.92-3.88,24.84,0,49.67,0,74.51,0,14.94,0,29.88,0,44.83,0,3.24,0,4.53,1.29,4.54,4.51,0,2.52,0,5.05,0,7.57-.01,2.93-1.38,4.29-4.34,4.29-19.99,0-39.98,0-59.97,0Zm.42-6.55c18.5,0,37-.02,55.5.04,1.53,0,1.88-.36,1.91-1.88.04-1.92-1.15-1.43-2.12-1.43-36.86,0-73.72,0-110.58,0-.27,0-.55.03-.82,0-.98-.15-1.18.27-1.28,1.23-.17,1.72.4,2.1,2.1,2.1,18.43-.07,36.86-.04,55.29-.04Z"/>
        <path class="cls-1" d="m167.74,135.26c-19.92,0-39.84,0-59.77,0-2.65,0-4-1.27-3.8-3.56.15-1.78,1.13-2.83,2.95-2.96.61-.05,1.23-.02,1.84-.02,39.37,0,78.73,0,118.1,0,.2,0,.41,0,.61,0,2.39.02,4.31,1.54,4.24,3.36-.07,1.76-1.92,3.19-4.21,3.19-19.99,0-39.98,0-59.97,0Z"/>
        <path class="cls-1" d="m91.04,124.25c-1.04,0-1.33.71-1.78,1.15-4.07,4.03-8.1,8.11-12.18,12.13-1.34,1.32-2.77,2.56-4.19,3.8-.95.82-3.2.64-4.09-.27-1.16-1.18-1.15-3.46.1-4.73,5.19-5.23,10.41-10.42,15.6-15.65.45-.45,1.14-.75,1.2-1.81-3.75,0-7.46.01-11.17,0-1.73,0-2.8-.97-3.08-2.6-.27-1.58.19-2.91,1.83-3.67.61-.29,1.18-.25,1.76-.25,6.14-.02,12.28-.02,18.42,0,2.69,0,4.13,1.43,4.13,4.09.02,6,.01,12,0,18.01,0,2.37-1.5,4.09-3.5,4.1-1.93,0-3.02-1.39-3.05-3.92,0-.95,0-1.91,0-2.86,0-2.49,0-4.97,0-7.49Z"/>
        <path class="cls-1" d="m125.45,138.53c5.66,0,11.31,0,16.97,0,.6,0,1.27-.04,1.79.19,1.42.62,2.66,1.61,2.46,3.3-.2,1.67-1.44,2.64-3.06,3.03-.32.08-.68.02-1.02.02-11.59,0-23.17,0-34.76,0-2.17,0-3.39-.93-3.65-2.68-.34-2.3,1.02-3.85,3.48-3.86,5.93-.03,11.86,0,17.79-.01Z"/>
        <path class="cls-1" d="m154.73,145.08c-3.49,0-4.92-1.12-4.69-3.67.08-.93.49-1.68,1.19-2.24,1.24-1,5.87-.91,7.11.13.95.8,1.84,1.74,1.39,3.09-.49,1.48-1.56,2.46-3.17,2.67-.6.08-1.22.01-1.83.01Z"/>
        <path class="cls-1" d="m149.82,194.24c-8.45,0-16.91,0-25.36,0-2.61,0-3.91-1.1-3.91-3.26,0-2.19,1.27-3.29,3.89-3.29,16.98,0,33.95,0,50.93,0,2.25,0,4.13,1.5,4.13,3.26,0,1.76-1.87,3.28-4.11,3.28-8.52.01-17.05,0-25.57,0Z"/>
        <path class="cls-1" d="m149.71,220.45c-8.59,0-17.18-.06-25.77.03-2.87.03-4.04-2.9-3.08-4.76.67-1.31,1.67-1.82,3.07-1.82,17.25,0,34.5,0,51.75.01,2.05,0,3.89,1.69,3.82,3.36-.07,1.62-1.85,3.17-3.81,3.17-8.66.02-17.32,0-25.98,0Z"/>
        <path class="cls-1" d="m135.28,204.07c-3.75,0-7.5.02-11.24,0-2.26-.02-3.49-1.2-3.5-3.26,0-2.06,1.23-3.27,3.48-3.28,7.36-.02,14.72-.02,22.08,0,2.07,0,3.93,1.61,3.91,3.28-.03,1.68-1.88,3.26-3.89,3.27-3.61.01-7.22,0-10.83,0Z"/>
        <path class="cls-1" d="m157.95,197.51c3.11,0,5.12,1.26,5.16,3.23.04,2.02-2.04,3.32-5.27,3.32-3.38,0-4.87-1.27-4.51-3.84.28-1.98,1.52-2.71,4.62-2.71Z"/>
        <path class="cls-1" d="m72.41,204.9c2.45,1.89,4.22,3.81,6.06,5.65,2.34,2.33,1.82,4.99.21,6.08-1.95,1.32-3.39.01-4.56-1.1-4-3.8-7.89-7.72-11.73-11.69-1.26-1.3-1.35-3.05-.08-4.37,4.35-4.51,8.76-8.98,13.3-13.3,1.16-1.11,2.94-.97,4.27.04,1.49,1.14,1.32,2.82.44,4.14-1.96,2.95-4.92,5.03-7.24,7.73.49.55,1.13.25,1.69.25,6.27.03,12.55,0,18.82.03,3.19.02,4.78,2.51,3.27,5.05-.73,1.21-1.83,1.52-3.17,1.51-6.21-.03-12.41-.01-18.62-.01-.73,0-1.45,0-2.66,0Z"/>
        <path class="cls-1" d="m226.81,197.51c-2.26-2.27-4.27-4.26-6.26-6.27-1.69-1.71-1.82-3.64-.36-5.12,1.34-1.36,3.37-1.24,4.99.37,4.02,3.99,8.03,7.99,12.02,12,1.57,1.58,1.46,2.86.02,4.63-3.23,3.97-7.11,7.3-10.63,10.98-.88.91-1.84,1.8-2.9,2.47-1.22.76-2.53,1.15-3.81-.16-1.18-1.2-1.84-2.34-.63-3.88.79-1,1.47-2.07,2.44-2.94,1.76-1.59,3.45-3.25,5.09-4.79-.5-1.04-1.13-.71-1.6-.71-6.35-.03-12.69-.01-19.04-.02-2.48,0-3.7-1.07-3.68-3.18.02-2.28,1.23-3.36,3.82-3.36,6.41-.01,12.83,0,19.24,0,.31,0,.62,0,1.3,0Z"/>
      </g>
      <path class="cls-1" d="m150,300C67.29,300,0,232.71,0,150S67.29,0,150,0s150,67.29,150,150-67.29,150-150,150Zm0-296.3C69.33,3.7,3.7,69.33,3.7,150s65.63,146.3,146.3,146.3,146.3-65.63,146.3-146.3S230.67,3.7,150,3.7Z"/>
    </g>
  </g>
</svg>