<?xml version="1.0" encoding="utf-8"?>
<!-- Generator: Adobe Illustrator 27.1.0, SVG Export Plug-In . SVG Version: 6.00 Build 0)  -->
<svg version="1.1" id="Capa_2_00000056403552312522040930000005264864749779108508_"
	 xmlns="http://www.w3.org/2000/svg" xmlns:xlink="http://www.w3.org/1999/xlink" x="0px" y="0px" viewBox="0 0 300 300"
	 style="enable-background:new 0 0 300 300;" xml:space="preserve">
<style type="text/css">
	.st0{fill:#FFFFFF;}
</style>
<g id="Capa_1-2">
	<g>
		<g>
			<path class="st0" d="M149.9,233.6c-32.3,0-64.6,0-96.8,0c-3.8,0-4.6-0.8-4.6-4.7c0-17.7,0-35.4,0-53c0-2.9,0.8-4.7,4.5-4.6
				c4.6,0.2,9.1,0,13.7,0.1c1.1,0,1.5-0.2,1.5-1.4c-0.1-3.4-0.1-6.8,0-10.2c0.1-1.4-0.5-1.5-1.7-1.5c-4.8,0.1-9.5,0-14.3,0
				c-2.6,0-3.7-1.1-3.7-3.7c0-18.3,0-36.6,0-54.9c0-2.6,1.1-3.7,3.7-3.7c4.8,0,9.7,0,14.5,0c1.2,0,1.5-0.3,1.4-1.5
				c-0.1-3.4-0.1-6.8,0-10.2c0-1.2-0.3-1.5-1.5-1.4c-2.7,0.1-5.3,0-8,0c-2.5,0-3.6-1.1-3.7-3.5c0-3.1,0-6.3,0-9.4
				c0-2.3,1.2-3.4,3.5-3.4c8.4,0,16.8,0,25.2,0c2.6,0,4,1.5,4,4c0,2.8,0,5.6,0,8.4c0,2.5-1.5,4-4,4c-2.5,0-4.9,0.1-7.4,0
				c-1.2,0-1.8,0.2-1.7,1.6c0.1,3.3,0.1,6.7,0,10c-0.1,1.4,0.4,1.5,1.6,1.5c6.5-0.1,13,0,19.4,0c42.5,0,85,0,127.6,0.1
				c1.9,0,2.2-0.5,2.2-2.2c-0.1-3.1-0.1-6.3,0-9.4c0.1-1.3-0.4-1.6-1.6-1.5c-2.7,0.1-5.3,0.1-8,0c-2.4,0-3.5-1.1-3.5-3.4
				c-0.1-3.1,0-6.3,0-9.4c0-2.4,1.1-3.5,3.4-3.5c8.5,0,16.9,0,25.4,0c2.4,0,3.9,1.5,3.9,3.9c0,2.9,0,5.7,0,8.6
				c0,2.3-1.5,3.8-3.9,3.9c-2.7,0-5.3,0.1-8,0c-1,0-1.3,0.3-1.2,1.2c0.1,3.5,0.1,7,0,10.4c0,1.2,0.3,1.5,1.5,1.5
				c4.6-0.1,9.3,0,13.9,0c3,0,4.3,1.3,4.3,4.3c0,17.8,0,35.6,0,53.4c0,3.1-1.3,4.5-4.4,4.5c-4.6,0-9.1,0.1-13.7,0
				c-1.2,0-1.6,0.3-1.6,1.6c0.1,3.3,0.1,6.7,0,10c0,1.2,0.3,1.6,1.6,1.6c4.6-0.1,9.3,0,13.9,0c2.8,0,4.2,1.4,4.2,4.2
				c0,17.9,0,35.8,0,53.7c0,3.1-1.3,4.4-4.5,4.4C214.7,233.6,182.3,233.6,149.9,233.6L149.9,233.6z M150.2,102.5
				c-31.1,0-62.2,0-93.4,0c-1.5,0-1.9,0.3-1.9,1.9c0.1,15.2,0.1,30.3,0,45.5c0,1.5,0.3,1.9,1.9,1.9c62.1,0,124.2,0,186.4,0
				c1.5,0,1.9-0.3,1.9-1.9c-0.1-15.1-0.1-30.2,0-45.3c0-1.7-0.4-2.1-2.1-2.1C212.1,102.5,181.2,102.5,150.2,102.5L150.2,102.5z
				 M150,227c12.5,0,25,0,37.5,0c1.5,0,1.9-0.4,1.9-1.9c-0.1-15.1-0.1-30.3,0-45.5c0-1.5-0.4-1.9-1.9-1.9c-25,0.1-50,0.1-74.9,0
				c-1.5,0-1.9,0.4-1.9,1.9c0.1,15.1,0.1,30.3,0,45.5c0,1.5,0.4,1.9,1.9,1.9C125,227,137.5,227,150,227L150,227z M79.7,177.9
				c-7.6,0-15.3,0-22.9,0c-1.4,0-1.8,0.3-1.8,1.8c0.1,15.2,0.1,30.4,0,45.7c0,1.4,0.3,1.8,1.8,1.8c15.2-0.1,30.4-0.1,45.7,0
				c1.4,0,1.8-0.3,1.8-1.8c-0.1-15.2-0.1-30.4,0-45.7c0-1.4-0.3-1.8-1.8-1.8C94.8,177.9,87.3,177.8,79.7,177.9L79.7,177.9z
				 M220.3,227c7.6,0,15.3,0,22.9,0c1.3,0,1.9-0.1,1.9-1.7c-0.1-15.3-0.1-30.6,0-45.9c0-1.4-0.4-1.6-1.7-1.6
				c-15.3,0-30.6,0.1-45.9,0c-1.4,0-1.6,0.4-1.6,1.7c0,15.3,0.1,30.6,0,45.9c0,1.4,0.4,1.7,1.7,1.6C205.2,227,212.7,227,220.3,227
				L220.3,227z M149.8,171.3c24.6,0,49.2,0,73.7,0c1.5,0,2-0.3,1.9-1.9c-0.1-3.1-0.1-6.1,0-9.2c0.1-1.7-0.4-2.1-2.1-2.1
				c-32.6,0.1-65.1,0-97.7,0c-16.4,0-32.8,0-49.2,0c-1.5,0-2,0.3-1.9,1.9c0.1,3.1,0.2,6.1,0,9.2c-0.1,1.7,0.4,2.1,2.1,2.1
				C101.1,171.3,125.4,171.3,149.8,171.3L149.8,171.3z M71.2,76.3c2.9,0,5.9-0.1,8.8,0c1.5,0.1,1.2-0.9,1.2-1.7
				c0-0.9,0.3-1.7-1.2-1.7c-5.7,0.1-11.5,0.1-17.2,0c-1.5,0-1.2,0.9-1.2,1.7c0,0.9-0.3,1.7,1.2,1.7C65.6,76.2,68.4,76.3,71.2,76.3
				L71.2,76.3z M228.5,76.3c2.9,0,5.9-0.1,8.8,0c1.5,0.1,1.2-0.8,1.2-1.7c0-0.8,0.3-1.7-1.2-1.7c-5.7,0.1-11.5,0.1-17.2,0
				c-1.5,0-1.2,0.8-1.2,1.7c0,0.8-0.3,1.8,1.2,1.7C222.8,76.2,225.6,76.3,228.5,76.3L228.5,76.3z"/>
			<path class="st0" d="M167.6,125.4c-19.6,0-39.3,0-58.9,0c-3.7,0-4.5-0.8-4.5-4.5c0-2.7,0-5.3,0-8c0-2.9,1-3.9,3.9-3.9
				c24.8,0,49.7,0,74.5,0c14.9,0,29.9,0,44.8,0c3.2,0,4.5,1.3,4.5,4.5c0,2.5,0,5.1,0,7.6c0,2.9-1.4,4.3-4.3,4.3
				C207.6,125.4,187.6,125.4,167.6,125.4L167.6,125.4z M168,118.9c18.5,0,37,0,55.5,0c1.5,0,1.9-0.4,1.9-1.9c0-1.9-1.1-1.4-2.1-1.4
				c-36.9,0-73.7,0-110.6,0c-0.3,0-0.6,0-0.8,0c-1-0.2-1.2,0.3-1.3,1.2c-0.2,1.7,0.4,2.1,2.1,2.1C131.2,118.9,149.6,118.9,168,118.9
				L168,118.9z"/>
			<path class="st0" d="M167.7,135.3c-19.9,0-39.8,0-59.8,0c-2.7,0-4-1.3-3.8-3.6c0.2-1.8,1.1-2.8,2.9-3c0.6-0.1,1.2,0,1.8,0
				c39.4,0,78.7,0,118.1,0c0.2,0,0.4,0,0.6,0c2.4,0,4.3,1.5,4.2,3.4c-0.1,1.8-1.9,3.2-4.2,3.2C207.7,135.3,187.7,135.3,167.7,135.3
				L167.7,135.3z"/>
			<path class="st0" d="M91,124.2c-1,0-1.3,0.7-1.8,1.2c-4.1,4-8.1,8.1-12.2,12.1c-1.3,1.3-2.8,2.6-4.2,3.8
				c-0.9,0.8-3.2,0.6-4.1-0.3c-1.2-1.2-1.2-3.5,0.1-4.7c5.2-5.2,10.4-10.4,15.6-15.7c0.4-0.4,1.1-0.8,1.2-1.8c-3.8,0-7.5,0-11.2,0
				c-1.7,0-2.8-1-3.1-2.6c-0.3-1.6,0.2-2.9,1.8-3.7c0.6-0.3,1.2-0.2,1.8-0.2c6.1,0,12.3,0,18.4,0c2.7,0,4.1,1.4,4.1,4.1
				c0,6,0,12,0,18c0,2.4-1.5,4.1-3.5,4.1c-1.9,0-3-1.4-3.1-3.9c0-0.9,0-1.9,0-2.9C91,129.3,91,126.8,91,124.2L91,124.2z"/>
			<path class="st0" d="M125.4,138.5c5.7,0,11.3,0,17,0c0.6,0,1.3,0,1.8,0.2c1.4,0.6,2.7,1.6,2.5,3.3c-0.2,1.7-1.4,2.6-3.1,3
				c-0.3,0.1-0.7,0-1,0c-11.6,0-23.2,0-34.8,0c-2.2,0-3.4-0.9-3.7-2.7c-0.3-2.3,1-3.9,3.5-3.9C113.6,138.5,119.5,138.5,125.4,138.5
				L125.4,138.5z"/>
			<path class="st0" d="M154.7,145.1c-3.5,0-4.9-1.1-4.7-3.7c0.1-0.9,0.5-1.7,1.2-2.2c1.2-1,5.9-0.9,7.1,0.1
				c0.9,0.8,1.8,1.7,1.4,3.1c-0.5,1.5-1.6,2.5-3.2,2.7C156,145.1,155.3,145.1,154.7,145.1L154.7,145.1z"/>
			<path class="st0" d="M149.8,194.2c-8.4,0-16.9,0-25.4,0c-2.6,0-3.9-1.1-3.9-3.3c0-2.2,1.3-3.3,3.9-3.3c17,0,33.9,0,50.9,0
				c2.2,0,4.1,1.5,4.1,3.3s-1.9,3.3-4.1,3.3C166.9,194.2,158.3,194.2,149.8,194.2L149.8,194.2z"/>
			<path class="st0" d="M149.7,220.4c-8.6,0-17.2-0.1-25.8,0c-2.9,0-4-2.9-3.1-4.8c0.7-1.3,1.7-1.8,3.1-1.8c17.2,0,34.5,0,51.7,0
				c2.1,0,3.9,1.7,3.8,3.4c-0.1,1.6-1.9,3.2-3.8,3.2C167,220.5,158.4,220.4,149.7,220.4L149.7,220.4z"/>
			<path class="st0" d="M135.3,204.1c-3.8,0-7.5,0-11.2,0c-2.3,0-3.5-1.2-3.5-3.3c0-2.1,1.2-3.3,3.5-3.3c7.4,0,14.7,0,22.1,0
				c2.1,0,3.9,1.6,3.9,3.3c0,1.7-1.9,3.3-3.9,3.3C142.5,204.1,138.9,204.1,135.3,204.1L135.3,204.1z"/>
			<path class="st0" d="M157.9,197.5c3.1,0,5.1,1.3,5.2,3.2c0,2-2,3.3-5.3,3.3c-3.4,0-4.9-1.3-4.5-3.8
				C153.6,198.2,154.9,197.5,157.9,197.5z"/>
			<path class="st0" d="M72.4,204.9c2.4,1.9,4.2,3.8,6.1,5.6c2.3,2.3,1.8,5,0.2,6.1c-1.9,1.3-3.4,0-4.6-1.1
				c-4-3.8-7.9-7.7-11.7-11.7c-1.3-1.3-1.3-3.1-0.1-4.4c4.4-4.5,8.8-9,13.3-13.3c1.2-1.1,2.9-1,4.3,0c1.5,1.1,1.3,2.8,0.4,4.1
				c-2,2.9-4.9,5-7.2,7.7c0.5,0.6,1.1,0.2,1.7,0.2c6.3,0,12.6,0,18.8,0c3.2,0,4.8,2.5,3.3,5.1c-0.7,1.2-1.8,1.5-3.2,1.5
				c-6.2,0-12.4,0-18.6,0C74.3,204.9,73.6,204.9,72.4,204.9L72.4,204.9z"/>
			<path class="st0" d="M226.8,197.5c-2.3-2.3-4.3-4.3-6.3-6.3c-1.7-1.7-1.8-3.6-0.4-5.1c1.3-1.4,3.4-1.2,5,0.4c4,4,8,8,12,12
				c1.6,1.6,1.5,2.9,0,4.6c-3.2,4-7.1,7.3-10.6,11c-0.9,0.9-1.8,1.8-2.9,2.5c-1.2,0.8-2.5,1.1-3.8-0.2c-1.2-1.2-1.8-2.3-0.6-3.9
				c0.8-1,1.5-2.1,2.4-2.9c1.8-1.6,3.4-3.2,5.1-4.8c-0.5-1-1.1-0.7-1.6-0.7c-6.4,0-12.7,0-19,0c-2.5,0-3.7-1.1-3.7-3.2
				c0-2.3,1.2-3.4,3.8-3.4c6.4,0,12.8,0,19.2,0C225.8,197.5,226.1,197.5,226.8,197.5L226.8,197.5z"/>
		</g>
	</g>
</g>
</svg>
