<?xml version="1.0" encoding="utf-8"?>
<!-- Generator: Adobe Illustrator 27.1.0, SVG Export Plug-In . SVG Version: 6.00 Build 0)  -->
<svg version="1.1" id="Capa_2_00000064343947953831040380000013663500559706423724_"
	 xmlns="http://www.w3.org/2000/svg" xmlns:xlink="http://www.w3.org/1999/xlink" x="0px" y="0px" viewBox="0 0 300 300"
	 style="enable-background:new 0 0 300 300;" xml:space="preserve">
<style type="text/css">
	.st0{fill:#FFFFFF;}
</style>
<g id="Capa_1-2">
	<g>
		<g>
			<path class="st0" d="M75,140.1c0-2.6,0-5.1,0-7.7c0-2.4,0.5-4.8,1.8-6.9c2.6-4.4,7.6-6.2,11.3-5.7c5.1,0.8,8.9,4.5,10,9.4
				c0.2,1,0.3,2.1,0.3,3.2c0,4.4,0,8.7,0,13.1c3.2,2.6,5.2,6,5.8,10.1c0.5,4.1-0.5,7.8-3,11.2c1.2,3.3,2.5,6.6,3.7,9.9
				c1.2,3.3,2.5,6.6,3.8,10.1c0.9-1,1.6-1.9,2.4-2.8c4-4.6,8.7-8.2,14.1-10.9c7.7-3.9,15.4-7.8,23.2-11.5c4.1-2,6.1-5.2,6-9.9
				c-0.1-1.9,0-3.8,0-5.7c-5.4-3.8-9-9-11.8-15c1.4-0.5,6.7-0.6,9.7-0.2c4.8,7.6,11.4,12.2,20.4,12.2c9.1,0,15.7-4.5,20.5-12.3
				c3.2,0,6.4,0,9.8,0c-2.7,6.2-6.5,11.2-11.7,15.2c0,2.9-0.3,5.8,0.1,8.6c0.4,3.2,2.4,5.4,5.2,6.8c6.3,3.1,12.7,6.3,19,9.4
				c4.2,2.1,8.5,4.1,12.2,7.1c8.9,7,14.7,16.2,17.1,27.5c1.7,7.9,3.3,15.8,4.9,23.7c0.1,0.6,0.1,1.2,0.2,1.9
				c-2.8,0.6-5.4,1.2-8.2,1.8c-0.2-0.4-0.4-0.8-0.4-1.1c-1.6-7.7-3.2-15.4-4.8-23.1c-2.5-12.4-9.2-21.4-20.1-27.1
				c-7.8-4.1-15.8-7.9-23.7-11.8c-3.5-1.7-6.3-4.3-8.2-7.8c-1.5-2.8-2.2-5.8-2.3-9c0-0.6,0-1.2,0-2c-2.2,0.4-4.3,0.9-6.4,1.1
				c-2.1,0.2-4.3,0.2-6.4,0c-2.1-0.2-4.2-0.7-6.4-1.1c0,0.7-0.1,1.2-0.1,1.8c-0.1,7.7-3.5,13.3-10.2,16.8
				c-6.9,3.6-13.9,6.9-20.9,10.4c-3.8,1.9-7.6,3.9-10.8,6.8c-3.4,3.1-6.3,6.6-8.5,10.8c0.9,2.5,1.9,5.1,2.9,7.6
				c1.2,2.8,1.2,5.6-0.1,8.4c-0.4,1-0.8,2-1.2,3c-0.4,1-1,1.7-2.2,1.7c-1.2,0-1.7-0.7-2.1-1.7c-1.5-4-3-8-4.4-12
				c-4.6-12.4-9.1-24.9-13.7-37.4c-0.3-0.9-0.9-1.9-0.3-2.9c0.4-0.6,0.9-1.2,1.6-1.7c1.8-1.4,2.8-3.1,2.4-5.4c-0.4-2.4-1.7-4.2-4-5
				c-0.5-0.2-1.1-0.3-1.8-0.5c0-0.7,0-1.3,0-2c0-5.5,0-11,0-16.5c0-0.7-0.1-1.5-0.3-2.2c-0.4-1.3-1.7-2.1-2.8-2.1
				c-1.2,0-2.3,0.9-2.7,2.2c-0.2,0.7-0.3,1.4-0.3,2.2c0,4.6,0,9.3,0,13.9c0,0.7,0,1.3,0,2.2c-1.8,0-3.4,0-5,0c-1.3,0-2.6,0-3.9,0
				c-4,0-6.8,2.8-6.8,6.9c0,2.8,0,5.6,0,8.5c0,2.4,1,4.3,2.9,5.6c1.7,1.2,3.4,2.4,5.2,3.5c1.4,0.9,2.3,2.1,2.8,3.7
				c5.3,15.4,10.7,30.7,16,46.1c1.4,4.1,2.9,8.3,4.4,12.4c1.1,3,3.2,4.8,6.3,5.3c2,0.3,3.8-0.4,5.6-1.4c4.2-2.6,8.3-5.2,12.5-7.9
				c1.9-1.2,3.9-2.4,5.9-3.7c1.5,2.6,3,5,4.5,7.6c-0.5,0.3-0.9,0.6-1.3,0.9c-5.8,3.7-11.7,7.3-17.5,11c-6.3,3.9-13.4,3.3-19-1.2
				c-2.5-2-4.2-4.7-5.3-7.8c-4.4-12.6-8.8-25.1-13.2-37.7c-2.1-6.1-4.2-12.2-6.3-18.3c-0.4-1.2-1.1-2.1-2.1-2.7
				c-2.2-1.4-4.4-2.6-6.1-4.6c-2.5-2.9-4-6.1-4-10c0-3.4,0-6.7,0-10.1c0-5.6,4-12.5,11.6-14.4C72.2,140.4,73.5,140.4,75,140.1
				L75,140.1z"/>
			<path class="st0" d="M138.4,71.2c1.6-2.7,2.9-5.2,4.5-7.4c4.8-6.5,11.1-10.5,18.8-12.5c8.8-2.3,17.4-1.9,25.9,1.3
				c8.2,3.1,14.2,8.7,18.1,16.8c0.3,0.5,0.5,1.1,0.8,1.6c0,0.1,0.1,0.1,0.3,0.2c1.1,0.2,2.3,0.4,3.5,0.7c6.7,1.6,12.5,8.2,13.1,15.6
				c0.2,2.9,0.3,5.8,0.2,8.6c0,3.5,0,7-0.4,10.4c-0.8,7.3-7.2,13.9-14.3,15c-1.5,0.2-3.1,0.3-4.7,0.4c-21.4,0-42.9,0-64.3,0
				c-8.2,0-15-5.2-17.3-13.3c-0.4-1.5-0.7-3-0.7-4.5c-0.1-4.8,0-9.5-0.1-14.3c-0.1-8.9,6.1-16.2,13.7-18
				C136.6,71.5,137.6,71.3,138.4,71.2L138.4,71.2z M205.5,112.9c5-0.1,8.9-3.4,9.2-8.5c0.3-5.3,0.2-10.7,0-16.1
				c-0.2-3.8-2.4-6.3-5.8-7.5c-1.3-0.5-2.8-0.6-4.2-0.7c-4.6-0.1-9.1,0-13.7,0c-14.5,0-28.9,0-43.4,0c-3.1,0-6.1,0.1-9.2,0.3
				c-3.4,0.2-7.5,3.5-7.7,8.8c-0.1,4.9-0.1,9.8,0,14.7c0,2.1,0.8,3.9,2,5.5c2,2.5,4.6,3.6,7.7,3.6
				C151.1,112.9,202.8,113,205.5,112.9L205.5,112.9z M196.7,71.1c-0.2-0.5-0.4-0.8-0.6-1.1c-2.4-3.5-5.4-6.2-9.1-8
				c-7-3.4-14.3-4-21.9-2.3c-4.5,1-8.5,2.9-12,6c-1.7,1.5-3.1,3.3-4.4,5.5C164.8,71.1,180.7,71.1,196.7,71.1L196.7,71.1z"/>
			<path class="st0" d="M82.3,164.4c-1.8,0-3.2-1.2-3.7-2.9c-0.4-1.5,0.2-3.4,1.7-4.1c2.5-1.2,5.1-2.2,7.8-3.2
				c1.4-0.5,3.2,0.5,3.9,1.9c0.8,1.5,0.4,3.5-0.8,4.6c-0.2,0.2-0.5,0.4-0.8,0.6c-2.4,1-4.8,1.9-7.2,2.9
				C82.8,164.3,82.5,164.3,82.3,164.4L82.3,164.4z"/>
			<path class="st0" d="M54.7,132.1c0,3.6,0.7,7,1.8,10.4c0.1,0.4,0.3,0.9,0.5,1.3c0.3,1.4-0.2,2.6-1.3,3c-1.2,0.4-2.4,0-2.9-1.3
				c-0.7-1.9-1.4-3.9-1.8-5.9c-0.5-2.7-0.6-5.4-0.8-8.1c-0.1-0.7,0.1-1.5,0.2-2.2c0.2-1.1,1.3-1.9,2.3-1.8c1.1,0.1,2,1,2.1,2.2
				C54.7,130.5,54.7,131.3,54.7,132.1L54.7,132.1z"/>
			<path class="st0" d="M67.3,122.7c-1.8,0-3-1.8-2.1-3.3c1.2-1.9,2.5-3.7,4-5.4c2.1-2.3,4.7-4,7.6-5.2c1-0.4,2-0.6,2.9,0.3
				c1,1,1,2.4,0,3.3c-0.3,0.3-0.6,0.5-1,0.6c-3.9,1.8-7.1,4.4-9.3,8.2C68.9,122.1,68.3,122.8,67.3,122.7z"/>
			<path class="st0" d="M122.3,125.8c0,1.4-0.6,2.3-1.8,2.6c-1.2,0.3-2.2-0.3-2.7-1.7c-0.2-0.6-0.3-1.3-0.4-1.9
				c-0.8-3.7-2.2-7.2-4.2-10.5c-0.4-0.6-0.6-1.3-0.8-2c-0.2-0.9,0.3-1.7,1.2-2.1c0.9-0.4,1.8-0.3,2.6,0.3c0.2,0.2,0.4,0.5,0.6,0.8
				c2.7,4.3,4.5,9,5.5,14C122.4,125.5,122.4,125.7,122.3,125.8L122.3,125.8z"/>
			<path class="st0" d="M84.3,94.4c1.4,0,2.4,0.8,2.5,2.2c0.1,1.5-0.7,2.4-2.3,2.7c-2.1,0.3-4.3,0.5-6.3,1.1
				c-1.9,0.5-3.8,1.4-5.6,2.1c-0.5,0.2-0.9,0.5-1.4,0.6c-1.1,0.3-2.1-0.2-2.6-1.3c-0.4-1-0.2-2,0.6-2.7c0.1-0.1,0.3-0.2,0.5-0.3
				C74.2,96.1,79.1,94.9,84.3,94.4z"/>
			<path class="st0" d="M110.6,131.2c0,1.3-0.3,2.2-1.4,2.8c-0.8,0.4-1.5,0.3-2.2-0.2c-0.7-0.5-1.1-1.1-1.1-2c0-4.2-1.3-8-3.5-11.5
				c-0.9-1.3-0.6-2.8,0.5-3.5c1.1-0.7,2.5-0.3,3.3,1c2.2,3.2,3.5,6.8,4,10.7C110.3,129.5,110.5,130.4,110.6,131.2L110.6,131.2z"/>
			<path class="st0" d="M101.8,98.1c0.2,0.1,0.7,0.2,1.1,0.4c1.7,1,3.4,2,5,3.1c1.2,0.9,1.4,2.2,0.7,3.3c-0.7,1.1-2,1.3-3.3,0.6
				c-1.6-1-3.1-1.9-4.6-2.9c-1.1-0.7-1.4-1.7-1.1-2.7C99.8,98.8,100.6,98.1,101.8,98.1L101.8,98.1z"/>
			<path class="st0" d="M63.7,108.4c-0.1,0.2-0.2,0.8-0.5,1.2c-1.1,1.6-2.3,3.1-3.5,4.6c-1.3,1.6-3.4,1.3-4-0.6
				c-0.2-0.4-0.2-1.2,0.1-1.5c1.3-2,2.7-3.9,4.2-5.7c0.6-0.7,1.6-0.8,2.5-0.3C63.2,106.5,63.7,107.2,63.7,108.4z"/>
			<path class="st0" d="M116,151.7c-1.8-0.1-2.8-1.7-2.1-3.3c0.8-1.8,1.6-3.6,2.5-5.4c0.6-1.3,1.8-1.7,2.9-1.2
				c1.2,0.6,1.8,1.6,1.3,2.9c-0.8,2-1.7,3.9-2.6,5.8C117.5,151.4,116.7,151.7,116,151.7L116,151.7z"/>
			<path class="st0" d="M95.4,108.9c0.2,0.1,0.6,0.1,0.9,0.3c1.8,1.1,3.6,2.2,5.2,3.4c1.1,0.8,1.2,2.2,0.4,3.2
				c-0.7,0.9-2.1,1.2-3.1,0.6c-1.7-1-3.3-2.1-4.9-3.2c-0.9-0.6-1.2-1.7-0.9-2.6C93.3,109.6,94.2,108.9,95.4,108.9L95.4,108.9z"/>
			<path class="st0" d="M67.2,126.2c-0.1,0.4-0.3,1-0.3,1.6c-0.2,1.4-0.3,2.8-0.4,4.2c-0.1,1.3-1.1,2.3-2.3,2.3
				c-1.1,0-2.1-0.9-2.2-2.2c-0.1-2.4,0.1-4.8,0.9-7.1c0.4-1.1,1.5-1.7,2.5-1.4C66.5,123.9,67.2,124.8,67.2,126.2z"/>
			<path class="st0" d="M152.9,93.2c1.8,0.1,2.9,1.9,2.1,3.5c-0.2,0.4-0.6,0.7-0.9,1.1c-2.9,2.9-5.7,5.9-8.6,8.8
				c-0.2,0.2-0.4,0.5-0.7,0.7c-1,0.8-2.4,0.9-3.2,0.1c-0.8-0.8-0.9-2.2-0.1-3.3c0.2-0.3,0.4-0.5,0.7-0.7c2.9-3,5.8-6,8.7-8.9
				C151.5,93.7,152.1,93.1,152.9,93.2L152.9,93.2z"/>
			<path class="st0" d="M142.3,95.8c-1.8-0.1-2.8-1.9-2-3.4c0.2-0.3,0.4-0.5,0.6-0.8c2.1-2.1,4.1-4.3,6.2-6.4c1-1,2-1.1,3-0.5
				c1.2,0.8,1.5,2.2,0.6,3.4c-0.6,0.8-1.4,1.6-2.2,2.3c-1.4,1.5-2.9,2.9-4.3,4.4C143.7,95.4,143.1,95.8,142.3,95.8L142.3,95.8z"/>
			<path class="st0" d="M163.5,87.3c-0.2,0.5-0.4,1.2-0.8,1.6c-0.9,1.1-2,2.1-3,3.1c-1.1,1-2.4,1-3.3,0c-0.8-0.9-0.9-2.2,0-3.3
				c1-1.2,2.1-2.2,3.2-3.3c0.7-0.7,1.5-0.9,2.5-0.4C162.9,85.5,163.2,86.2,163.5,87.3L163.5,87.3z"/>
		</g>
	</g>
</g>
</svg>
