<?xml version="1.0" encoding="UTF-8"?>
<svg id="Capa_2" data-name="Capa 2" xmlns="http://www.w3.org/2000/svg" viewBox="0 0 300 300">
  <defs>
    <style>
      .cls-1 {
        fill: #fff;
      }
    </style>
  </defs>
  <g id="Capa_1-2" data-name="Capa 1">
    <g>
      <g>
        <path class="cls-1" d="m75,140.1c0-2.58-.02-5.12,0-7.66.02-2.45.54-4.76,1.82-6.88,2.64-4.41,7.64-6.25,11.32-5.65,5.12.84,8.95,4.48,9.98,9.45.22,1.04.33,2.12.34,3.18.04,4.36.02,8.72.02,13.15,3.19,2.61,5.23,5.98,5.79,10.13.54,4.09-.49,7.84-3,11.17,1.24,3.32,2.47,6.62,3.7,9.92,1.24,3.3,2.48,6.6,3.79,10.08.86-1.01,1.62-1.89,2.38-2.76,4.01-4.6,8.72-8.23,14.13-10.92,7.73-3.85,15.43-7.75,23.18-11.54,4.1-2.01,6.08-5.24,5.96-9.9-.05-1.87,0-3.75,0-5.66-5.38-3.83-9.03-9.03-11.82-14.98,1.4-.49,6.66-.6,9.69-.23,4.75,7.56,11.35,12.19,20.41,12.19,9.05,0,15.7-4.51,20.51-12.27,3.2,0,6.38,0,9.77,0-2.68,6.16-6.46,11.24-11.73,15.2,0,2.86-.26,5.77.07,8.6.37,3.2,2.4,5.41,5.21,6.81,6.33,3.14,12.66,6.27,18.98,9.43,4.21,2.11,8.47,4.11,12.23,7.06,8.95,7.03,14.7,16.17,17.15,27.46,1.71,7.89,3.3,15.81,4.93,23.73.12.57.12,1.17.18,1.89-2.78.61-5.43,1.19-8.17,1.79-.16-.41-.36-.76-.43-1.14-1.59-7.71-3.21-15.42-4.75-23.15-2.46-12.37-9.18-21.42-20.07-27.11-7.83-4.09-15.79-7.91-23.69-11.83-3.5-1.74-6.29-4.26-8.2-7.77-1.53-2.8-2.23-5.83-2.31-9.03-.01-.59,0-1.19,0-1.98-2.21.4-4.27.93-6.36,1.12-2.14.19-4.31.21-6.45.02-2.11-.19-4.19-.73-6.39-1.14-.03.66-.07,1.25-.08,1.84-.13,7.69-3.54,13.33-10.18,16.76-6.92,3.57-13.93,6.94-20.89,10.4-3.81,1.9-7.59,3.85-10.8,6.77-3.4,3.09-6.3,6.58-8.48,10.81.95,2.53,1.86,5.1,2.9,7.63,1.16,2.82,1.18,5.58-.05,8.36-.43.97-.78,1.98-1.18,2.97-.4,1-.99,1.71-2.16,1.69-1.15-.02-1.74-.67-2.12-1.72-1.46-4.01-2.96-8-4.43-12-4.56-12.45-9.11-24.9-13.65-37.36-.34-.92-.92-1.89-.31-2.87.4-.65.95-1.25,1.55-1.71,1.78-1.35,2.75-3.08,2.4-5.36-.37-2.42-1.69-4.17-3.99-5.02-.54-.2-1.11-.32-1.83-.53,0-.67,0-1.33,0-1.99,0-5.5,0-11.01-.01-16.51,0-.72-.06-1.49-.28-2.16-.42-1.29-1.66-2.14-2.82-2.11-1.18.03-2.35.91-2.73,2.22-.2.69-.28,1.44-.28,2.17-.02,4.63-.01,9.26-.01,13.89,0,.66,0,1.31,0,2.2-1.77,0-3.39,0-5,0-1.3,0-2.61-.03-3.91-.02-4,.03-6.77,2.84-6.81,6.92-.03,2.82,0,5.64-.02,8.46-.01,2.41,1.01,4.26,2.91,5.59,1.72,1.21,3.43,2.45,5.22,3.54,1.43.87,2.27,2.08,2.82,3.67,5.32,15.36,10.69,30.71,16.04,46.06,1.45,4.15,2.86,8.32,4.38,12.44,1.1,2.98,3.22,4.81,6.33,5.31,2.04.33,3.85-.37,5.55-1.44,4.17-2.62,8.33-5.24,12.5-7.86,1.94-1.21,3.89-2.41,5.92-3.67,1.52,2.55,2.97,5,4.49,7.56-.49.34-.89.64-1.31.91-5.84,3.66-11.66,7.34-17.52,10.97-6.29,3.89-13.39,3.3-18.99-1.2-2.53-2.04-4.2-4.71-5.29-7.81-4.4-12.58-8.83-25.15-13.23-37.73-2.13-6.1-4.25-12.21-6.32-18.33-.41-1.21-1.05-2.06-2.1-2.73-2.16-1.37-4.38-2.65-6.1-4.65-2.46-2.86-3.95-6.12-3.98-9.99-.02-3.35-.02-6.71,0-10.07.02-5.65,4.02-12.48,11.58-14.43,1.25-.32,2.56-.4,4.15-.64Z"/>
        <path class="cls-1" d="m138.44,71.16c1.63-2.68,2.91-5.18,4.54-7.41,4.75-6.51,11.13-10.52,18.78-12.52,8.77-2.29,17.41-1.93,25.89,1.28,8.17,3.1,14.24,8.71,18.14,16.75.26.54.52,1.07.79,1.61.03.06.09.09.26.24,1.07.22,2.28.42,3.48.71,6.66,1.62,12.53,8.18,13.05,15.55.2,2.87.27,5.76.25,8.63-.02,3.48.01,6.98-.36,10.43-.79,7.35-7.19,13.94-14.32,15.01-1.54.23-3.11.35-4.66.36-21.44.02-42.89.02-64.33.01-8.19,0-15.04-5.22-17.33-13.27-.42-1.46-.65-3.02-.68-4.53-.09-4.76.01-9.52-.05-14.29-.12-8.94,6.08-16.24,13.66-18.03,1.01-.24,2.04-.38,2.89-.53Zm67.05,41.72c5.03-.09,8.88-3.37,9.2-8.52.33-5.34.22-10.73-.03-16.08-.17-3.76-2.41-6.31-5.84-7.53-1.32-.47-2.8-.63-4.21-.65-4.56-.08-9.13-.02-13.69-.02-14.48,0-28.95-.03-43.43,0-3.06,0-6.12.07-9.18.26-3.44.21-7.54,3.53-7.7,8.76-.14,4.89-.05,9.8-.01,14.7.02,2.08.75,3.92,2.02,5.53,1.99,2.53,4.62,3.59,7.72,3.59,10.76,0,62.41.04,65.15-.01Zm-8.82-41.83c-.24-.46-.38-.82-.59-1.13-2.37-3.47-5.4-6.2-9.12-7.98-7.02-3.36-14.34-4.01-21.89-2.33-4.46.99-8.49,2.91-11.96,5.99-1.72,1.53-3.15,3.3-4.45,5.46,16.13,0,32,0,48.02,0Z"/>
        <path class="cls-1" d="m82.34,164.39c-1.77,0-3.24-1.19-3.72-2.88-.42-1.51.21-3.44,1.67-4.13,2.53-1.19,5.14-2.23,7.77-3.18,1.44-.52,3.17.46,3.92,1.92.78,1.51.45,3.52-.77,4.59-.24.22-.51.44-.81.56-2.41.98-4.83,1.95-7.25,2.9-.3.12-.63.17-.82.22Z"/>
        <path class="cls-1" d="m54.66,132.09c.02,3.57.67,7.02,1.76,10.4.14.44.35.87.46,1.32.34,1.35-.2,2.55-1.32,2.96-1.19.43-2.42.01-2.9-1.26-.72-1.92-1.42-3.88-1.77-5.89-.47-2.68-.63-5.42-.85-8.15-.06-.72.07-1.47.23-2.18.25-1.12,1.27-1.88,2.26-1.82,1.1.07,2.04,1.02,2.12,2.22.05.8.01,1.6.01,2.41Z"/>
        <path class="cls-1" d="m67.27,122.65c-1.83,0-3-1.75-2.06-3.32,1.15-1.91,2.51-3.74,4.02-5.37,2.11-2.3,4.68-4,7.56-5.17,1.02-.42,2.01-.57,2.89.3,1.02,1.01,1.02,2.36,0,3.35-.27.27-.63.46-.98.62-3.93,1.75-7.07,4.42-9.32,8.19-.5.83-1.11,1.5-2.11,1.4Z"/>
        <path class="cls-1" d="m122.35,125.79c.03,1.43-.6,2.32-1.77,2.6-1.23.29-2.24-.31-2.69-1.67-.21-.63-.28-1.3-.42-1.95-.83-3.74-2.23-7.23-4.21-10.49-.36-.6-.64-1.31-.75-2-.15-.95.33-1.69,1.18-2.11.9-.45,1.78-.33,2.55.32.24.21.43.5.6.78,2.71,4.31,4.51,8.99,5.47,14.02.04.2.04.4.05.51Z"/>
        <path class="cls-1" d="m84.3,94.42c1.45.01,2.42.84,2.52,2.17.11,1.47-.7,2.4-2.31,2.65-2.11.33-4.26.52-6.31,1.06-1.93.51-3.77,1.4-5.64,2.13-.48.19-.94.47-1.44.59-1.11.29-2.08-.22-2.57-1.28-.44-.96-.23-1.97.57-2.72.14-.13.31-.25.48-.34,4.58-2.54,9.51-3.81,14.7-4.26Z"/>
        <path class="cls-1" d="m110.56,131.17c-.02,1.3-.32,2.25-1.39,2.83-.8.43-1.52.29-2.21-.17-.7-.46-1.07-1.15-1.07-2.02,0-4.2-1.27-7.98-3.49-11.48-.86-1.35-.57-2.85.53-3.53,1.11-.69,2.46-.31,3.34,1.02,2.17,3.24,3.51,6.82,3.97,10.73.11.93.22,1.86.31,2.62Z"/>
        <path class="cls-1" d="m101.8,98.06c.25.09.71.17,1.09.4,1.67,1.01,3.37,2,4.97,3.13,1.23.87,1.41,2.19.65,3.32-.72,1.08-2.04,1.33-3.28.57-1.56-.96-3.1-1.94-4.62-2.95-1.07-.7-1.44-1.66-1.13-2.69.32-1.05,1.14-1.73,2.32-1.77Z"/>
        <path class="cls-1" d="m63.66,108.41c-.11.24-.25.77-.54,1.18-1.12,1.55-2.27,3.08-3.46,4.57-1.29,1.6-3.36,1.28-4-.63-.15-.45-.18-1.15.06-1.5,1.33-1.96,2.7-3.9,4.2-5.72.6-.73,1.58-.84,2.5-.29.8.48,1.23,1.15,1.24,2.39Z"/>
        <path class="cls-1" d="m116.01,151.7c-1.82-.06-2.83-1.68-2.14-3.32.76-1.84,1.62-3.64,2.48-5.43.62-1.29,1.76-1.71,2.91-1.19,1.2.55,1.77,1.65,1.26,2.95-.77,1.98-1.68,3.9-2.6,5.81-.41.85-1.18,1.22-1.93,1.18Z"/>
        <path class="cls-1" d="m95.43,108.89c.18.05.59.06.91.26,1.76,1.1,3.56,2.16,5.22,3.41,1.07.8,1.15,2.2.45,3.2-.66.95-2.05,1.22-3.13.56-1.66-1.03-3.3-2.07-4.93-3.16-.88-.59-1.21-1.66-.93-2.63.27-.93,1.2-1.62,2.41-1.62Z"/>
        <path class="cls-1" d="m67.17,126.25c-.09.4-.26.98-.33,1.57-.17,1.39-.28,2.79-.43,4.18-.14,1.32-1.12,2.29-2.29,2.27-1.08-.02-2.11-.9-2.18-2.16-.13-2.41.09-4.81.9-7.09.4-1.12,1.49-1.66,2.5-1.43,1.18.27,1.87,1.19,1.83,2.66Z"/>
        <path class="cls-1" d="m152.95,93.19c1.82.05,2.87,1.93,2.05,3.48-.21.4-.55.74-.87,1.07-2.85,2.94-5.7,5.87-8.56,8.8-.23.24-.45.49-.7.7-1.02.85-2.36.87-3.19.06-.82-.8-.88-2.25-.12-3.29.19-.27.43-.5.66-.74,2.89-2.98,5.79-5.97,8.69-8.95.6-.62,1.21-1.24,2.04-1.13Z"/>
        <path class="cls-1" d="m142.31,95.77c-1.83-.06-2.83-1.89-1.97-3.43.16-.28.38-.54.6-.78,2.06-2.13,4.11-4.27,6.2-6.37.99-1,2.03-1.13,2.98-.52,1.22.78,1.5,2.23.56,3.44-.64.83-1.43,1.55-2.16,2.31-1.42,1.47-2.86,2.91-4.27,4.39-.57.6-1.18,1.04-1.94.96Z"/>
        <path class="cls-1" d="m163.51,87.3c-.24.48-.43,1.15-.83,1.61-.95,1.09-1.97,2.14-3.03,3.12-1.13,1.04-2.37.99-3.29-.01-.84-.92-.88-2.19.03-3.26.99-1.15,2.05-2.24,3.16-3.27.7-.65,1.53-.92,2.51-.41.85.45,1.18,1.17,1.46,2.22Z"/>
      </g>
      <path class="cls-1" d="m150,300C67.29,300,0,232.71,0,150S67.29,0,150,0s150,67.29,150,150-67.29,150-150,150Zm0-296.3C69.33,3.7,3.7,69.33,3.7,150s65.63,146.3,146.3,146.3,146.3-65.63,146.3-146.3S230.67,3.7,150,3.7Z"/>
    </g>
  </g>
</svg>